<?xml version="1.0" standalone="no"?>
<!DOCTYPE svg PUBLIC "-//W3C//DTD SVG 1.1//EN" "http://www.w3.org/Graphics/SVG/1.1/DTD/svg11.dtd" >
<svg xmlns="http://www.w3.org/2000/svg" xmlns:xlink="http://www.w3.org/1999/xlink" version="1.1">
<metadata>
Created by FontForge 20170731 at Sun Oct 29 16:17:49 2017
 By Aleksey,,,
Copyright 2011 The Lora Project Authors (https://github.com/cyrealtype/Lora-Cyrillic), with Reserved Font Name "Lora".
</metadata>
<defs>
<font id="Lora-BoldItalic" horiz-adv-x="0" >
  <font-face 
    font-family="Lora"
    font-weight="700"
    font-style="italic"
    font-stretch="normal"
    units-per-em="1000"
    panose-1="0 0 8 0 0 0 0 0 0 0"
    ascent="800"
    descent="-200"
    x-height="511"
    cap-height="700"
    bbox="-795 -294 1261 1076.07"
    underline-thickness="50"
    underline-position="-150"
    slope="-3"
    unicode-range="U+000D-FB02"
  />
<missing-glyph horiz-adv-x="542" 
d="M508 500l-26 -500h-453l26 500h453zM354 72l19 356h-189l-19 -356h189z" />
    <glyph glyph-name="fi" unicode="fi" horiz-adv-x="683" 
d="M472.5 747.5q47.5 -12.5 81.5 -41.5t34 -73q0 -24 -15 -45t-47 -21q-26 0 -44 16.5t-18 42.5q0 15 5 32q-17 19 -36 27.5t-53 8.5q-64 0 -97 -38.5t-41 -115.5l-5 -40h104l-6 -69l-102 -2q-6 -99 -16.5 -230.5t-19.5 -209.5q-30 -260 -217 -260q-45 0 -70 19.5t-25 52.5
q0 22 15 42.5t45 20.5q22 0 37 -14.5t15 -37.5q0 -6 -1 -10q6 -2 13 -2q30 0 42 51.5t20 137.5q8 87 19 255l14 184l-80 -1l9 73h80q33 260 269 260q43 0 90.5 -12.5zM566.5 481q21.5 -30 21.5 -86q0 -42 -18 -168q-13 -97 -13 -119q0 -26 15 -26q27 0 49 79l54 -16
q-6 -33 -26 -69t-52 -61.5t-74 -25.5q-53 0 -74.5 28t-21.5 85q0 27 5.5 71.5t11.5 87.5q15 98 15 131q0 26 -15 26q-26 0 -48 -79l-54 16q6 32 26.5 68.5t53 62t74.5 25.5q49 0 70.5 -30z" />
    <glyph glyph-name="fl" unicode="fl" horiz-adv-x="658" 
d="M404.5 756q22.5 -4 41.5 -9q38 -9 56 -9q26 0 42 17h55l-6 -50q-40 -346 -51 -449.5t-11 -144.5q0 -29 15 -29q26 0 48 79l54 -16q-15 -64 -51.5 -110t-101.5 -46q-40 0 -65.5 23.5t-25.5 72.5q0 70 8.5 163.5t25.5 240.5l8 70l5 35l8 68q-21 16 -46.5 24t-49.5 8
q-56 0 -84.5 -38.5t-36.5 -115.5l-5 -40h104l-6 -69l-102 -2q-6 -99 -16.5 -230.5t-19.5 -209.5q-30 -260 -217 -260q-45 0 -70 19.5t-25 52.5q0 22 15 42.5t45 20.5q22 0 37 -14.5t15 -37.5q0 -6 -1 -10q6 -2 13 -2q30 0 42 51.5t20 137.5q8 87 19 255l14 184l-80 -1l9 73
h80q17 131 76.5 195.5t171.5 64.5q21 0 43.5 -4z" />
    <glyph glyph-name=".notdef" horiz-adv-x="542" 
d="M508 500l-26 -500h-453l26 500h453zM354 72l19 356h-189l-19 -356h189z" />
    <glyph glyph-name=".null" 
 />
    <glyph glyph-name="nonmarkingreturn" unicode="&#xd;" horiz-adv-x="263" 
 />
    <glyph glyph-name="NULL" horiz-adv-x="263" 
 />
    <glyph glyph-name="NULL" horiz-adv-x="263" 
 />
    <glyph glyph-name="space" unicode=" " horiz-adv-x="263" 
 />
    <glyph glyph-name="exclam" unicode="!" horiz-adv-x="255" 
d="M199 694q17 -22 17 -53q0 -11 -1 -16l-58 -412h-67l-16 412q-2 35 19 63t56 28q33 0 50 -22zM169 117.5q19 -22.5 18 -55.5q-2 -32 -25 -55t-52 -23q-28 0 -47.5 21.5t-19.5 52.5q0 33 23 57.5t53 24.5q31 0 50 -22.5z" />
    <glyph glyph-name="quotedbl" unicode="&#x22;" horiz-adv-x="324" 
d="M144 491h-79l4 225h95zM287 491h-79l4 225h95z" />
    <glyph glyph-name="numbersign" unicode="#" horiz-adv-x="842" 
d="M663 527h167v-1l-25 -85h-166l-57 -200h167l-26 -86h-164l-48 -171h-104l49 171h-170l-48 -171h-104l50 171h-166l25 86h164l60 200h-168l26 86h166l54 189h98l-53 -189h173l55 189h97zM367 441l-58 -200h170l61 200h-173z" />
    <glyph glyph-name="dollar" unicode="$" horiz-adv-x="570" 
d="M355 706q47 -13 79 -38h1l-1 41h77l-12 -233h-66q-9 85 -45 128.5t-103 43.5q-42 0 -70 -25.5t-30 -64.5q-2 -31 10.5 -53t43.5 -41.5t90 -47.5q63 -29 104 -55t69.5 -66.5t28.5 -97.5q0 -84 -53 -140.5t-149 -69.5l-8 -141h-91l6 141q-68 12 -124 46h-1l2 -42h-77
l12 234h65q9 -83 52.5 -125.5t114.5 -42.5q54 0 85 29t31 74q0 30 -18.5 51.5t-45 35.5t-76.5 34q-95 40 -149 93.5t-54 137.5q0 46 19 91t65.5 77t125.5 36l7 121h93z" />
    <glyph glyph-name="percent" unicode="%" horiz-adv-x="885" 
d="M338.5 690.5q39.5 -25.5 59.5 -66.5t20 -87q0 -55 -26.5 -104t-71 -78.5t-97.5 -29.5q-57 0 -97.5 25t-61 67t-20.5 91q0 50 24.5 98t70.5 79t106 31q54 0 93.5 -25.5zM780 650l-613 -667l-62 61l605 672zM180.5 605q-16.5 -43 -16.5 -87q0 -48 14.5 -86.5t48.5 -38.5
q37 0 54 43t17 89q0 52 -14.5 87.5t-46.5 35.5q-40 0 -56.5 -43zM768.5 349.5q39.5 -25.5 59.5 -66.5t20 -87q0 -55 -25.5 -104t-71 -78.5t-100.5 -29.5q-56 0 -96 24.5t-60.5 65.5t-20.5 89q0 51 24 100t69.5 80.5t106.5 31.5q55 0 94.5 -25.5zM609.5 264
q-16.5 -43 -16.5 -87q0 -48 14.5 -86.5t48.5 -38.5q37 0 54.5 43.5t17.5 89.5q0 51 -14.5 86.5t-46.5 35.5q-41 0 -57.5 -43z" />
    <glyph glyph-name="ampersand" unicode="&#x26;" horiz-adv-x="685" 
d="M413 699.5q46 -16.5 71 -45.5t25 -65q0 -29 -18.5 -49.5t-47.5 -20.5q-28 0 -44.5 16t-18.5 44q0 10 3.5 24t9.5 21q-24 24 -71 24q-40 -1 -69.5 -33t-32.5 -85q-2 -46 26.5 -81.5t93.5 -35.5q6 0 13.5 0.5t20.5 0.5l-4 -70l-35 1q-73 1 -116.5 -42t-43.5 -113
q0 -64 40.5 -100.5t99.5 -36.5q90 0 136 50t57 127q-24 0 -55 -10.5t-63 -34.5l-34 36q29 43 53.5 64.5t53 29.5t73.5 8q38 0 67.5 9t60.5 39l38 -33q-28 -50 -55.5 -73.5t-77.5 -30.5q-6 -61 -35 -117.5t-90.5 -94.5t-156.5 -38q-117 0 -191 51t-74 150q0 72 51.5 126
t133.5 74v1q-61 12 -97 47.5t-36 84.5q0 61 31 106t84 68.5t117 23.5q61 0 107 -16.5z" />
    <glyph glyph-name="quotesingle" unicode="'" horiz-adv-x="188" 
d="M150 491h-84l3 225h102z" />
    <glyph glyph-name="parenleft" unicode="(" horiz-adv-x="296" 
d="M124.5 -150q-45.5 74 -75.5 167.5t-30 192.5q0 109 39 217t97.5 194.5t117.5 138.5l34 -35q-50 -63 -84 -156.5t-51 -183t-20 -146.5q-1 -10 -1 -34q0 -107 24.5 -233.5t81.5 -207.5l-38 -35q-49 47 -94.5 121z" />
    <glyph glyph-name="parenright" unicode=")" horiz-adv-x="296" 
d="M164.5 639q45.5 -74 75.5 -167.5t30 -192.5q0 -109 -39 -217t-97.5 -194.5t-117.5 -138.5l-34 35q50 63 84 156.5t51 183t20 146.5q1 10 1 34q0 107 -24.5 233.5t-81.5 207.5l38 35q49 -47 94.5 -121z" />
    <glyph glyph-name="asterisk" unicode="*" horiz-adv-x="512" 
d="M328 657q0 -53 -33 -139q67 46 115 63q23 7 40 7q35 0 44 -32q2 -10 2 -15q0 -37 -58 -55q-53 -15 -130 -15q64 -48 90 -86q20 -29 20 -51q0 -21 -22 -38q-14 -10 -29 -10q-27 0 -52 37q-28 44 -47 120q-34 -87 -60 -117q-30 -40 -58 -40q-14 0 -27 10q-19 15 -19 35
q0 21 23 52q36 44 102 88q-79 0 -128 15q-53 18 -53 53q0 11 4 20q12 31 44 31q17 0 42 -9q46 -16 109 -63q-19 67 -19 117q0 35 11 58t43 23q46 0 46 -59z" />
    <glyph glyph-name="plus" unicode="+" horiz-adv-x="506" 
d="M303 362l177 -1l-4 -88h-178l-9 -191h-96l10 190h-174l5 91l174 -1l9 181h96z" />
    <glyph glyph-name="comma" unicode="," horiz-adv-x="249" 
d="M168 110.5q21 -26.5 21 -69.5q0 -51 -26 -109.5t-77 -118.5l-37 28q21 26 42.5 72.5t22.5 85.5q-10 -3 -21 -3q-28 0 -47 15.5t-19 46.5q0 33 22.5 56t55.5 23q42 0 63 -26.5z" />
    <glyph glyph-name="hyphen" unicode="-" horiz-adv-x="473" 
d="M418 265l-368 -4l6 105h368z" />
    <glyph glyph-name="period" unicode="." horiz-adv-x="233" 
d="M154 118.5q19 -21.5 19 -52.5q0 -34 -21 -58t-54 -24q-32 0 -51 21t-19 53q0 33 23.5 57.5t53.5 24.5t49 -21.5z" />
    <glyph glyph-name="slash" unicode="/" horiz-adv-x="665" 
d="M677 697l-626 -968l-71 51l612 975z" />
    <glyph glyph-name="zero" unicode="0" horiz-adv-x="625" 
d="M482.5 667.5q56.5 -48.5 82.5 -124.5t26 -161q0 -20 -1 -30q-4 -88 -40 -173t-101 -140t-153 -55q-90 0 -147.5 47.5t-83 122.5t-25.5 162q0 21 1 31q5 88 41.5 173.5t102.5 140.5t154 55q87 0 143.5 -48.5zM232 570q-34 -78 -41 -202q-2 -44 -2 -68q0 -248 117 -248
q121 0 134 279q2 27 2 80q0 109 -24.5 173t-84.5 64q-67 0 -101 -78z" />
    <glyph glyph-name="one" unicode="1" horiz-adv-x="397" 
d="M284 164q-3 -57 -9 -90q32 3 75 3l-4 -77h-284l3 66q27 1 41.5 6.5t23.5 23.5t11 57l21 401l-113 -65l-32 60l235 167h61z" />
    <glyph glyph-name="two" unicode="2" horiz-adv-x="522" 
d="M427 673q63 -43 63 -134q0 -39 -18.5 -77t-69.5 -91t-148 -129q-52 -41 -82 -78.5t-37 -60.5l196 -5q37 -2 57 12t22 53h63l-16 -163h-438q3 65 27 115t56.5 85t86.5 83q80 70 114.5 128t34.5 116q0 51 -21 84.5t-69 33.5q-26 0 -49 -12t-35 -30q8 -10 12.5 -24t4.5 -26
q0 -24 -18 -45t-53 -21q-29 0 -45 19.5t-16 48.5q0 32 27.5 70t79 64.5t119.5 26.5q89 0 152 -43z" />
    <glyph glyph-name="three" unicode="3" horiz-adv-x="546" 
d="M435.5 673.5q57.5 -42.5 52.5 -134.5q-2 -29 -18.5 -61t-51 -58.5t-86.5 -37.5v-1q87 -16 130.5 -63.5t43.5 -112.5q0 -105 -76.5 -163t-200.5 -58q-69 0 -116 20.5t-69.5 52.5t-22.5 68q0 33 20.5 57.5t52.5 24.5t46.5 -20t13.5 -44q-1 -11 -5.5 -23.5t-12.5 -22.5
q9 -18 34 -29t54 -11q63 0 98 40.5t35 103.5q0 57 -33 96t-107 38q-16 0 -52 -3l3 72q11 -1 30 -1q65 0 103.5 34t42.5 91l1 18q0 47 -21.5 73.5t-66.5 26.5q-26 0 -48.5 -12.5t-32.5 -29.5q8 -10 11 -24t2 -25q-1 -22 -18 -43t-49 -21q-30 0 -46.5 18.5t-16.5 48.5
q0 32 25.5 69.5t75 63t117.5 25.5q101 0 158.5 -42.5z" />
    <glyph glyph-name="four" unicode="4" horiz-adv-x="533" 
d="M405 271h98l-5 -90h-98v-17q-4 -68 -9 -90q33 3 75 3l-4 -77h-282l3 66q27 1 41.5 6.5t23.5 23.5t11 57l1 28h-260l5 94l363 441h61zM277 494l-180 -220l168 -1l13 221h-1z" />
    <glyph glyph-name="five" unicode="5" horiz-adv-x="529" 
d="M468 603l-314 -6l-9 -178q24 10 59 17t64 7q79 0 132 -30.5t77.5 -81.5t21.5 -113q-4 -74 -43 -127t-99.5 -80t-127.5 -27q-61 0 -106.5 19.5t-69.5 50t-24 63.5q0 32 21.5 56t53.5 24t46 -20t13 -44q-2 -24 -14 -41q6 -16 29.5 -26.5t46.5 -10.5q56 0 86.5 42t33.5 100
q1 8 1 27q0 60 -24 103t-90 43q-24 0 -56.5 -9t-65.5 -28l-41 33l14 334h259q38 0 57.5 13t21.5 52h63z" />
    <glyph glyph-name="six" unicode="6" horiz-adv-x="560" 
d="M431 697q40 -19 59 -48.5t19 -61.5q0 -30 -18 -53t-49 -23q-34 0 -49 19t-14 44q3 28 17 44q-7 12 -23.5 20t-37.5 8q-68 0 -104 -77.5t-43 -178.5q18 21 60.5 38.5t79.5 17.5q101 0 148 -62.5t41 -168.5q-3 -63 -37.5 -116t-91.5 -84t-126 -31q-118 0 -170 73t-52 212
q0 17 2 53q3 75 31 166t92.5 159.5t167.5 68.5q58 0 98 -19zM227 347q-28 -19 -44 -47q-1 -10 -1 -33q0 -84 21 -148.5t68 -64.5q48 0 70.5 38t25.5 98l1 31q0 59 -17.5 102t-64.5 43q-31 0 -59 -19z" />
    <glyph glyph-name="seven" unicode="7" horiz-adv-x="460" 
d="M462 609q-60 -112 -97 -213.5t-89 -274.5l-18 -61q-23 -76 -75 -76q-29 0 -42.5 16t-13.5 39q0 22 13.5 57.5t66 146.5t136.5 284l35 72l-211 2q-36 1 -56.5 -15t-22.5 -56h-63l17 170h425z" />
    <glyph glyph-name="eight" unicode="8" horiz-adv-x="562" 
d="M408.5 697q45.5 -19 73 -56t27.5 -87t-38.5 -96.5t-89.5 -75.5v-1q138 -88 138 -200q0 -65 -35.5 -109.5t-94.5 -66t-128 -21.5q-51 0 -101 16t-83 53t-33 95q0 57 42 110.5t100 85.5v1q-60 39 -87 87t-25 93q3 62 39.5 105t89.5 64.5t108 21.5q52 0 97.5 -19zM243 617.5
q-28 -28.5 -28 -69.5q0 -37 30 -73t73 -53q32 23 55.5 57.5t26.5 62.5q4 48 -20.5 76t-64.5 28q-44 0 -72 -28.5zM192 240q-22 -40 -25 -72q-1 -5 -1 -13q0 -44 29 -72.5t73 -28.5q48 0 77 29.5t29 72.5q0 91 -122 153q-38 -29 -60 -69z" />
    <glyph glyph-name="nine" unicode="9" horiz-adv-x="561" 
d="M472.5 637q53.5 -79 53.5 -217q0 -28 -1 -42q-7 -153 -72 -273.5t-220 -120.5q-89 0 -132 35t-43 88q0 31 19 56.5t50 25.5q34 0 48 -19t13 -44q-1 -10 -5.5 -23t-11.5 -20q7 -12 23.5 -20t37.5 -8q71 0 109 75t39 181q-19 -21 -60 -39t-77 -18q-97 0 -145.5 58
t-48.5 154q0 72 31.5 129t89 89t131.5 32q118 0 171.5 -79zM228 606q-25 -40 -27 -96q-1 -9 -1 -32q0 -59 18 -101.5t65 -42.5q30 0 58 19t43 47q2 38 2 55q0 87 -21 139t-69 52q-43 0 -68 -40z" />
    <glyph glyph-name="colon" unicode=":" horiz-adv-x="262" 
d="M181 118.5q19 -21.5 19 -52.5q0 -34 -21 -58t-54 -24q-32 0 -51 21t-19 53q0 33 23.5 57.5t53.5 24.5t49 -21.5zM181 521.5q19 -21.5 19 -52.5q0 -34 -21 -58t-54 -24q-32 0 -51 21t-19 53q0 33 23.5 57.5t53.5 24.5t49 -21.5z" />
    <glyph glyph-name="semicolon" unicode=";" horiz-adv-x="270" 
d="M188 110.5q21 -26.5 21 -69.5q0 -51 -26 -109.5t-77 -118.5l-37 28q21 26 42.5 72.5t22.5 85.5q-10 -3 -21 -3q-28 0 -47 15.5t-19 46.5q0 33 22.5 56t55.5 23q42 0 63 -26.5zM187 521.5q19 -21.5 19 -52.5q0 -34 -21 -58t-54 -24q-32 0 -51 21t-19 53q0 33 23.5 57.5
t53.5 24.5t49 -21.5z" />
    <glyph glyph-name="less" unicode="&#x3c;" horiz-adv-x="534" 
d="M487 455l-327 -140v-1l313 -139l-6 -104l-440 196l5 91l461 200z" />
    <glyph glyph-name="equal" unicode="=" horiz-adv-x="571" 
d="M518 451l-4 -91l-451 -1l5 93zM508 262l-4 -90l-451 -2l6 94z" />
    <glyph glyph-name="greater" unicode="&#x3e;" horiz-adv-x="533" 
d="M49 174l327 140v1l-313 139l6 104l440 -196l-5 -91l-461 -200z" />
    <glyph glyph-name="question" unicode="?" horiz-adv-x="485" 
d="M417 673.5q49 -42.5 49 -107.5q0 -41 -21 -77t-49.5 -62t-74.5 -62q-41 -31 -59.5 -49.5t-18.5 -36.5q0 -13 9.5 -21t29.5 -8q14 0 30 4l13 -51q-23 -12 -50.5 -17t-49.5 -5q-35 0 -59 16t-24 48q0 27 16.5 51.5t71.5 76.5q46 43 68.5 81t22.5 95q0 97 -82 97
q-23 0 -45 -10t-33 -22q8 -8 12 -21.5t4 -25.5q0 -24 -18 -47t-50 -23q-31 0 -47.5 18.5t-16.5 47.5q0 36 29 71.5t79 58.5t109 23q106 0 155 -42.5zM283 118.5q19 -21.5 19 -52.5q0 -33 -23.5 -57.5t-53.5 -24.5q-28 0 -48 21.5t-20 52.5q0 33 23.5 57.5t53.5 24.5
t49 -21.5z" />
    <glyph glyph-name="at" unicode="@" horiz-adv-x="767" 
d="M591.5 594.5q70.5 -42.5 106 -112.5t35.5 -150q0 -84 -32 -143t-80 -88.5t-95 -29.5q-95 0 -95 97q0 20 2 32q-29 -64 -64.5 -94t-70.5 -30q-43 0 -70 32t-27 96q0 70 29 134.5t84 105.5t129 41q50 0 116 -21q-22 -114 -35 -189t-13 -103q0 -24 8 -38.5t29 -14.5
q37 0 62 31.5t38 76.5t15 85q4 88 -27 152t-89 97t-132 33q-86 0 -156.5 -50.5t-111 -132t-40.5 -172.5t38.5 -156t104 -99t146.5 -34q64 0 131 27t116 78l21 -27q-60 -63 -136 -95t-159 -32q-109 0 -185.5 45t-115 120.5t-38.5 166.5l1 23q5 89 54 177.5t136 146t201 57.5
q99 0 169.5 -42.5zM356.5 396q-27.5 -36 -43 -88t-15.5 -100q0 -30 8.5 -46.5t22.5 -16.5q24 0 51.5 47t48 115t26.5 125q-13 5 -37 3q-34 -3 -61.5 -39z" />
    <glyph glyph-name="A" unicode="A" horiz-adv-x="667" 
d="M569 173q21 -70 23 -99q32 3 57 3l-3 -77h-268l4 66q51 0 51 43q0 14 -9 45l-17 55l-219 -4l-19 -47q-22 -55 -36 -81q33 3 74 3l-5 -80h-214l4 69q26 0 43.5 15t29 36t29.5 63l223 535h67zM314 542q-8 -39 -46 -132l-51 -130h168l-39 125q-26 88 -31 137h-1z" />
    <glyph glyph-name="B" unicode="B" horiz-adv-x="659" 
d="M526 662q65 -41 65 -120q0 -14 -1 -22q-6 -47 -43 -85t-105 -56v-1q94 -15 139.5 -64t42.5 -115q-5 -95 -74 -147t-177 -52h-338l4 66q26 1 40.5 6.5t23.5 23.5t11 57l20 383q3 57 9 90l-75 -3l4 77l275 2q114 1 179 -40zM309 627q-13 -5 -21.5 -23.5t-10.5 -55.5
l-8 -155l52 1q63 1 91 41t28 103q0 49 -28 71.5t-69 22.5q-21 0 -34 -5zM265 322l-8 -163q-3 -54 -9 -88q66 0 98 1q61 3 92 40.5t31 99.5q0 58 -35 84.5t-88 26.5q-55 0 -81 -1z" />
    <glyph glyph-name="C" unicode="C" horiz-adv-x="690" 
d="M493.5 703q45.5 -13 83.5 -36h1l-1 42h77l-12 -233h-66q-9 84 -49.5 128t-110.5 44q-71 0 -121.5 -46t-76 -118.5t-25.5 -152.5q0 -121 53 -196t148 -75q63 0 126.5 31t111.5 93l39 -40q-70 -91 -150.5 -125.5t-158.5 -34.5q-97 0 -171 44t-114 120t-40 170
q0 98 43.5 190t128 150t199.5 58q40 0 85.5 -13z" />
    <glyph glyph-name="D" unicode="D" horiz-adv-x="755" 
d="M563.5 655q81.5 -46 120.5 -121t39 -160q0 -89 -43 -175t-134 -142.5t-227 -56.5h-284l4 66q26 1 40.5 6.5t23.5 23.5t11 57l20 383q3 57 9 90l-75 -3l4 77l289 1q121 0 202.5 -46zM295.5 617q-15.5 -17 -18.5 -68l-20 -385q-4 -65 -8 -90q5 1 19 1l43 -1q13 -1 33 -1
q70 0 119 37t74.5 96.5t28.5 129.5q1 12 1 34q0 135 -58 199.5t-164 64.5q-34 0 -49.5 -17z" />
    <glyph glyph-name="E" unicode="E" horiz-adv-x="623" 
d="M565 506h-65q3 74 -31 102.5t-84 26.5l-36 -1q-24 -1 -38.5 -6.5t-23 -24.5t-10.5 -56l-7 -150h117v87h77l-12 -243h-66q2 40 -9.5 59t-31.5 24.5t-53 4.5l-26 -1l-9 -164q-3 -62 -8 -88h134q51 0 88 34.5t41 109.5h66l-17 -220h-526l4 66q26 1 40.5 6.5t23.5 23.5t11 57
l20 383q3 57 9 90l-75 -3l4 77h498z" />
    <glyph glyph-name="F" unicode="F" horiz-adv-x="566" 
d="M565 506h-65q3 74 -31 102.5t-84 26.5l-36 -1q-24 -1 -38.5 -6.5t-23 -24.5t-10.5 -56l-9 -174h104q-1 20 -0.5 35.5t0.5 25.5v25h77l-13 -243h-66q2 40 -9.5 59.5t-31.5 24.5t-52 4h-12l-8 -140q-4 -65 -8 -90q31 3 88 3l-4 -77h-298l4 66q26 1 40.5 6.5t23.5 23.5
t11 57l20 383q3 57 9 90l-75 -3l4 77h498z" />
    <glyph glyph-name="G" unicode="G" horiz-adv-x="756" 
d="M503 703q54 -13 90 -36h1l-1 42h77l-12 -233h-66q-9 81 -56.5 124t-119.5 44q-71 0 -121.5 -45t-76 -117t-25.5 -152q0 -121 51.5 -194t145.5 -73q32 0 75.5 7.5t69.5 19.5l5 93q4 65 8 90q-26 -2 -49 -2l-26 -1l4 77h263l-3 -66q-25 -1 -39 -7t-22 -24.5t-10 -55.5
l-8 -160h-25q-23 0 -45 -5t-60 -16q-51 -14 -86.5 -21.5t-80.5 -7.5q-101 0 -174 43t-111 118t-38 169q0 99 42.5 191.5t126 151.5t199.5 59q43 0 97 -13z" />
    <glyph glyph-name="H" unicode="H" horiz-adv-x="802" 
d="M771 634q-27 -1 -41.5 -6.5t-23.5 -23.5t-11 -57l-20 -383q-3 -57 -9 -90q33 3 75 3l-4 -77h-284l3 66q27 1 41.5 6.5t23.5 23.5t11 57l9 162l-276 -3l-8 -148q-4 -65 -8 -90q31 3 75 3l-4 -77h-285l4 66q26 1 40.5 6.5t23.5 23.5t11 57l20 383q3 57 9 90l-75 -3l4 77
h284l-3 -66q-27 -1 -41.5 -6.5t-23.5 -23.5t-11 -57l-8 -156h275l8 145q4 68 9 90l-76 -3l4 77h285z" />
    <glyph glyph-name="I" unicode="I" horiz-adv-x="384" 
d="M353 634q-27 -1 -41.5 -6.5t-23.5 -23.5t-11 -57l-20 -383q-4 -65 -8 -90q31 3 75 3l-4 -77h-285l4 66q26 1 40.5 6.5t23.5 23.5t11 57l20 383q3 57 9 90l-75 -3l4 77h284z" />
    <glyph glyph-name="J" unicode="J" horiz-adv-x="445" 
d="M437 634q-27 -1 -41.5 -6.5t-23.5 -23.5t-11 -57l-15 -293q-8 -141 -63 -205.5t-158 -64.5q-58 0 -97 28.5t-39 72.5q0 37 21 63t58 26q31 0 46.5 -18.5t15.5 -46.5q0 -17 -10 -37q3 -9 12 -12.5t17 -3.5q22 0 34 19t14 60l21 401q3 57 9 90l-80 -3l4 77h289z" />
    <glyph glyph-name="K" unicode="K" horiz-adv-x="711" 
d="M681 634q-43 -2 -81.5 -22t-78.5 -80l-104 -154v-1q37 -24 59 -58l94 -145q32 -49 63.5 -78t62.5 -30l-4 -66h-152q-12 1 -42 35t-51 67l-91 144q-38 56 -55 69h-36l-8 -151q-4 -65 -8 -90q31 3 75 3l-4 -77h-285l4 66q26 1 40.5 6.5t23.5 23.5t11 57l20 383q3 57 9 90
l-75 -3l4 77h284l-3 -66q-27 -1 -41.5 -6.5t-23.5 -23.5t-11 -57l-8 -152h73l83 131q27 41 44.5 66t29.5 34v1q-22 -2 -38 -2.5t-25 -1.5l3 77h245z" />
    <glyph glyph-name="L" unicode="L" horiz-adv-x="606" 
d="M353 634q-27 -1 -41.5 -6.5t-23.5 -23.5t-11 -57l-20 -383q-3 -62 -8 -88h134q60 1 95.5 42.5t39.5 121.5h66l-18 -240h-531l4 66q26 1 40.5 6.5t23.5 23.5t11 57l20 383q3 57 9 90l-75 -3l4 77h284z" />
    <glyph glyph-name="M" unicode="M" horiz-adv-x="970" 
d="M932 634q-27 -1 -42 -6.5t-24.5 -23.5t-9.5 -57l-5 -383q0 -52 -9 -90q33 3 76 3l-4 -77h-280l4 66q27 1 42 6.5t24 23.5t9 57l3 212q1 24 1 177h-1l-229 -552h-90l-122 329q-13 33 -31 97t-28 119h-1l-1 -43q-5 -133 -6 -147l-11 -181q-3 -57 -9 -90q33 3 76 3l-4 -77
h-228l4 66q27 1 41 6.5t22.5 23.5t11.5 57l26 383q6 74 9 90l-76 -3l5 77h214l137 -388q17 -51 36 -118l12 -44h1l27 66q9 24 16 41.5t12 29.5l173 413h233z" />
    <glyph glyph-name="N" unicode="N" horiz-adv-x="772" 
d="M757 634q-27 -1 -41.5 -6.5t-23.5 -23.5t-11 -57l-30 -557h-85l-298 411q-28 39 -51 75h-1l-14 -312q-3 -57 -9 -90q33 3 76 3l-5 -77h-228l4 66q27 1 41.5 6.5t23.5 23.5t11 57l17 383q3 57 9 90l-76 -3l5 77h157l285 -387q25 -35 65 -96h1l16 319q3 57 9 90l-76 -3
l5 77h227z" />
    <glyph glyph-name="O" unicode="O" horiz-adv-x="762" 
d="M589 665.5q73 -50.5 107 -129t34 -165.5q0 -90 -42 -179.5t-124.5 -148.5t-198.5 -59q-114 0 -187 48t-106 124.5t-33 165.5q0 19 1 28q4 89 47.5 173t125 138.5t193.5 54.5q110 0 183 -50.5zM278 599q-45 -49 -65 -121t-20 -143q0 -68 18.5 -132.5t60 -107.5t106.5 -43
t108.5 42t65 106.5t24.5 132.5q1 12 1 36q0 128 -46 203.5t-137 75.5q-71 0 -116 -49z" />
    <glyph glyph-name="P" unicode="P" horiz-adv-x="632" 
d="M555.5 653q72.5 -50 72.5 -153q0 -17 -1 -25q-5 -56 -39 -105.5t-98.5 -81.5t-155.5 -35l-39 -1l-33 1l-5 -88q-4 -66 -8 -91q31 3 84 3l-3 -77h-295l4 66q26 1 40.5 6.5t23.5 23.5t11 57l20 383q3 57 9 90l-75 -3l4 77l282 2q129 1 201.5 -49zM297 617q-17 -15 -20 -64
l-11 -225q21 -3 45 -3q81 0 120.5 40t44.5 119q7 148 -127 148q-35 0 -52 -15z" />
    <glyph glyph-name="Q" unicode="Q" horiz-adv-x="764" 
d="M590.5 666q73.5 -50 108 -128.5t34.5 -165.5q0 -71 -27.5 -144.5t-82 -133t-132.5 -88.5v-1q46 0 75 -10.5t64 -45.5l40 -39q42 -41 57 -51t40 -10l-4 -67h-41q-50 0 -75.5 3.5t-46 14.5t-48.5 36q-17 15 -35 34.5t-25 27.5q-41 46 -69 66t-68 20q-111 0 -182 48.5
t-103 125.5t-32 166l1 26q5 89 48.5 173t125.5 138.5t194 54.5q110 0 183.5 -50zM279 596q-45 -47 -65.5 -117t-20.5 -141q0 -69 18 -132.5t59.5 -106t107.5 -42.5q65 0 108.5 41t65 104t24.5 131q1 14 1 40q0 125 -45.5 197.5t-136.5 72.5q-71 0 -116 -47z" />
    <glyph glyph-name="R" unicode="R" horiz-adv-x="681" 
d="M555.5 658q70.5 -45 70.5 -146q0 -16 -1 -25q-5 -66 -52 -117.5t-133 -75.5v-1q17 -7 35 -24.5t31 -38.5l43 -70q32 -54 53.5 -73.5t53.5 -20.5l-4 -66h-162q-28 21 -69 94l-67 120q-20 36 -39 58h-52l-6 -107q-4 -66 -8 -91q31 3 84 3l-3 -77h-295l4 66q26 1 40.5 6.5
t23.5 23.5t11 57l20 383q3 57 9 90l-75 -3l4 77l282 2q131 1 201.5 -44zM297 617q-17 -15 -20 -64l-10 -205q30 -4 48 -4q86 0 124.5 40t38.5 124q0 76 -40 100t-89 24q-35 0 -52 -15z" />
    <glyph glyph-name="S" unicode="S" horiz-adv-x="600" 
d="M389 703.5q46 -12.5 76 -35.5h1l-1 41h77l-12 -233h-66q-9 82 -51 125t-111 43q-46 0 -80 -26t-34 -65q0 -42 35.5 -72t118.5 -64q64 -27 110.5 -55t78 -72t28.5 -104q-3 -59 -37.5 -105t-94.5 -71.5t-136 -25.5q-40 0 -86.5 13t-83.5 36h-1l1 -42h-77l12 234h66
q9 -82 56.5 -125.5t119.5 -43.5q54 0 89.5 29t35.5 70q0 31 -21.5 53t-50 36t-81.5 36q-104 42 -159 94.5t-55 136.5q0 48 23.5 94.5t78.5 78.5t142 32q43 0 89 -12.5z" />
    <glyph glyph-name="T" unicode="T" horiz-adv-x="648" 
d="M644 474h-66q4 79 -26.5 119.5t-88.5 39.5h-48l-24 -469q-3 -57 -9 -90q32 3 80 3l-4 -77h-290l4 66q27 1 41.5 6.5t23.5 23.5t11 57l25 479h-46q-59 -1 -93.5 -40t-38.5 -118h-66l17 226h604z" />
    <glyph glyph-name="U" unicode="U" horiz-adv-x="755" 
d="M752 634q-26 -1 -40.5 -6.5t-23.5 -23.5t-11 -57l-13 -250q-9 -164 -88.5 -238.5t-208.5 -74.5q-147 0 -209 74t-62 202q0 22 1 34l13 242q4 68 9 90l-76 -3l4 77h286l-4 -66q-27 -1 -41.5 -6.5t-23.5 -23.5t-11 -57l-14 -275l-1 -26q0 -186 158 -186q80 0 125.5 53.5
t51.5 160.5l14 262q4 68 9 90l-75 -3l3 77h232z" />
    <glyph glyph-name="V" unicode="V" horiz-adv-x="702" 
d="M722 634q-35 -2 -61 -26t-50 -81l-228 -533h-78l-203 537q-24 67 -23 95l-54 -3l4 77h291l-3 -66q-68 2 -68 -45q0 -14 6 -32l80 -226q13 -37 25 -74l24 -70h1q10 22 32 78l24 61l87 209q2 4 15.5 38t29.5 53l1 1l-52 -3l-25 -1l3 77h226z" />
    <glyph glyph-name="W" unicode="W" horiz-adv-x="1010" 
d="M1030 634q-36 -2 -63 -26.5t-49 -80.5l-191 -533h-87l-100 358q-10 34 -17 73.5t-12 74.5h-1q-17 -77 -36 -131l-134 -375h-84l-151 539q-24 67 -23 93l-53 -3l4 77h292l-4 -66q-33 1 -49.5 -9.5t-16.5 -37.5q0 -11 3 -28l49 -228q3 -19 7 -33q13 -65 19 -109h1
q13 44 33.5 105t33.5 100l109 306h90l94 -368q12 -46 28 -144h1l46 138l66 209q23 67 46 91v1l-52 -3l-25 -1l4 77h225z" />
    <glyph glyph-name="X" unicode="X" horiz-adv-x="700" 
d="M668 634q-34 -4 -69 -31t-78 -82l-103 -131l176 -240q15 -20 29 -40.5t21 -35.5q33 3 39 3l-4 -77h-297l4 66q57 0 57 25q0 15 -21 43l-94 129h-1l-94 -121q-38 -49 -59 -68v-1q44 4 72 4l-4 -77h-221l4 66q29 7 59.5 32.5t69.5 74.5l125 155l-151 204q-39 52 -55 94
q6 0 -40 -3l4 77h302l-4 -66q-63 0 -63 -30q0 -16 17 -38l82 -113h1l81 105q34 43 62 68v1l-51 -3l-24 -1l4 77h228z" />
    <glyph glyph-name="Y" unicode="Y" horiz-adv-x="665" 
d="M681 634q-35 -5 -61 -28.5t-58 -78.5l-144 -250l-5 -113q-3 -57 -9 -90q32 3 80 3l-4 -77h-290l4 66q27 1 41.5 6.5t23.5 23.5t11 57l4 87l-169 291q-14 24 -24 51.5t-9 43.5l-49 -3l4 77h292l-3 -66q-34 2 -54 -8.5t-20 -32.5q0 -14 11 -36l70 -125q2 -5 20 -39t25 -58
h2q13 27 20 38l31 60l58 102q11 20 28 48.5t29 42.5v1l-52 -3l-25 -1l4 77h221z" />
    <glyph glyph-name="Z" unicode="Z" horiz-adv-x="603" 
d="M576 625l-311 -436q-52 -73 -92 -118l-1 -1l183 -4q59 -1 94.5 34.5t39.5 113.5h66l-17 -214h-513l4 75l324 456q41 60 74 98l1 1l-172 5q-59 2 -94.5 -34t-39.5 -114h-66l17 213h507z" />
    <glyph glyph-name="bracketleft" unicode="[" horiz-adv-x="388" 
d="M402 684l-193 -3l-49 -862l199 -3l-4 -71h-323l54 1010h320z" />
    <glyph glyph-name="backslash" unicode="\" horiz-adv-x="792" 
d="M740 -220l-71 -51l-625 968l84 58z" />
    <glyph glyph-name="bracketright" unicode="]" horiz-adv-x="388" 
d="M-21 -184l193 3l49 862l-199 3l4 71h323l-54 -1010h-320z" />
    <glyph glyph-name="asciicircum" unicode="^" horiz-adv-x="828" 
d="M757 437h-134l-220 209h-1l-220 -205h-128l308 275h89z" />
    <glyph glyph-name="underscore" unicode="_" horiz-adv-x="835" 
d="M696 -54v-97h-614v101z" />
    <glyph glyph-name="grave" unicode="`" horiz-adv-x="277" 
d="M70 672q-11 12 -18 27t-7 29q0 24 19 42q18 12 35 12q16 0 30.5 -9.5t24.5 -26.5l78 -140l-48 -41z" />
    <glyph glyph-name="a" unicode="a" horiz-adv-x="549" 
d="M471 490l-8 -53q-2 -18 -20 -146t-18 -180q0 -29 14 -29q29 0 51 79l54 -16q-11 -57 -45.5 -106.5t-93.5 -49.5q-80 0 -80 91q0 35 4 58h-1q-34 -82 -77 -115.5t-93 -33.5q-58 0 -95.5 46.5t-37.5 135.5q0 93 36 170.5t104.5 123.5t161.5 46q55 0 144 -21zM197 372.5
q-35 -72.5 -35 -206.5q0 -41 10 -64.5t28 -23.5q34 0 62.5 56.5t46.5 140.5t22 164q-21 6 -41 6q-58 0 -93 -72.5z" />
    <glyph glyph-name="b" unicode="b" horiz-adv-x="513" 
d="M208 591l-4 -40l-4 -38q-7 -76 -14 -120h1q31 60 71.5 89t76.5 29q71 0 107 -54.5t36 -136.5q0 -147 -66 -239t-205 -92q-31 0 -78 7t-82 20q6 171 15 316.5t11 180.5l3 47q2 50 8 92l-69 -3l4 76q62 0 100 9t52 21h54q-9 -66 -17 -164zM235.5 370
q-27.5 -49 -44.5 -130.5t-19 -175.5q8 -4 23.5 -6.5t25.5 -2.5q72 0 96 82.5t24 187.5q0 50 -13 72t-33 22q-32 0 -59.5 -49z" />
    <glyph glyph-name="c" unicode="c" horiz-adv-x="467" 
d="M389 478q46 -33 46 -87q0 -31 -18 -50t-48 -19t-45 19t-15 40q0 23 10 42q-5 9 -18 15.5t-30 6.5q-59 0 -83 -71.5t-24 -153.5q0 -73 27.5 -106t64.5 -33q34 0 68 23t60 81l57 -28q-40 -92 -94.5 -129.5t-123.5 -38.5q-91 1 -143.5 55.5t-52.5 162.5q0 69 28 139.5
t84 117.5t134 47q70 0 116 -33z" />
    <glyph glyph-name="d" unicode="d" horiz-adv-x="564" 
d="M473 435l-13 -117q-20 -162 -20 -207q0 -29 15 -29q26 0 48 79l55 -16q-12 -59 -45 -107.5t-91 -48.5q-80 0 -80 91q0 29 4 60h-1q-33 -81 -78 -116t-91 -35q-73 0 -110.5 53t-37.5 138q0 150 69.5 240.5t207.5 90.5q28 0 48 -2l5 50q5 59 11 93l-70 -3l4 76q63 0 101 9
t52 21h54zM191 360q-27 -85 -27 -179q0 -50 13 -75.5t36 -25.5q51 0 85 100t47 257q-6 3 -23 5.5t-30 2.5q-74 0 -101 -85z" />
    <glyph glyph-name="e" unicode="e" horiz-adv-x="470" 
d="M389.5 480q40.5 -31 40.5 -95q0 -73 -76 -110t-190 -53q0 -78 26 -109.5t64 -31.5q34 0 70 20.5t60 75.5l56 -27q-40 -92 -94 -126.5t-122 -34.5q-93 0 -145 55t-52 163q0 70 28 140t85 117t140 47q69 0 109.5 -31zM198.5 399q-24.5 -46 -31.5 -112q76 14 111 42.5
t35 67.5q0 24 -13.5 36t-30.5 12q-46 0 -70.5 -46z" />
    <glyph glyph-name="f" unicode="f" horiz-adv-x="353" 
d="M398 739.5q25 -20.5 25 -53.5q0 -21 -15.5 -41t-44.5 -20q-21 0 -36.5 15t-15.5 38l1 9q-4 2 -13 2q-30 0 -42 -51.5t-20 -137.5h129l-7 -69l-126 -2q-6 -99 -16.5 -230.5t-19.5 -209.5q-30 -260 -217 -260q-45 0 -70 19.5t-25 52.5q0 22 15.5 42.5t44.5 20.5
q21 0 36.5 -15t15.5 -38l-1 -9q6 -2 13 -2q30 0 42 51.5t20 137.5q8 87 19 255l14 184l-80 -1l9 73h80q29 260 216 260q44 0 69 -20.5z" />
    <glyph glyph-name="g" unicode="g" horiz-adv-x="520" 
d="M387.5 505.5q42.5 -5.5 82.5 -15.5q-5 -94 -14.5 -231.5t-17.5 -218.5q-14 -151 -73.5 -231t-182.5 -80q-76 0 -119.5 27t-43.5 76q0 26 17.5 49.5t49.5 23.5q27 0 45 -17.5t18 -45.5q0 -17 -6 -30q4 -7 19.5 -12t28.5 -5q55 0 78 43t33 129q13 99 34 171h-1
q-35 -82 -77.5 -115.5t-92.5 -33.5q-59 0 -98.5 47t-39.5 135q0 96 31 173t96 122t163 45q28 0 70.5 -5.5zM194.5 373.5q-31.5 -70.5 -31.5 -207.5q0 -40 12 -64t31 -24q34 0 63 56.5t47.5 141t22.5 163.5q-6 2 -20 4t-26 2q-67 -1 -98.5 -71.5z" />
    <glyph glyph-name="h" unicode="h" horiz-adv-x="574" 
d="M228 700q-10 -88 -18 -149q-3 -29 -10.5 -87t-17.5 -104h1q32 83 76.5 117t94.5 34q62 0 92 -40.5t30 -113.5q0 -36 -12 -124q-13 -82 -13 -125q0 -26 15 -26q26 0 48 79l54 -16q-6 -33 -25.5 -69t-51.5 -61.5t-74 -25.5q-53 0 -74 28t-21 85q0 45 14 153q2 17 6.5 58.5
t4.5 63.5q0 23 -6.5 32.5t-21.5 9.5q-29 0 -62 -57t-55.5 -139.5t-22.5 -150.5q0 -24 3 -72h-128q-3 28 -3 48q0 115 9.5 263t21.5 248q5 57 13 93l-70 -3l4 76q63 0 101 9t51 21h54z" />
    <glyph glyph-name="i" unicode="i" horiz-adv-x="344" 
d="M243 740.5q20 -22.5 20 -56.5q0 -36 -22.5 -60.5t-55.5 -24.5t-53.5 22t-20.5 55q0 35 24.5 61t55.5 26q32 0 52 -22.5zM227.5 481q21.5 -30 21.5 -86q0 -30 -8 -90.5t-10 -77.5q-2 -13 -8 -57.5t-6 -61.5q0 -26 15 -26q27 0 49 79l54 -16q-6 -33 -26 -69t-52 -61.5
t-74 -25.5q-53 0 -74.5 28t-21.5 85q0 45 18 159q15 98 15 131q0 26 -16 26q-26 0 -48 -79l-54 16q6 32 26.5 68.5t53 62t74.5 25.5q50 0 71.5 -30z" />
    <glyph glyph-name="j" unicode="j" horiz-adv-x="313" 
d="M248 740.5q20 -22.5 20 -56.5q0 -36 -22.5 -60.5t-56.5 -24.5q-32 0 -52.5 22t-20.5 55q0 35 24.5 61t55.5 26q32 0 52 -22.5zM254 395q2 -115 -11 -261q-16 -174 -70 -289.5t-183 -115.5q-45 0 -71.5 20.5t-26.5 53.5q0 22 15 42.5t45 20.5q21 0 37 -15.5t16 -39.5
q0 -9 -1 -14q4 -2 15 -2q68 1 96 350q10 147 10 247q0 26 -15 26q-26 0 -48 -79l-55 16q7 33 26 69t50.5 61.5t73.5 25.5q95 0 97 -116z" />
    <glyph glyph-name="k" unicode="k" horiz-adv-x="518" 
d="M233 697q-15 -104 -23 -176q-5 -51 -20 -130h1q31 62 74 91t86 29q54 0 81 -28t27 -78q0 -34 -19 -70.5t-61.5 -67.5t-109.5 -45v-1q38 -1 57 -18.5t30 -44.5q17 -39 26.5 -54.5t21.5 -15.5q23 0 43 69l54 -17q-13 -61 -47.5 -106t-83.5 -45q-45 0 -72.5 28t-54.5 101
q-17 48 -27 66t-28 14q-6 -27 -9 -64.5t-3 -66.5q0 -40 3 -67h-130q-3 28 -3 49q0 47 11 205.5t30 304.5q5 46 15 93l-72 -3l4 76q63 0 101 9t52 21h54zM271.5 423q-23.5 -22 -44.5 -64t-32 -97q72 0 108 36.5t36 102.5q0 20 -6.5 32t-19.5 12q-18 0 -41.5 -22z" />
    <glyph glyph-name="l" unicode="l" horiz-adv-x="303" 
d="M238 710q-3 -24 -6 -50q-27 -238 -41.5 -374t-14.5 -175q0 -29 14 -29q27 0 49 79l54 -16q-16 -64 -52.5 -110t-101.5 -46q-39 0 -64.5 23.5t-25.5 72.5q0 80 10.5 187.5t31.5 286.5q6 53 13 93l-70 -3l4 76q62 0 99.5 9t51.5 21h54q-2 -21 -5 -45z" />
    <glyph glyph-name="m" unicode="m" horiz-adv-x="878" 
d="M750.5 470.5q29.5 -40.5 29.5 -113.5q0 -36 -12 -124q-13 -82 -13 -125q0 -26 15 -26q26 0 48 79l55 -16q-7 -33 -26.5 -69t-51.5 -61.5t-74 -25.5q-53 0 -73.5 28t-20.5 85q0 45 14 153q2 17 6.5 58.5t4.5 63.5q0 23 -6 32.5t-22 9.5q-29 0 -60.5 -55.5t-52.5 -136.5
t-21 -150q0 -39 3 -77h-129q-3 28 -3 67q0 59 6.5 124l7.5 75q9 81 9 111q0 23 -6.5 32.5t-21.5 9.5q-29 0 -62 -57t-55 -139t-22 -151q0 -24 3 -72h-128q-3 28 -3 48q0 32 7 93.5t15 120.5q2 18 8 65.5t6 64.5q0 26 -14 26q-26 0 -48 -79l-55 16q13 60 44.5 108t89.5 48
q37 0 60.5 -21t23.5 -70q0 -19 -2.5 -35.5t-3.5 -24.5h1q32 83 78 117t96 34q48 0 73 -30t25 -85q0 -23 -2 -36h1q59 151 167 151q62 0 91.5 -40.5z" />
    <glyph glyph-name="n" unicode="n" horiz-adv-x="610" 
d="M483 470.5q29 -40.5 29 -113.5q0 -36 -12 -124q-13 -82 -13 -125q0 -26 15 -26q26 0 48 79l54 -16q-6 -33 -25.5 -69t-51.5 -61.5t-74 -25.5q-53 0 -73.5 28t-20.5 85q0 45 14 153q2 17 6.5 58.5t4.5 63.5q0 23 -6.5 32.5t-21.5 9.5q-29 0 -61.5 -57t-54.5 -139t-22 -151
q0 -24 3 -72h-129q-3 28 -3 48q0 32 7 93.5t15 120.5q2 18 8 65.5t6 64.5q0 26 -14 26q-26 0 -48 -79l-55 16q13 60 44.5 108t89.5 48q37 0 60.5 -21t23.5 -70q0 -19 -2.5 -35.5t-3.5 -24.5h1q59 151 171 151q62 0 91 -40.5z" />
    <glyph glyph-name="o" unicode="o" horiz-adv-x="515" 
d="M381.5 484.5q45.5 -26.5 72 -77t26.5 -119.5q0 -80 -30.5 -148.5t-87.5 -109.5t-133 -41q-97 0 -149 64t-52 163q0 80 31 147.5t88 107.5t132 40q57 0 102.5 -26.5zM211.5 418q-22.5 -27 -35 -73t-12.5 -101q0 -74 19 -131.5t62 -57.5q34 0 55.5 35t31.5 85.5t10 97.5
q0 69 -18 120.5t-61 51.5q-29 0 -51.5 -27z" />
    <glyph glyph-name="p" unicode="p" horiz-adv-x="575" 
d="M502.5 459q38.5 -52 38.5 -139q0 -97 -31.5 -171.5t-94.5 -117t-156 -42.5q-21 0 -32 1l-4 -82q-3 -50 -8 -90q32 3 66 3v-76h-253v65q34 0 46.5 22t16.5 68q35 378 35 489q0 29 -15 29q-26 0 -48 -79l-54 16q11 59 43.5 107.5t90.5 48.5q37 0 59.5 -21t22.5 -70
q0 -29 -4 -60h1q32 82 78 116.5t93 34.5q71 0 109.5 -52zM276 329q-31 -91 -45 -268q21 -6 40 -6q52 0 82 45.5t41 106t11 112.5q0 101 -49 101t-80 -91z" />
    <glyph glyph-name="q" unicode="q" horiz-adv-x="522" 
d="M390 506q46 -5 85 -12l-43 -587q-3 -48 -8 -89q33 3 68 3v-76h-253v65q26 0 38.5 10.5t17 27.5t7.5 50l8 92q7 80 13 116h-1q-35 -68 -73 -92.5t-80 -24.5q-68 0 -105 55.5t-37 134.5q0 94 31 169t95 119t161 44q30 0 76 -5zM194.5 370.5q-30.5 -74.5 -30.5 -185.5
q0 -55 15.5 -80t35.5 -25q30 0 58.5 54t47.5 138t21 167q-5 3 -19 4.5t-23 1.5q-75 0 -105.5 -74.5z" />
    <glyph glyph-name="r" unicode="r" horiz-adv-x="459" 
d="M442 490q23 -21 23 -55q0 -27 -19 -47.5t-48 -20.5q-23 0 -39.5 14.5t-15.5 37.5q-27 3 -56 -53.5t-48 -140t-19 -153.5q0 -24 3 -72h-131q-3 28 -3 48q0 32 7 93.5t15 120.5q2 18 8 65.5t6 64.5q0 26 -14 26q-26 0 -48 -79l-55 16q13 60 44.5 108t89.5 48q37 0 60.5 -21
t23.5 -70q0 -35 -10 -89h1q37 103 78.5 141.5t85.5 38.5q38 0 61 -21z" />
    <glyph glyph-name="s" unicode="s" horiz-adv-x="446" 
d="M313 497.5q39 -13.5 63.5 -38.5t24.5 -58q0 -27 -17.5 -46.5t-45.5 -19.5q-26 0 -43 18t-17 43q0 16 6 29q-8 10 -24 15t-31 5q-24 0 -45.5 -14.5t-21.5 -37.5q0 -15 6.5 -25t25 -23t61.5 -38q51 -29 78.5 -48t49 -48.5t21.5 -67.5q0 -44 -27 -79t-73.5 -55t-103.5 -20
q-74 0 -126.5 32t-52.5 84q0 30 18.5 50t45.5 20t44 -18t17 -44q0 -15 -6 -30q5 -10 26 -19t37 -9q41 0 60 17.5t19 44.5q0 17 -13.5 32t-37.5 30t-50 29q-77 44 -107.5 76.5t-30.5 82.5q0 36 22.5 69t66 54t101.5 21q41 0 80 -13.5z" />
    <glyph glyph-name="t" unicode="t" horiz-adv-x="395" 
d="M233 500h125l-6 -69l-125 -2q-10 -79 -18 -162.5t-8 -115.5q0 -27 9.5 -46.5t38.5 -19.5q19 0 44.5 13.5t45.5 49.5l51 -32q-33 -63 -82 -95t-106 -32q-75 0 -102 44t-25 118q6 127 23 277l-80 -1l9 73q70 0 107.5 40t51.5 111h67z" />
    <glyph glyph-name="u" unicode="u" horiz-adv-x="598" 
d="M224 483q21 -28 21 -85q0 -45 -14 -153q-12 -96 -12 -122q0 -22 6.5 -32t21.5 -10q27 0 58.5 57t53 139.5t21.5 150.5q0 48 -3 72h129q3 -28 3 -48q0 -32 -7 -93.5t-15 -120.5q-15 -109 -15 -130q0 -26 14 -26q26 0 48 79l54 -16q-11 -59 -43 -107.5t-90 -48.5
q-37 0 -60.5 21t-23.5 70q0 18 2 36.5t3 28.5h-1q-59 -156 -164 -156q-62 0 -91 40.5t-29 113.5q0 32 6 74t7 51q13 82 13 124q0 26 -16 26q-26 0 -48 -79l-54 16q6 33 25.5 69t51.5 61.5t74 25.5q53 0 74 -28z" />
    <glyph glyph-name="v" unicode="v" horiz-adv-x="523" 
d="M457.5 459q34.5 -52 34.5 -130q0 -72 -33.5 -152t-94 -134t-139.5 -54q-127 0 -127 156q0 29 9 144q7 74 7 103q0 26 -16 26q-26 0 -48 -79l-54 16q6 33 25.5 69t51.5 61.5t74 25.5q53 0 74.5 -31t21.5 -85q0 -52 -10 -160q-8 -90 -8 -114q0 -57 36 -57q36 1 73 36.5
t60.5 94t23.5 125.5q0 22 -7 44t-18 33q-24 -18 -46 -18q-24 0 -43 16t-19 46q0 26 18.5 48t57.5 22q62 0 96.5 -52z" />
    <glyph glyph-name="w" unicode="w" horiz-adv-x="795" 
d="M730.5 459q34.5 -52 34.5 -130q0 -73 -37.5 -153t-102 -133.5t-141.5 -53.5q-53 0 -77.5 30.5t-24.5 81.5q0 22 2 34h-1q-20 -76 -65.5 -111t-101.5 -35q-122 0 -122 156q0 25 4 65t9 79q10 84 10 103q0 26 -16 26q-27 0 -49 -79l-54 16q6 33 25.5 69t51.5 61.5t74 25.5
q54 0 75.5 -31.5t21.5 -84.5q0 -52 -14 -160q-10 -90 -10 -114t5 -40.5t23 -16.5q45 0 72.5 61.5t39.5 146t12 156.5q0 24 -3 72h129q2 -28 2 -48q0 -41 -13 -193q-10 -114 -10 -138q0 -20 9.5 -38.5t30.5 -18.5q35 0 75.5 36.5t68.5 95.5t28 124q0 22 -7 44t-18 33
q-24 -18 -46 -18q-24 0 -43 16t-19 46q0 26 18.5 48t57.5 22q62 0 96.5 -52z" />
    <glyph glyph-name="x" unicode="x" horiz-adv-x="543" 
d="M484.5 492.5q17.5 -18.5 17.5 -49.5q0 -25 -18.5 -44t-44.5 -19q-31 0 -48 21q-14 -11 -28.5 -37.5t-40.5 -89.5q35 -97 67 -154q11 -21 20 -29.5t18 -8.5q15 0 24 15.5t14 59.5l56 -8q-6 -62 -36.5 -111t-101.5 -49q-41 0 -68 26.5t-45 70.5l-32 75h-1q-24 -71 -47 -109
t-45.5 -50.5t-48.5 -12.5q-36 0 -58 19t-22 50q0 30 18.5 50t44.5 20q22 0 36.5 -11t19.5 -26q14 9 30 44.5t43 115.5q-13 36 -22 63q-4 10 -11.5 32t-14.5 38q-9 20 -17 27t-19 7q-33 0 -42 -75l-56 8q6 59 41 109.5t106 50.5q39 0 60.5 -22t37.5 -65q11 -28 22 -68
q37 95 70.5 125t68.5 30t52.5 -18.5z" />
    <glyph glyph-name="y" unicode="y" horiz-adv-x="561" 
d="M494.5 470q25.5 -41 25.5 -99q0 -96 -60.5 -252t-152.5 -273t-184 -117q-45 0 -70 21.5t-25 56.5q0 31 19.5 50.5t44.5 19.5q26 0 41.5 -14t19.5 -40q3 -1 10 -1q31 0 67.5 40.5t53.5 76.5q-24 151 -143 425q-12 25 -22.5 39.5t-24.5 14.5q-37 0 -45 -75l-56 8
q6 58 42 109t107 51q79 0 123 -104q77 -187 102 -334h1q60 134 68 243q3 52 -12 70q-5 -1 -14 -1q-25 0 -43 17t-18 41q0 32 21 50t48 18q51 0 76.5 -41z" />
    <glyph glyph-name="z" unicode="z" horiz-adv-x="491" 
d="M464 471l-149 -191q-56 -71 -100.5 -113t-101.5 -89h1q37 30 67 40.5t58 10.5q29 0 65 -14q29 -11 49 -11q19 0 29.5 13t10.5 34q0 17 -8 38l51 17q14 -42 14 -76q0 -58 -32.5 -99.5t-90.5 -41.5q-31 0 -95 15q-5 1 -37.5 8t-58.5 7q-41 0 -75 -30l-43 40q32 47 88 117.5
t107 129.5q32 37 55.5 60.5t53.5 49.5q15 12 41 37h-1q-37 -31 -65 -42.5t-54 -11.5q-14 0 -29 4t-28 9t-26 8.5t-26 3.5q-19 0 -30 -14.5t-11 -36.5q0 -17 6 -34l-50 -17q-12 32 -12 78q0 58 32.5 99.5t90.5 41.5q32 0 90 -15q5 -1 35 -8t56 -7q46 0 80 30z" />
    <glyph glyph-name="braceleft" unicode="{" horiz-adv-x="345" 
d="M353 694q-65 2 -93.5 -40.5t-33.5 -116.5l2 -56q2 -92 2 -101q-1 -49 -28.5 -77.5t-77.5 -46.5v-1q47 -21 70.5 -51.5t22.5 -77.5q0 -9 -8 -73q-12 -82 -12 -115q0 -62 27 -103t87 -40l-4 -66h-49q-175 0 -175 217q0 13 8 97q10 92 10 111q0 67 -58 67h-46l5 67h44
q38 0 52.5 19.5t14.5 60.5l-2 163q0 229 195 229h50z" />
    <glyph glyph-name="bar" unicode="|" horiz-adv-x="234" 
d="M139 -271h-105l51 1031h112z" />
    <glyph glyph-name="braceright" unicode="}" horiz-adv-x="345" 
d="M-16 -205q65 -2 93.5 40.5t33.5 116.5l-2 56q-2 92 -2 101q1 49 28.5 77.5t77.5 46.5v1q-47 21 -70.5 51.5t-22.5 77.5q0 9 8 73q12 82 12 115q0 62 -27 103t-87 40l4 66h49q175 0 175 -217q0 -13 -8 -97q-10 -92 -10 -111q0 -67 58 -67h46l-5 -67h-44q-38 0 -52.5 -19.5
t-14.5 -60.5l2 -163q0 -229 -195 -229h-50z" />
    <glyph glyph-name="asciitilde" unicode="~" horiz-adv-x="540" 
d="M242 386.5q24 -10.5 53 -31.5q21 -17 39.5 -25.5t44.5 -8.5q61 0 117 49l-6 -116q-50 -52 -122 -52q-35 0 -59 10.5t-52 30.5q-26 17 -44 25.5t-43 8.5q-37 0 -63.5 -11.5t-62.5 -36.5l6 115q36 28 64.5 40.5t65.5 12.5q38 0 62 -10.5z" />
    <glyph glyph-name="uni00A0" unicode="&#xa0;" horiz-adv-x="263" 
 />
    <glyph glyph-name="exclamdown" unicode="&#xa1;" horiz-adv-x="235" 
d="M39 -194q-17 22 -17 53q0 11 1 16l58 412h67l16 -412q2 -35 -19 -63t-56 -28q-33 0 -50 22zM69 382.5q-19 22.5 -18 55.5q2 32 25 55t52 23q28 0 47.5 -21.5t19.5 -52.5q0 -33 -23 -57.5t-53 -24.5q-31 0 -50 22.5z" />
    <glyph glyph-name="cent" unicode="&#xa2;" horiz-adv-x="488" 
d="M327 507q52 -10 83.5 -41t31.5 -75q0 -31 -18 -50t-48 -19q-29 0 -44.5 19t-15.5 40q0 23 10 42q-4 9 -17 15.5t-30 6.5q-60 0 -84 -71.5t-24 -153.5q0 -73 27.5 -106t64.5 -33q34 0 68.5 23t60.5 81l57 -28q-36 -80 -81.5 -118.5t-100.5 -46.5l-14 -126h-96l13 131
q-64 16 -100 69t-36 141q0 60 21.5 122.5t65 110.5t104.5 64l12 121h102z" />
    <glyph glyph-name="sterling" unicode="&#xa3;" horiz-adv-x="550" 
d="M420.5 698q36.5 -18 53 -45.5t16.5 -55.5q0 -33 -19.5 -56t-53.5 -23q-30 0 -45 19t-15 40q0 14 5 29t16 26q-5 7 -16.5 11.5t-27.5 4.5q-49 0 -73.5 -41t-27.5 -95q-1 -14 -1 -40q0 -46 7 -97h159l-4 -71l-143 -3q1 -7 1 -21q0 -44 -20.5 -87.5t-57.5 -68.5v-1
q47 21 86 21q24 0 43.5 -7.5t44.5 -21.5q19 -10 32.5 -15.5t26.5 -5.5t25.5 15t15.5 42h62q-7 -76 -39.5 -121.5t-85.5 -45.5q-29 0 -53.5 12t-61.5 36q-63 39 -105 40q-12 -37 -37 -62.5t-51 -25.5q-27 0 -40 14.5t-13 36.5q0 30 25 54t66 39q8 14 14.5 35t7.5 36
q1 49 -8 100l-79 -1l5 77h56q-7 34 -7 82q0 79 31.5 138t82.5 90t110 31q56 0 92.5 -18z" />
    <glyph glyph-name="currency" unicode="&#xa4;" horiz-adv-x="553" 
d="M183 425q46 28 100 28t97 -28l53 62l68 -59l-64 -69q24 -43 24 -94q0 -64 -32 -116l54 -65l-74 -57l-45 60q-45 -25 -102 -25q-58 0 -99 25l-50 -60l-69 57l61 65q-21 42 -21 93q0 31 9 62t26 58l-56 69l73 57zM226.5 344.5q-18.5 -37.5 -20.5 -75.5q-3 -49 10.5 -91.5
t49.5 -42.5q38 0 57 47t19 95q0 38 -15 71.5t-48 33.5q-34 0 -52.5 -37.5z" />
    <glyph glyph-name="yen" unicode="&#xa5;" horiz-adv-x="706" 
d="M704 634q-35 -5 -61 -28.5t-58 -78.5l-107 -187h70l-4 -74l-103 -1l-3 -51l105 -1l-3 -73l-105 -1q-3 -45 -8 -65q33 3 80 3l-4 -77h-289l3 66q25 1 39 5.5t23.5 20t12.5 46.5h-106l4 77h106l3 50l-109 -1l5 78l52 -1l-119 190q-14 23 -24 51t-9 44l-48 -3l4 77h292
l-4 -66q-33 2 -53.5 -8.5t-20.5 -32.5q0 -17 11 -36l70 -125q33 -62 44 -91h6q19 38 49 92l57 102q40 70 58 91v1l-52 -3l-25 -1l4 77h221z" />
    <glyph glyph-name="brokenbar" unicode="&#xa6;" horiz-adv-x="249" 
d="M179 375h-104l18 385h110zM145 -271h-103l17 384h110z" />
    <glyph glyph-name="section" unicode="&#xa7;" horiz-adv-x="527" 
d="M385.5 741.5q40.5 -18.5 63 -49t22.5 -62.5q0 -30 -18.5 -53t-48.5 -23q-31 0 -46 19.5t-13 39.5q0 23 13 42q-7 16 -24.5 25t-40.5 9q-43 0 -68.5 -25t-28.5 -58q-1 -32 14.5 -57t38.5 -42t62 -41q46 -30 49 -32q51 -38 78 -66.5t39.5 -61.5t12.5 -80q0 -35 -25 -83
t-61 -82q16 -26 25 -47.5t9 -49.5q0 -44 -20.5 -88t-68 -74t-122.5 -30q-52 0 -92.5 18.5t-63 48.5t-22.5 62q0 31 18.5 54.5t48.5 23.5t45.5 -20.5t13.5 -40.5q0 -22 -13 -41q7 -15 26 -24.5t42 -9.5q46 0 71.5 26t25.5 60q0 30 -18 54t-42 41.5t-64 40.5l-37 23
q-62 41 -98 87t-36 111q0 42 23.5 91t62.5 84q-20 27 -27 51.5t-7 56.5q1 42 24 86.5t70 74.5t115 30q52 0 92.5 -18.5zM153.5 365q-5.5 -26 -5.5 -44q0 -34 19.5 -62t47 -48t73.5 -48q5 -3 29 -17.5t40 -28.5q7 14 12.5 41t5.5 44q0 34 -20 62.5t-48 49t-73 47.5
q-51 30 -67 44q-8 -14 -13.5 -40z" />
    <glyph glyph-name="dieresis" unicode="&#xa8;" horiz-adv-x="415" 
d="M72.5 620q-17.5 20 -17.5 50q0 33 21 57t49 24q26 0 43 -20.5t17 -49.5q0 -34 -20 -57.5t-49 -23.5q-26 0 -43.5 20zM246.5 620q-17.5 20 -17.5 50q0 33 21 57t49 24q26 0 43 -20.5t17 -49.5q0 -34 -20 -57.5t-49 -23.5q-26 0 -43.5 20z" />
    <glyph glyph-name="copyright" unicode="&#xa9;" horiz-adv-x="890" 
d="M674 703q88 -52 137 -142t49 -198q0 -117 -58.5 -216.5t-158 -158.5t-215.5 -59t-205.5 49.5t-138.5 137.5t-49 199q0 118 58 219t158.5 161t221.5 60q113 0 201 -52zM282 645q-83 -52 -129.5 -139t-46.5 -188q0 -92 39.5 -168t114 -120t174.5 -44q104 0 185 51t126 137
t45 187q0 92 -39.5 169t-113 122t-169.5 45q-103 0 -186 -52zM583 555v31h72l-9 -175h-62q-4 56 -36 84t-76 28q-36 0 -68.5 -24t-52 -66t-19.5 -93q0 -69 40 -116.5t107 -47.5q36 0 74.5 19t68.5 55l40 -41q-49 -62 -108 -88.5t-111 -26.5q-65 0 -117 30t-81 83t-29 117
q0 62 28.5 124t84 102t131.5 40q75 0 123 -35z" />
    <glyph glyph-name="ordfeminine" unicode="&#xaa;" horiz-adv-x="406" 
d="M294.5 712.5q32.5 -3.5 58.5 -9.5q-33 -214 -33 -257q0 -19 10 -19q9 0 18 12t17 39l33 -10q-7 -36 -31.5 -68.5t-65.5 -32.5q-29 0 -43.5 13.5t-14.5 45.5q0 17 4 37h-1q-23 -53 -48.5 -74.5t-57.5 -21.5q-38 0 -65.5 31t-27.5 87q0 103 52.5 167t143.5 64
q19 0 51.5 -3.5zM149 494q-1 -27 5.5 -42t19.5 -15q17 0 33.5 35.5t28 88.5t14.5 101q-5 2 -14.5 3.5t-16.5 0.5q-63 -4 -70 -172z" />
    <glyph glyph-name="guillemotleft" unicode="&#xab;" horiz-adv-x="489" 
d="M17 256l1 24l281 278l40 -44l-201 -247v-1l173 -238l-44 -41zM236 259l1 23l182 199l40 -33l-112 -174v-1l92 -174l-43 -34z" />
    <glyph glyph-name="logicalnot" unicode="&#xac;" horiz-adv-x="573" 
d="M511 356l-11 -204h-84l3 117l-362 -2l5 92z" />
    <glyph glyph-name="uni00AD" unicode="&#xad;" horiz-adv-x="473" 
d="M418 272l-366 -3l5 101h367z" />
    <glyph glyph-name="registered" unicode="&#xae;" horiz-adv-x="890" 
d="M674 703q88 -52 137 -142t49 -198q0 -117 -58.5 -216.5t-158 -158.5t-215.5 -59t-205.5 49.5t-138.5 137.5t-49 199q0 118 58 219t158.5 161t221.5 60q113 0 201 -52zM282 645q-83 -52 -129.5 -139t-46.5 -188q0 -92 39.5 -168t114 -120t174.5 -44q104 0 185 51t126 137
t45 187q0 92 -39.5 169t-113 122t-169.5 45q-103 0 -186 -52zM587 556.5q47 -29.5 47 -96.5q0 -117 -117 -149q11 -5 19 -15t19 -28l22 -43q22 -37 34.5 -49.5t34.5 -13.5l-2 -44h-103q-25 20 -47 63q-39 71 -48.5 91.5t-12.5 24.5h-38l-4 -68q-1 -31 -4 -61l29 1q22 0 27 1
l-3 -52h-199l3 44q18 1 27.5 4.5t16 16t7.5 38.5l13 253q1 36 6 61l-51 -2l3 52l187 1q87 0 134 -29.5zM415.5 519q-10.5 -11 -11.5 -43l-7 -119q12 -3 28 -3q51 0 79 26.5t28 73.5q0 46 -26 61t-58 15q-22 0 -32.5 -11z" />
    <glyph glyph-name="macron" unicode="&#xaf;" horiz-adv-x="378" 
d="M49 722h284l-4 -90l-284 -3z" />
    <glyph glyph-name="degree" unicode="&#xb0;" horiz-adv-x="384" 
d="M331.5 673.5q41.5 -42.5 41.5 -108.5q0 -46 -24 -85t-64 -62t-86 -23q-70 0 -111.5 43t-41.5 109q0 46 24 85t63.5 61.5t85.5 22.5q71 0 112.5 -42.5zM154.5 620q-24.5 -28 -24.5 -67t19.5 -63.5t54.5 -24.5q37 0 61 27.5t24 67.5t-20 64t-56 24q-34 0 -58.5 -28z" />
    <glyph glyph-name="plusminus" unicode="&#xb1;" horiz-adv-x="544" 
d="M322 369l178 -1l-5 -89l-178 -1l-8 -154h-95l8 153h-177l5 93l177 -1l7 146h96zM480 0h-449l4 85l450 4z" />
    <glyph glyph-name="uni00B2" unicode="&#xb2;" horiz-adv-x="376" 
d="M299.5 692q37.5 -24 37.5 -73q0 -30 -12 -52.5t-30 -39.5t-52 -43q-40 -30 -63 -52q-28 -27 -39 -48l121 -2q14 -1 22 7t9 30h47l-11 -117h-279q3 43 17.5 75t36 55.5t56.5 52.5q39 34 54.5 66t15.5 57q0 26 -12.5 39t-33.5 13q-10 0 -21 -4.5t-15 -10.5q12 -10 12 -32
q0 -17 -13.5 -33.5t-38.5 -16.5q-21 0 -33 14t-12 36t17.5 46t50.5 40.5t77 16.5q54 0 91.5 -24z" />
    <glyph glyph-name="uni00B3" unicode="&#xb3;" horiz-adv-x="365" 
d="M298 689q36 -27 33 -78q-2 -29 -25 -54.5t-54 -33.5l-1 -1q46 -9 68 -34.5t22 -64.5q-1 -57 -45.5 -94t-124.5 -37q-58 0 -93 28t-35 66q0 24 16 42t39 18q24 0 34.5 -14.5t9.5 -35.5q0 -7 -4.5 -18t-11.5 -17q6 -9 19 -13t24 -4q31 0 51 21t20 52t-21.5 49.5t-59.5 18.5
l-34 -1l3 54q24 -2 35 -2q36 0 54 23t18 51q0 25 -14 39.5t-38 14.5q-21 0 -36 -12q7 -6 10 -16.5t2 -16.5q-1 -16 -13.5 -31.5t-35.5 -15.5t-36 14t-12 37q1 21 17 42.5t47.5 36t75.5 14.5q60 0 96 -27z" />
    <glyph glyph-name="acute" unicode="&#xb4;" horiz-adv-x="292" 
d="M45 606l89 140q11 17 27.5 27t33.5 10q20 0 34 -13q17 -16 17 -39q0 -16 -8 -32.5t-22 -27.5l-127 -106z" />
    <glyph glyph-name="uni00B5" unicode="&#xb5;" horiz-adv-x="597" 
d="M468 142q-1 -21 2 -36t20 -15q16 0 37 18l32 -42q-22 -28 -56.5 -50t-68.5 -22q-64 0 -77 64h-1q-31 -36 -62 -55t-59 -19q-52 0 -77 70h-1q0 -69 18 -177q8 -58 8 -69q0 -33 -16.5 -56.5t-51.5 -23.5q-37 0 -51 27t-12 77l35 667h122l-14 -272q-1 -9 -1 -27
q0 -57 16 -89.5t49 -32.5q22 0 45.5 9t41.5 28l20 384h122z" />
    <glyph glyph-name="paragraph" unicode="&#xb6;" horiz-adv-x="557" 
d="M444 -255h-110l48 886l-94 -1l-48 -885h-111l37 656q-120 23 -120 137q0 52 23 89t59.5 55t78.5 18h289z" />
    <glyph glyph-name="periodcentered" unicode="&#xb7;" horiz-adv-x="227" 
d="M169 397.5q19 -21.5 19 -52.5q0 -34 -21 -58t-54 -24q-32 0 -51 21t-19 53q0 33 23.5 57.5t53.5 24.5t49 -21.5z" />
    <glyph glyph-name="cedilla" unicode="&#xb8;" horiz-adv-x="330" 
d="M45 -207q125 23 125 65q0 12 -7.5 17.5t-19.5 5.5q-11 0 -22.5 -4t-19.5 -10l-37 16l38 127h76l-33 -79h1q12 6 33.5 11t35.5 5q31 -1 50 -17t19 -47q0 -64 -72.5 -97t-161.5 -45z" />
    <glyph glyph-name="uni00B9" unicode="&#xb9;" horiz-adv-x="276" 
d="M207 395q-1 -22 -4 -51q12 1 43 1l-3 -44h-175l2 38q22 1 31.5 9.5t11.5 40.5l12 230l-66 -37l-18 39l148 95h35z" />
    <glyph glyph-name="ordmasculine" unicode="&#xba;" horiz-adv-x="368" 
d="M314.5 675q39.5 -41 39.5 -111q0 -52 -21 -98t-59.5 -74t-88.5 -28q-66 0 -102 44.5t-36 111.5q0 53 21.5 98t60 71.5t88.5 26.5q58 0 97.5 -41zM168 628q-16 -38 -16 -98q0 -113 41 -113q27 0 41.5 38t14.5 95q0 116 -40 116q-25 0 -41 -38z" />
    <glyph glyph-name="guillemotright" unicode="&#xbb;" horiz-adv-x="490" 
d="M468 285l-1 -24l-281 -278l-40 44l201 247v1l-173 238l44 41zM249 282l-1 -23l-182 -199l-40 33l112 174v1l-92 174l43 34z" />
    <glyph glyph-name="onequarter" unicode="&#xbc;" horiz-adv-x="794" 
d="M207 395q-1 -22 -4 -51q12 1 43 1l-3 -44h-175l2 38q22 1 31.5 9.5t11.5 40.5l12 230l-66 -37l-18 39l148 95h35zM660 665l-480 -681l-61 47l477 685zM690 94q-1 -22 -4 -51q12 1 43 1l-3 -44h-177l2 38q22 1 32 9.5t12 40.5v13l-151 1l3 58h-1l227 255h34l-13 -259
l59 -1l-3 -55h-59zM600 157l11 120h-1l-97 -118z" />
    <glyph glyph-name="onehalf" unicode="&#xbd;" horiz-adv-x="833" 
d="M207 395q-1 -22 -4 -51q12 1 43 1l-3 -44h-175l2 38q22 1 31.5 9.5t11.5 40.5l12 230l-66 -37l-18 39l148 95h35zM660 665l-480 -681l-61 47l477 685zM750.5 390q37.5 -24 37.5 -73q0 -30 -12 -52.5t-30 -39.5t-52 -43q-40 -30 -63 -52q-28 -27 -39 -48l121 -2
q14 -1 22 7t9 30h47l-11 -117h-279q3 43 17.5 75t36 55.5t56.5 52.5q39 34 54.5 66t15.5 57q0 26 -12.5 39t-33.5 13q-10 0 -21 -4.5t-15 -10.5q12 -10 12 -32q0 -17 -13.5 -33.5t-38.5 -16.5q-21 0 -33 14t-12 36t17.5 46t50.5 40.5t77 16.5q54 0 91.5 -24z" />
    <glyph glyph-name="threequarters" unicode="&#xbe;" horiz-adv-x="889" 
d="M298 689q36 -27 33 -78q-2 -29 -25 -54.5t-54 -33.5l-1 -1q46 -9 68 -34.5t22 -64.5q-1 -57 -45.5 -94t-124.5 -37q-58 0 -93 28t-35 66q0 24 16 42t39 18q24 0 34.5 -14.5t9.5 -35.5q0 -7 -4.5 -18t-11.5 -17q6 -9 19 -13t24 -4q31 0 51 21t20 52t-21.5 49.5t-59.5 18.5
l-34 -1l3 54q24 -2 35 -2q36 0 54 23t18 51q0 25 -14 39.5t-38 14.5q-21 0 -36 -12q7 -6 10 -16.5t2 -16.5q-1 -16 -13.5 -31.5t-35.5 -15.5t-36 14t-12 37q1 21 17 42.5t47.5 36t75.5 14.5q60 0 96 -27zM755 665l-480 -681l-61 47l477 685zM785 94q-1 -22 -4 -51q12 1 43 1
l-3 -44h-177l2 38q22 1 32 9.5t12 40.5v13l-151 1l3 58h-1l227 255h34l-13 -259l59 -1l-3 -55h-59zM695 157l11 120h-1l-97 -118z" />
    <glyph glyph-name="questiondown" unicode="&#xbf;" horiz-adv-x="478" 
d="M57 -173.5q-49 42.5 -49 107.5q0 41 21 77t49.5 62t74.5 62q41 31 59.5 49.5t18.5 36.5q0 13 -9.5 21t-29.5 8q-14 0 -30 -4l-13 51q23 12 50.5 17t49.5 5q35 0 59 -16t24 -48q0 -27 -16.5 -51.5t-71.5 -76.5q-46 -43 -68.5 -81t-22.5 -95q0 -97 82 -97q23 0 45 10t33 22
q-8 8 -12 21.5t-4 25.5q0 24 18 47t50 23q31 0 47.5 -18.5t16.5 -47.5q0 -36 -29 -71.5t-79 -58.5t-109 -23q-106 0 -155 42.5zM191 381.5q-19 21.5 -19 52.5q0 33 23.5 57.5t53.5 24.5q28 0 48 -21.5t20 -52.5q0 -33 -23.5 -57.5t-53.5 -24.5t-49 21.5z" />
    <glyph glyph-name="Agrave" unicode="&#xc0;" horiz-adv-x="667" 
d="M569 173q21 -70 23 -99q32 3 57 3l-3 -77h-268l4 66q51 0 51 43q0 14 -9 45l-17 55l-219 -4l-19 -47q-22 -55 -36 -81q33 3 74 3l-5 -80h-214l4 69q26 0 43.5 15t29 36t29.5 63l223 535h67zM314 542q-8 -39 -46 -132l-51 -130h168l-39 125q-26 88 -31 137h-1zM254 854
q-17 10 -27.5 25.5t-10.5 32.5q0 16 12 31q16 20 40 20q30 0 57 -27l109 -117l-39 -49z" />
    <glyph glyph-name="Aacute" unicode="&#xc1;" horiz-adv-x="667" 
d="M569 173q21 -70 23 -99q32 3 57 3l-3 -77h-268l4 66q51 0 51 43q0 14 -9 45l-17 55l-219 -4l-19 -47q-22 -55 -36 -81q33 3 74 3l-5 -80h-214l4 69q26 0 43.5 15t29 36t29.5 63l223 535h67zM314 542q-8 -39 -46 -132l-51 -130h168l-39 125q-26 88 -31 137h-1zM281 818
l122 118q13 12 28.5 19.5t30.5 7.5q25 0 38 -20q9 -13 9 -28q0 -17 -12.5 -33.5t-31.5 -27.5l-150 -84z" />
    <glyph glyph-name="Acircumflex" unicode="&#xc2;" horiz-adv-x="667" 
d="M569 173q21 -70 23 -99q32 3 57 3l-3 -77h-268l4 66q51 0 51 43q0 14 -9 45l-17 55l-219 -4l-19 -47q-22 -55 -36 -81q33 3 74 3l-5 -80h-214l4 69q26 0 43.5 15t29 36t29.5 63l223 535h67zM314 542q-8 -39 -46 -132l-51 -130h168l-39 125q-26 88 -31 137h-1zM356 867
l-193 -86l-19 40l212 150h19l188 -150l-28 -42z" />
    <glyph glyph-name="Atilde" unicode="&#xc3;" horiz-adv-x="667" 
d="M569 173q21 -70 23 -99q32 3 57 3l-3 -77h-268l4 66q51 0 51 43q0 14 -9 45l-17 55l-219 -4l-19 -47q-22 -55 -36 -81q33 3 74 3l-5 -80h-214l4 69q26 0 43.5 15t29 36t29.5 63l223 535h67zM314 542q-8 -39 -46 -132l-51 -130h168l-39 125q-26 88 -31 137h-1zM238 837
q-24 -11 -42 -38l-51 32q21 52 59 79t77 27q23 0 41.5 -7t41.5 -20q21 -12 34.5 -17.5t29.5 -5.5q21 0 46.5 17.5t39.5 44.5l52 -27q-24 -70 -59.5 -97t-73.5 -27q-21 0 -39 6.5t-40 19.5q-21 12 -36 18t-33 6q-23 0 -47 -11z" />
    <glyph glyph-name="Adieresis" unicode="&#xc4;" horiz-adv-x="667" 
d="M569 173q21 -70 23 -99q32 3 57 3l-3 -77h-268l4 66q51 0 51 43q0 14 -9 45l-17 55l-219 -4l-19 -47q-22 -55 -36 -81q33 3 74 3l-5 -80h-214l4 69q26 0 43.5 15t29 36t29.5 63l223 535h67zM314 542q-8 -39 -46 -132l-51 -130h168l-39 125q-26 88 -31 137h-1z
M221.5 817.5q-17.5 20.5 -17.5 50.5q0 33 21 57t49 24q26 0 42.5 -20.5t16.5 -50.5q0 -33 -20 -57t-49 -24q-25 0 -42.5 20.5zM396 817.5q-17 20.5 -17 50.5q0 33 20.5 57t48.5 24q26 0 42.5 -20.5t16.5 -50.5q0 -33 -20 -57t-48 -24q-26 0 -43 20.5z" />
    <glyph glyph-name="Aring" unicode="&#xc5;" horiz-adv-x="667" 
d="M569 173q21 -70 23 -99q32 3 57 3l-3 -77h-268l4 66q51 0 51 43q0 14 -9 45l-17 55l-219 -4l-19 -47q-22 -55 -36 -81q33 3 74 3l-5 -80h-214l4 69q26 0 43.5 15t29 36t29.5 63l223 535h67zM314 542q-8 -39 -46 -132l-51 -130h168l-39 125q-26 88 -31 137h-1z
M262.5 783.5q-40.5 32.5 -40.5 93.5q0 37 19.5 66.5t50.5 46t63 16.5q33 0 64 -14t50.5 -43t19.5 -70q0 -39 -19.5 -68t-50.5 -44.5t-63 -15.5q-53 0 -93.5 32.5zM389.5 819q12.5 17 12.5 48q0 42 -12.5 65.5t-34.5 23.5q-23 0 -34.5 -21.5t-11.5 -49.5q0 -39 13.5 -61
t36.5 -22q18 0 30.5 17z" />
    <glyph glyph-name="AE" unicode="&#xc6;" horiz-adv-x="931" 
d="M873 506h-66q4 74 -30 102.5t-85 26.5l-36 -1q-24 -1 -38 -6.5t-22.5 -24t-10.5 -56.5l-8 -150h118q-1 20 -0.5 35.5t0.5 25.5v26h77l-13 -243h-66q2 40 -9 59t-31 24.5t-53 4.5l-27 -1l-8 -164q-4 -65 -9 -88h134q51 0 88.5 34.5t41.5 109.5h66l-18 -220h-525l3 66
q27 1 41.5 6.5t23.5 23.5t11 57l2 54q-29 0 -95 -2l-100 -3l-38 -51q-22 -29 -37 -47t-30 -29v-1l80 3l-4 -77h-224l3 66q31 0 58 26.5t67 78.5l347 454v1l-76 -3l4 77h498zM444 501q-18 -30 -33.5 -52t-42.5 -57l-87 -116h147l17 225h-1z" />
    <glyph glyph-name="Ccedilla" unicode="&#xc7;" horiz-adv-x="693" 
d="M494 703q46 -13 84 -36h1l-2 42h77l-12 -233h-65q-10 84 -50.5 128t-110.5 44q-66 0 -115 -40.5t-75.5 -106.5t-30.5 -141q-1 -10 -1 -29q0 -121 53 -196t148 -75q63 0 126 31t111 93l40 -40q-71 -91 -151.5 -125.5t-157.5 -34.5h-13l-22 -51h1q12 6 32 10.5t34 4.5
q32 0 53.5 -18.5t21.5 -50.5q0 -45 -40 -77.5t-95 -51t-103 -25.5l-5 55q39 7 82.5 27.5t43.5 47.5q0 24 -26 24q-11 0 -23 -4.5t-20 -10.5l-41 15l33 115q-72 17 -126 63t-83 113.5t-29 146.5q0 98 43.5 190t127.5 150.5t199 58.5q40 0 86 -13z" />
    <glyph glyph-name="Egrave" unicode="&#xc8;" horiz-adv-x="623" 
d="M565 506h-65q3 74 -31 102.5t-84 26.5l-36 -1q-24 -1 -38.5 -6.5t-23 -24.5t-10.5 -56l-7 -150h117v87h77l-12 -243h-66q2 40 -9.5 59t-31.5 24.5t-53 4.5l-26 -1l-9 -164q-3 -62 -8 -88h134q51 0 88 34.5t41 109.5h66l-17 -220h-526l4 66q26 1 40.5 6.5t23.5 23.5t11 57
l20 383q3 57 9 90l-75 -3l4 77h498zM251 854q-17 10 -27.5 25.5t-10.5 32.5q0 16 12 31q16 20 40 20q30 0 57 -27l109 -117l-39 -49z" />
    <glyph glyph-name="Eacute" unicode="&#xc9;" horiz-adv-x="623" 
d="M565 506h-65q3 74 -31 102.5t-84 26.5l-36 -1q-24 -1 -38.5 -6.5t-23 -24.5t-10.5 -56l-7 -150h117v87h77l-12 -243h-66q2 40 -9.5 59t-31.5 24.5t-53 4.5l-26 -1l-9 -164q-3 -62 -8 -88h134q51 0 88 34.5t41 109.5h66l-17 -220h-526l4 66q26 1 40.5 6.5t23.5 23.5t11 57
l20 383q3 57 9 90l-75 -3l4 77h498zM278 818l122 118q13 12 28.5 19.5t30.5 7.5q25 0 38 -20q9 -13 9 -28q0 -17 -12.5 -33.5t-31.5 -27.5l-150 -84z" />
    <glyph glyph-name="Ecircumflex" unicode="&#xca;" horiz-adv-x="623" 
d="M565 506h-65q3 74 -31 102.5t-84 26.5l-36 -1q-24 -1 -38.5 -6.5t-23 -24.5t-10.5 -56l-7 -150h117v87h77l-12 -243h-66q2 40 -9.5 59t-31.5 24.5t-53 4.5l-26 -1l-9 -164q-3 -62 -8 -88h134q51 0 88 34.5t41 109.5h66l-17 -220h-526l4 66q26 1 40.5 6.5t23.5 23.5t11 57
l20 383q3 57 9 90l-75 -3l4 77h498zM353 867l-193 -86l-19 40l212 150h19l188 -150l-28 -42z" />
    <glyph glyph-name="Edieresis" unicode="&#xcb;" horiz-adv-x="623" 
d="M565 506h-65q3 74 -31 102.5t-84 26.5l-36 -1q-24 -1 -38.5 -6.5t-23 -24.5t-10.5 -56l-7 -150h117v87h77l-12 -243h-66q2 40 -9.5 59t-31.5 24.5t-53 4.5l-26 -1l-9 -164q-3 -62 -8 -88h134q51 0 88 34.5t41 109.5h66l-17 -220h-526l4 66q26 1 40.5 6.5t23.5 23.5t11 57
l20 383q3 57 9 90l-75 -3l4 77h498zM218.5 817.5q-17.5 20.5 -17.5 50.5q0 33 21 57t49 24q26 0 42.5 -20.5t16.5 -50.5q0 -33 -20 -57t-49 -24q-25 0 -42.5 20.5zM393 817.5q-17 20.5 -17 50.5q0 33 20.5 57t48.5 24q26 0 42.5 -20.5t16.5 -50.5q0 -33 -20 -57t-48 -24
q-26 0 -43 20.5z" />
    <glyph glyph-name="Igrave" unicode="&#xcc;" horiz-adv-x="384" 
d="M353 634q-27 -1 -41.5 -6.5t-23.5 -23.5t-11 -57l-20 -383q-4 -65 -8 -90q31 3 75 3l-4 -77h-285l4 66q26 1 40.5 6.5t23.5 23.5t11 57l20 383q3 57 9 90l-75 -3l4 77h284zM134 854q-17 10 -27.5 25.5t-10.5 32.5q0 16 12 31q16 20 40 20q30 0 57 -27l109 -117l-39 -49z
" />
    <glyph glyph-name="Iacute" unicode="&#xcd;" horiz-adv-x="384" 
d="M353 634q-27 -1 -41.5 -6.5t-23.5 -23.5t-11 -57l-20 -383q-4 -65 -8 -90q31 3 75 3l-4 -77h-285l4 66q26 1 40.5 6.5t23.5 23.5t11 57l20 383q3 57 9 90l-75 -3l4 77h284zM161 818l122 118q13 12 28.5 19.5t30.5 7.5q25 0 38 -20q9 -13 9 -28q0 -17 -12.5 -33.5
t-31.5 -27.5l-150 -84z" />
    <glyph glyph-name="Icircumflex" unicode="&#xce;" horiz-adv-x="385" 
d="M250 971l151 -157l-43 -46l-123 99l-139 -96l-36 47l175 153h15zM353 634q-27 -1 -41.5 -6.5t-23.5 -23.5t-11 -57l-20 -383q-4 -65 -8 -90q31 3 75 3l-4 -77h-285l4 66q26 1 40.5 6.5t23.5 23.5t11 57l20 383q3 57 9 90l-75 -3l4 77h284z" />
    <glyph glyph-name="Idieresis" unicode="&#xcf;" horiz-adv-x="384" 
d="M353 634q-27 -1 -41.5 -6.5t-23.5 -23.5t-11 -57l-20 -383q-4 -65 -8 -90q31 3 75 3l-4 -77h-285l4 66q26 1 40.5 6.5t23.5 23.5t11 57l20 383q3 57 9 90l-75 -3l4 77h284zM101.5 817.5q-17.5 20.5 -17.5 50.5q0 33 21 57t49 24q26 0 42.5 -20.5t16.5 -50.5
q0 -33 -20 -57t-49 -24q-25 0 -42.5 20.5zM276 817.5q-17 20.5 -17 50.5q0 33 20.5 57t48.5 24q26 0 42.5 -20.5t16.5 -50.5q0 -33 -20 -57t-48 -24q-26 0 -43 20.5z" />
    <glyph glyph-name="Eth" unicode="&#xd0;" horiz-adv-x="756" 
d="M564.5 655q81.5 -46 120.5 -121t39 -160q0 -89 -43 -175t-134 -142.5t-227 -56.5h-284l4 66q26 1 40.5 6.5t23.5 23.5t11 57l8 151l-99 -2l5 98h99l7 136q3 57 9 90l-75 -3l4 77l289 1q121 0 202.5 -46zM296.5 617q-15.5 -17 -18.5 -68l-8 -149h102l-5 -91l-102 -2
l-7 -143q-4 -65 -8 -90q5 1 19 1l43 -1q13 -1 33 -1q70 0 119 37t74.5 96.5t28.5 129.5q1 12 1 34q0 135 -58 199.5t-164 64.5q-34 0 -49.5 -17z" />
    <glyph glyph-name="Ntilde" unicode="&#xd1;" horiz-adv-x="772" 
d="M757 634q-27 -1 -41.5 -6.5t-23.5 -23.5t-11 -57l-30 -557h-85l-298 411q-28 39 -51 75h-1l-14 -312q-3 -57 -9 -90q33 3 76 3l-5 -77h-228l4 66q27 1 41.5 6.5t23.5 23.5t11 57l17 383q3 57 9 90l-76 -3l5 77h157l285 -387q25 -35 65 -96h1l16 319q3 57 9 90l-76 -3
l5 77h227zM302 837q-24 -11 -42 -38l-51 32q21 52 59 79t77 27q23 0 41.5 -7t41.5 -20q21 -12 34.5 -17.5t29.5 -5.5q21 0 46.5 17.5t39.5 44.5l52 -27q-24 -70 -59.5 -97t-73.5 -27q-21 0 -39 6.5t-40 19.5q-21 12 -36 18t-33 6q-23 0 -47 -11z" />
    <glyph glyph-name="Ograve" unicode="&#xd2;" horiz-adv-x="762" 
d="M589 665.5q73 -50.5 107 -129t34 -165.5q0 -90 -42 -179.5t-124.5 -148.5t-198.5 -59q-114 0 -187 48t-106 124.5t-33 165.5q0 19 1 28q4 89 47.5 173t125 138.5t193.5 54.5q110 0 183 -50.5zM278 599q-45 -49 -65 -121t-20 -143q0 -68 18.5 -132.5t60 -107.5t106.5 -43
t108.5 42t65 106.5t24.5 132.5q1 12 1 36q0 128 -46 203.5t-137 75.5q-71 0 -116 -49zM307 854q-17 10 -27.5 25.5t-10.5 32.5q0 16 12 31q16 20 40 20q30 0 57 -27l109 -117l-39 -49z" />
    <glyph glyph-name="Oacute" unicode="&#xd3;" horiz-adv-x="762" 
d="M589 665.5q73 -50.5 107 -129t34 -165.5q0 -90 -42 -179.5t-124.5 -148.5t-198.5 -59q-114 0 -187 48t-106 124.5t-33 165.5q0 19 1 28q4 89 47.5 173t125 138.5t193.5 54.5q110 0 183 -50.5zM278 599q-45 -49 -65 -121t-20 -143q0 -68 18.5 -132.5t60 -107.5t106.5 -43
t108.5 42t65 106.5t24.5 132.5q1 12 1 36q0 128 -46 203.5t-137 75.5q-71 0 -116 -49zM334 818l122 118q13 12 28.5 19.5t30.5 7.5q25 0 38 -20q9 -13 9 -28q0 -17 -12.5 -33.5t-31.5 -27.5l-150 -84z" />
    <glyph glyph-name="Ocircumflex" unicode="&#xd4;" horiz-adv-x="762" 
d="M589 665.5q73 -50.5 107 -129t34 -165.5q0 -90 -42 -179.5t-124.5 -148.5t-198.5 -59q-114 0 -187 48t-106 124.5t-33 165.5q0 19 1 28q4 89 47.5 173t125 138.5t193.5 54.5q110 0 183 -50.5zM278 599q-45 -49 -65 -121t-20 -143q0 -68 18.5 -132.5t60 -107.5t106.5 -43
t108.5 42t65 106.5t24.5 132.5q1 12 1 36q0 128 -46 203.5t-137 75.5q-71 0 -116 -49zM409 867l-193 -86l-19 40l212 150h19l188 -150l-28 -42z" />
    <glyph glyph-name="Otilde" unicode="&#xd5;" horiz-adv-x="762" 
d="M589 665.5q73 -50.5 107 -129t34 -165.5q0 -90 -42 -179.5t-124.5 -148.5t-198.5 -59q-114 0 -187 48t-106 124.5t-33 165.5q0 19 1 28q4 89 47.5 173t125 138.5t193.5 54.5q110 0 183 -50.5zM278 599q-45 -49 -65 -121t-20 -143q0 -68 18.5 -132.5t60 -107.5t106.5 -43
t108.5 42t65 106.5t24.5 132.5q1 12 1 36q0 128 -46 203.5t-137 75.5q-71 0 -116 -49zM291 837q-24 -11 -42 -38l-51 32q21 52 59 79t77 27q23 0 41.5 -7t41.5 -20q21 -12 34.5 -17.5t29.5 -5.5q21 0 46.5 17.5t39.5 44.5l52 -27q-24 -70 -59.5 -97t-73.5 -27q-21 0 -39 6.5
t-40 19.5q-21 12 -36 18t-33 6q-23 0 -47 -11z" />
    <glyph glyph-name="Odieresis" unicode="&#xd6;" horiz-adv-x="762" 
d="M589 665.5q73 -50.5 107 -129t34 -165.5q0 -90 -42 -179.5t-124.5 -148.5t-198.5 -59q-114 0 -187 48t-106 124.5t-33 165.5q0 19 1 28q4 89 47.5 173t125 138.5t193.5 54.5q110 0 183 -50.5zM278 599q-45 -49 -65 -121t-20 -143q0 -68 18.5 -132.5t60 -107.5t106.5 -43
t108.5 42t65 106.5t24.5 132.5q1 12 1 36q0 128 -46 203.5t-137 75.5q-71 0 -116 -49zM274.5 817.5q-17.5 20.5 -17.5 50.5q0 33 21 57t49 24q26 0 42.5 -20.5t16.5 -50.5q0 -33 -20 -57t-49 -24q-25 0 -42.5 20.5zM449 817.5q-17 20.5 -17 50.5q0 33 20.5 57t48.5 24
q26 0 42.5 -20.5t16.5 -50.5q0 -33 -20 -57t-48 -24q-26 0 -43 20.5z" />
    <glyph glyph-name="multiply" unicode="&#xd7;" horiz-adv-x="539" 
d="M511 471l-169 -164l153 -168l-78 -73l-154 169l-169 -162l-66 73l169 158l-151 158l79 74l150 -160q2 2 81 78q77 75 92 88z" />
    <glyph glyph-name="Oslash" unicode="&#xd8;" horiz-adv-x="761" 
d="M694 734l-64 -101q50 -49 75.5 -118t25.5 -143q0 -90 -42 -180t-125 -149t-199 -59q-78 0 -136 23l-70 -109l-72 50l65 102q-58 47 -85.5 119t-27.5 154l1 27q4 89 47.5 173t125 138.5t193.5 54.5q85 0 149 -31l63 98zM283.5 605q-43.5 -43 -65 -108.5t-24.5 -134.5
q-1 -10 -1 -30q0 -96 32 -167l280 440q-43 43 -112 43q-66 0 -109.5 -43zM280 86q42 -34 99 -34q65 0 108 42.5t64.5 106.5t24.5 132q1 13 1 38q0 84 -21 147z" />
    <glyph glyph-name="Ugrave" unicode="&#xd9;" horiz-adv-x="755" 
d="M752 634q-26 -1 -40.5 -6.5t-23.5 -23.5t-11 -57l-13 -250q-9 -164 -88.5 -238.5t-208.5 -74.5q-147 0 -209 74t-62 202q0 22 1 34l13 242q4 68 9 90l-76 -3l4 77h286l-4 -66q-27 -1 -41.5 -6.5t-23.5 -23.5t-11 -57l-14 -275l-1 -26q0 -186 158 -186q80 0 125.5 53.5
t51.5 160.5l14 262q4 68 9 90l-75 -3l3 77h232zM330 854q-17 10 -27.5 25.5t-10.5 32.5q0 16 12 31q16 20 40 20q30 0 57 -27l109 -117l-39 -49z" />
    <glyph glyph-name="Uacute" unicode="&#xda;" horiz-adv-x="755" 
d="M752 634q-26 -1 -40.5 -6.5t-23.5 -23.5t-11 -57l-13 -250q-9 -164 -88.5 -238.5t-208.5 -74.5q-147 0 -209 74t-62 202q0 22 1 34l13 242q4 68 9 90l-76 -3l4 77h286l-4 -66q-27 -1 -41.5 -6.5t-23.5 -23.5t-11 -57l-14 -275l-1 -26q0 -186 158 -186q80 0 125.5 53.5
t51.5 160.5l14 262q4 68 9 90l-75 -3l3 77h232zM357 818l122 118q13 12 28.5 19.5t30.5 7.5q25 0 38 -20q9 -13 9 -28q0 -17 -12.5 -33.5t-31.5 -27.5l-150 -84z" />
    <glyph glyph-name="Ucircumflex" unicode="&#xdb;" horiz-adv-x="755" 
d="M752 634q-26 -1 -40.5 -6.5t-23.5 -23.5t-11 -57l-13 -250q-9 -164 -88.5 -238.5t-208.5 -74.5q-147 0 -209 74t-62 202q0 22 1 34l13 242q4 68 9 90l-76 -3l4 77h286l-4 -66q-27 -1 -41.5 -6.5t-23.5 -23.5t-11 -57l-14 -275l-1 -26q0 -186 158 -186q80 0 125.5 53.5
t51.5 160.5l14 262q4 68 9 90l-75 -3l3 77h232zM432 867l-193 -86l-19 40l212 150h19l188 -150l-28 -42z" />
    <glyph glyph-name="Udieresis" unicode="&#xdc;" horiz-adv-x="755" 
d="M752 634q-26 -1 -40.5 -6.5t-23.5 -23.5t-11 -57l-13 -250q-9 -164 -88.5 -238.5t-208.5 -74.5q-147 0 -209 74t-62 202q0 22 1 34l13 242q4 68 9 90l-76 -3l4 77h286l-4 -66q-27 -1 -41.5 -6.5t-23.5 -23.5t-11 -57l-14 -275l-1 -26q0 -186 158 -186q80 0 125.5 53.5
t51.5 160.5l14 262q4 68 9 90l-75 -3l3 77h232zM297.5 817.5q-17.5 20.5 -17.5 50.5q0 33 21 57t49 24q26 0 42.5 -20.5t16.5 -50.5q0 -33 -20 -57t-49 -24q-25 0 -42.5 20.5zM472 817.5q-17 20.5 -17 50.5q0 33 20.5 57t48.5 24q26 0 42.5 -20.5t16.5 -50.5q0 -33 -20 -57
t-48 -24q-26 0 -43 20.5z" />
    <glyph glyph-name="Yacute" unicode="&#xdd;" horiz-adv-x="665" 
d="M681 634q-35 -5 -61 -28.5t-58 -78.5l-144 -250l-5 -113q-3 -57 -9 -90q32 3 80 3l-4 -77h-290l4 66q27 1 41.5 6.5t23.5 23.5t11 57l4 87l-169 291q-14 24 -24 51.5t-9 43.5l-49 -3l4 77h292l-3 -66q-34 2 -54 -8.5t-20 -32.5q0 -14 11 -36l70 -125q2 -5 20 -39t25 -58
h2q13 27 20 38l31 60l58 102q11 20 28 48.5t29 42.5v1l-52 -3l-25 -1l4 77h221zM312 818l122 118q13 12 28.5 19.5t30.5 7.5q25 0 38 -20q9 -13 9 -28q0 -17 -12.5 -33.5t-31.5 -27.5l-150 -84z" />
    <glyph glyph-name="Thorn" unicode="&#xde;" horiz-adv-x="630" 
d="M353 634q-24 -1 -37.5 -5t-23 -17.5t-13.5 -41.5l60 1q280 3 280 -190q0 -14 -1 -22q-5 -55 -40 -101t-100.5 -75t-156.5 -31l-35 -1l-30 1q-3 -48 -7 -78q31 3 75 3l-4 -77h-285l4 66q26 1 40.5 6.5t23.5 23.5t11 57l20 383q3 57 9 90l-75 -3l4 77h284zM275 500
l-15 -275q24 -2 37 -2q86 0 126.5 39t40.5 119q0 75 -39.5 97t-91.5 22h-58z" />
    <glyph glyph-name="germandbls" unicode="&#xdf;" horiz-adv-x="671" 
d="M535 729q67 -31 67 -111q0 -48 -28.5 -80t-81.5 -69q-36 -26 -52 -41.5t-16 -34.5q0 -15 3.5 -25t21 -24.5t55.5 -36.5q47 -27 75 -47t48.5 -49.5t20.5 -67.5q0 -44 -25.5 -79.5t-71 -55t-102.5 -19.5q-74 0 -124 32t-50 84q0 30 18.5 50t45.5 20t44 -18t17 -44
q0 -15 -6 -30q5 -10 24 -19t34 -9q74 0 74 62q0 25 -22.5 43t-73.5 48q-69 39 -97.5 70.5t-28.5 68.5q0 43 25 72.5t74 66.5q45 34 66.5 58.5t21.5 59.5q0 47 -28 65.5t-68 18.5q-84 0 -117.5 -65.5t-42.5 -167.5l-38 -466q-30 -260 -217 -260q-45 0 -70 19.5t-25 52.5
q0 22 15.5 42.5t44.5 20.5q21 0 36.5 -15t15.5 -38l-1 -9q6 -2 13 -2q30 0 42 51.5t20 137.5q8 87 19 255l14 184l-80 -1l9 73h80q16 141 91 200.5t177 59.5q87 0 154 -31z" />
    <glyph glyph-name="agrave" unicode="&#xe0;" horiz-adv-x="549" 
d="M471 490l-8 -53q-2 -18 -20 -146t-18 -180q0 -29 14 -29q29 0 51 79l54 -16q-11 -57 -45.5 -106.5t-93.5 -49.5q-80 0 -80 91q0 35 4 58h-1q-34 -82 -77 -115.5t-93 -33.5q-58 0 -95.5 46.5t-37.5 135.5q0 93 36 170.5t104.5 123.5t161.5 46q55 0 144 -21zM197 372.5
q-35 -72.5 -35 -206.5q0 -41 10 -64.5t28 -23.5q34 0 62.5 56.5t46.5 140.5t22 164q-21 6 -41 6q-58 0 -93 -72.5zM247 672q-11 12 -18 27t-7 29q0 24 19 42q18 12 35 12q16 0 30.5 -9.5t24.5 -26.5l78 -140l-48 -41z" />
    <glyph glyph-name="aacute" unicode="&#xe1;" horiz-adv-x="549" 
d="M471 490l-8 -53q-2 -18 -20 -146t-18 -180q0 -29 14 -29q29 0 51 79l54 -16q-11 -57 -45.5 -106.5t-93.5 -49.5q-80 0 -80 91q0 35 4 58h-1q-34 -82 -77 -115.5t-93 -33.5q-58 0 -95.5 46.5t-37.5 135.5q0 93 36 170.5t104.5 123.5t161.5 46q55 0 144 -21zM197 372.5
q-35 -72.5 -35 -206.5q0 -41 10 -64.5t28 -23.5q34 0 62.5 56.5t46.5 140.5t22 164q-21 6 -41 6q-58 0 -93 -72.5zM223 606l89 140q11 17 27.5 27t33.5 10q20 0 34 -13q17 -16 17 -39q0 -16 -8 -32.5t-22 -27.5l-127 -106z" />
    <glyph glyph-name="acircumflex" unicode="&#xe2;" horiz-adv-x="549" 
d="M471 490l-8 -53q-2 -18 -20 -146t-18 -180q0 -29 14 -29q29 0 51 79l54 -16q-11 -57 -45.5 -106.5t-93.5 -49.5q-80 0 -80 91q0 35 4 58h-1q-34 -82 -77 -115.5t-93 -33.5q-58 0 -95.5 46.5t-37.5 135.5q0 93 36 170.5t104.5 123.5t161.5 46q55 0 144 -21zM197 372.5
q-35 -72.5 -35 -206.5q0 -41 10 -64.5t28 -23.5q34 0 62.5 56.5t46.5 140.5t22 164q-21 6 -41 6q-58 0 -93 -72.5zM326 671h-1l-136 -100l-35 47l179 165h10l152 -170l-44 -46z" />
    <glyph glyph-name="atilde" unicode="&#xe3;" horiz-adv-x="549" 
d="M471 490l-8 -53q-2 -18 -20 -146t-18 -180q0 -29 14 -29q29 0 51 79l54 -16q-11 -57 -45.5 -106.5t-93.5 -49.5q-80 0 -80 91q0 35 4 58h-1q-34 -82 -77 -115.5t-93 -33.5q-58 0 -95.5 46.5t-37.5 135.5q0 93 36 170.5t104.5 123.5t161.5 46q55 0 144 -21zM197 372.5
q-35 -72.5 -35 -206.5q0 -41 10 -64.5t28 -23.5q34 0 62.5 56.5t46.5 140.5t22 164q-21 6 -41 6q-58 0 -93 -72.5zM147 640q15 44 48 71t67 27q22 0 37 -5.5t32 -15.5q15 -9 26.5 -13t26.5 -4q18 0 34.5 13.5t29.5 37.5l53 -28q-19 -58 -51 -86t-66 -28q-19 0 -34.5 5.5
t-34.5 15.5q-16 8 -27.5 12.5t-23.5 4.5q-15 0 -32.5 -9.5t-31.5 -31.5z" />
    <glyph glyph-name="adieresis" unicode="&#xe4;" horiz-adv-x="549" 
d="M471 490l-8 -53q-2 -18 -20 -146t-18 -180q0 -29 14 -29q29 0 51 79l54 -16q-11 -57 -45.5 -106.5t-93.5 -49.5q-80 0 -80 91q0 35 4 58h-1q-34 -82 -77 -115.5t-93 -33.5q-58 0 -95.5 46.5t-37.5 135.5q0 93 36 170.5t104.5 123.5t161.5 46q55 0 144 -21zM197 372.5
q-35 -72.5 -35 -206.5q0 -41 10 -64.5t28 -23.5q34 0 62.5 56.5t46.5 140.5t22 164q-21 6 -41 6q-58 0 -93 -72.5zM189.5 620q-17.5 20 -17.5 50q0 33 21 57t49 24q26 0 43 -20.5t17 -49.5q0 -34 -20 -57.5t-49 -23.5q-26 0 -43.5 20zM363.5 620q-17.5 20 -17.5 50
q0 33 21 57t49 24q26 0 43 -20.5t17 -49.5q0 -34 -20 -57.5t-49 -23.5q-26 0 -43.5 20z" />
    <glyph glyph-name="aring" unicode="&#xe5;" horiz-adv-x="549" 
d="M471 490l-8 -53q-2 -18 -20 -146t-18 -180q0 -29 14 -29q29 0 51 79l54 -16q-11 -57 -45.5 -106.5t-93.5 -49.5q-80 0 -80 91q0 35 4 58h-1q-34 -82 -77 -115.5t-93 -33.5q-58 0 -95.5 46.5t-37.5 135.5q0 93 36 170.5t104.5 123.5t161.5 46q55 0 144 -21zM197 372.5
q-35 -72.5 -35 -206.5q0 -41 10 -64.5t28 -23.5q34 0 62.5 56.5t46.5 140.5t22 164q-21 6 -41 6q-58 0 -93 -72.5zM239.5 592.5q-34.5 29.5 -34.5 79.5q0 34 17.5 62t46.5 44.5t60 16.5q46 0 79.5 -28t33.5 -80q0 -36 -18.5 -64.5t-47 -44t-58.5 -15.5q-44 0 -78.5 29.5z
M352 639q11 15 11 40q0 28 -10.5 42.5t-26.5 14.5q-16 -1 -27.5 -15t-11.5 -41t10.5 -42t28.5 -15q15 1 26 16z" />
    <glyph glyph-name="ae" unicode="&#xe6;" horiz-adv-x="731" 
d="M648.5 479.5q41.5 -31.5 41.5 -94.5q0 -73 -75.5 -106.5t-194.5 -50.5q0 -78 27 -112.5t65 -34.5q34 0 71 21t62 76l56 -28q-40 -92 -95.5 -126.5t-124.5 -34.5q-47 0 -79 18t-59 54q-73 -70 -184 -72q-67 0 -103.5 34.5t-36.5 89.5q0 92 79 129.5t204 42.5l3 65
q2 41 -12.5 65.5t-48.5 24.5q-45 0 -71 -26q10 -13 10 -40q-2 -24 -19.5 -43.5t-49.5 -19.5q-28 0 -44 18t-16 45q0 38 26.5 69t73.5 49.5t106 18.5q51 0 83.5 -16.5t44.5 -56.5q28 35 67 54t83 19q69 0 110.5 -31.5zM455.5 401.5q-24.5 -43.5 -31.5 -109.5q150 28 150 105
q0 24 -14.5 36t-32.5 12q-47 0 -71.5 -43.5zM150 137q0 -25 17.5 -39.5t40.5 -14.5q25 0 53.5 9t44.5 25q-9 63 -8 107q-148 -16 -148 -87z" />
    <glyph glyph-name="ccedilla" unicode="&#xe7;" horiz-adv-x="468" 
d="M389 478q46 -33 46 -87q0 -31 -17.5 -50t-47.5 -19t-45 19t-15 40q0 25 9 42q-4 9 -17 15.5t-30 6.5q-60 0 -84 -70t-24 -152q0 -75 27 -108.5t65 -33.5q34 0 68.5 23t60.5 81l57 -28q-38 -86 -88.5 -124.5t-113.5 -42.5l-25 -59h1q12 6 34 11t36 5q32 -1 50.5 -17.5
t18.5 -48.5q0 -63 -73 -95.5t-161 -44.5l-5 52q48 9 86.5 23.5t38.5 41.5q0 12 -7.5 17.5t-19.5 5.5q-11 0 -22.5 -4t-19.5 -10l-37 16l33 112q-66 16 -103.5 69t-37.5 143q0 69 28 139.5t84 117.5t134 47q70 0 116 -33z" />
    <glyph glyph-name="egrave" unicode="&#xe8;" horiz-adv-x="470" 
d="M389.5 480q40.5 -31 40.5 -95q0 -73 -76 -110t-190 -53q0 -78 26 -109.5t64 -31.5q34 0 70 20.5t60 75.5l56 -27q-40 -92 -94 -126.5t-122 -34.5q-93 0 -145 55t-52 163q0 70 28 140t85 117t140 47q69 0 109.5 -31zM198.5 399q-24.5 -46 -31.5 -112q76 14 111 42.5
t35 67.5q0 24 -13.5 36t-30.5 12q-46 0 -70.5 -46zM186 672q-11 12 -18 27t-7 29q0 24 19 42q18 12 35 12q16 0 30.5 -9.5t24.5 -26.5l78 -140l-48 -41z" />
    <glyph glyph-name="eacute" unicode="&#xe9;" horiz-adv-x="470" 
d="M389.5 480q40.5 -31 40.5 -95q0 -73 -76 -110t-190 -53q0 -78 26 -109.5t64 -31.5q34 0 70 20.5t60 75.5l56 -27q-40 -92 -94 -126.5t-122 -34.5q-93 0 -145 55t-52 163q0 70 28 140t85 117t140 47q69 0 109.5 -31zM198.5 399q-24.5 -46 -31.5 -112q76 14 111 42.5
t35 67.5q0 24 -13.5 36t-30.5 12q-46 0 -70.5 -46zM162 606l89 140q11 17 27.5 27t33.5 10q20 0 34 -13q17 -16 17 -39q0 -16 -8 -32.5t-22 -27.5l-127 -106z" />
    <glyph glyph-name="ecircumflex" unicode="&#xea;" horiz-adv-x="470" 
d="M389.5 480q40.5 -31 40.5 -95q0 -73 -76 -110t-190 -53q0 -78 26 -109.5t64 -31.5q34 0 70 20.5t60 75.5l56 -27q-40 -92 -94 -126.5t-122 -34.5q-93 0 -145 55t-52 163q0 70 28 140t85 117t140 47q69 0 109.5 -31zM198.5 399q-24.5 -46 -31.5 -112q76 14 111 42.5
t35 67.5q0 24 -13.5 36t-30.5 12q-46 0 -70.5 -46zM265 671h-1l-136 -100l-35 47l179 165h10l152 -170l-44 -46z" />
    <glyph glyph-name="edieresis" unicode="&#xeb;" horiz-adv-x="470" 
d="M389.5 480q40.5 -31 40.5 -95q0 -73 -76 -110t-190 -53q0 -78 26 -109.5t64 -31.5q34 0 70 20.5t60 75.5l56 -27q-40 -92 -94 -126.5t-122 -34.5q-93 0 -145 55t-52 163q0 70 28 140t85 117t140 47q69 0 109.5 -31zM198.5 399q-24.5 -46 -31.5 -112q76 14 111 42.5
t35 67.5q0 24 -13.5 36t-30.5 12q-46 0 -70.5 -46zM128.5 620q-17.5 20 -17.5 50q0 33 21 57t49 24q26 0 43 -20.5t17 -49.5q0 -34 -20 -57.5t-49 -23.5q-26 0 -43.5 20zM302.5 620q-17.5 20 -17.5 50q0 33 21 57t49 24q26 0 43 -20.5t17 -49.5q0 -34 -20 -57.5t-49 -23.5
q-26 0 -43.5 20z" />
    <glyph glyph-name="igrave" unicode="&#xec;" horiz-adv-x="344" 
d="M227.5 481q21.5 -30 21.5 -86q0 -30 -8 -90.5t-10 -77.5q-2 -13 -8 -57.5t-6 -61.5q0 -26 15 -26q27 0 49 79l54 -16q-6 -33 -26 -69t-52 -61.5t-74 -25.5q-53 0 -74.5 28t-21.5 85q0 45 18 159q15 98 15 131q0 26 -16 26q-26 0 -48 -79l-54 16q6 32 26.5 68.5t53 62
t74.5 25.5q50 0 71.5 -30zM108 672q-11 12 -18 27t-7 29q0 24 19 42q18 12 35 12q16 0 30.5 -9.5t24.5 -26.5l78 -140l-48 -41z" />
    <glyph glyph-name="iacute" unicode="&#xed;" horiz-adv-x="344" 
d="M227.5 481q21.5 -30 21.5 -86q0 -30 -8 -90.5t-10 -77.5q-2 -13 -8 -57.5t-6 -61.5q0 -26 15 -26q27 0 49 79l54 -16q-6 -33 -26 -69t-52 -61.5t-74 -25.5q-53 0 -74.5 28t-21.5 85q0 45 18 159q15 98 15 131q0 26 -16 26q-26 0 -48 -79l-54 16q6 32 26.5 68.5t53 62
t74.5 25.5q50 0 71.5 -30zM84 606l89 140q11 17 27.5 27t33.5 10q20 0 34 -13q17 -16 17 -39q0 -16 -8 -32.5t-22 -27.5l-127 -106z" />
    <glyph glyph-name="icircumflex" unicode="&#xee;" horiz-adv-x="344" 
d="M337 613l-44 -46l-113 104h-1l-123 -100l-35 47l169 165h10zM227.5 481q21.5 -30 21.5 -86q0 -30 -8 -90.5t-10 -77.5q-2 -13 -8 -57.5t-6 -61.5q0 -26 15 -26q27 0 49 79l54 -16q-6 -33 -26 -69t-52 -61.5t-74 -25.5q-53 0 -74.5 28t-21.5 85q0 45 18 159q15 98 15 131
q0 26 -16 26q-26 0 -48 -79l-54 16q6 32 26.5 68.5t53 62t74.5 25.5q50 0 71.5 -30z" />
    <glyph glyph-name="idieresis" unicode="&#xef;" horiz-adv-x="344" 
d="M227.5 481q21.5 -30 21.5 -86q0 -30 -8 -90.5t-10 -77.5q-2 -13 -8 -57.5t-6 -61.5q0 -26 15 -26q27 0 49 79l54 -16q-6 -33 -26 -69t-52 -61.5t-74 -25.5q-53 0 -74.5 28t-21.5 85q0 45 18 159q15 98 15 131q0 26 -16 26q-26 0 -48 -79l-54 16q6 32 26.5 68.5t53 62
t74.5 25.5q50 0 71.5 -30zM50.5 620q-17.5 20 -17.5 50q0 33 21 57t49 24q26 0 43 -20.5t17 -49.5q0 -34 -20 -57.5t-49 -23.5q-26 0 -43.5 20zM224.5 620q-17.5 20 -17.5 50q0 33 21 57t49 24q26 0 43 -20.5t17 -49.5q0 -34 -20 -57.5t-49 -23.5q-26 0 -43.5 20z" />
    <glyph glyph-name="eth" unicode="&#xf0;" horiz-adv-x="522" 
d="M345 738l-54 -50q86 -61 135 -157t49 -219q0 -88 -27 -161.5t-82.5 -117.5t-136.5 -44q-87 0 -143.5 56.5t-56.5 175.5q0 63 24 127.5t74.5 108t125.5 43.5q34 0 56 -12t41 -33h1q-5 41 -40 91.5t-69 70.5l-62 -71l-57 53l51 57q-38 23 -88 33l17 71q73 -8 132 -37l55 67
zM189 373q-26 -62 -26 -146q0 -81 18 -126.5t62 -45.5q52 0 76.5 64t24.5 141q0 81 -16 128t-59 47q-54 0 -80 -62z" />
    <glyph glyph-name="ntilde" unicode="&#xf1;" horiz-adv-x="610" 
d="M483 470.5q29 -40.5 29 -113.5q0 -36 -12 -124q-13 -82 -13 -125q0 -26 15 -26q26 0 48 79l54 -16q-6 -33 -25.5 -69t-51.5 -61.5t-74 -25.5q-53 0 -73.5 28t-20.5 85q0 45 14 153q2 17 6.5 58.5t4.5 63.5q0 23 -6.5 32.5t-21.5 9.5q-29 0 -61.5 -57t-54.5 -139t-22 -151
q0 -24 3 -72h-129q-3 28 -3 48q0 32 7 93.5t15 120.5q2 18 8 65.5t6 64.5q0 26 -14 26q-26 0 -48 -79l-55 16q13 60 44.5 108t89.5 48q37 0 60.5 -21t23.5 -70q0 -19 -2.5 -35.5t-3.5 -24.5h1q59 151 171 151q62 0 91 -40.5zM164 640q15 44 48 71t67 27q22 0 37 -5.5
t32 -15.5q15 -9 26.5 -13t26.5 -4q18 0 34.5 13.5t29.5 37.5l53 -28q-19 -58 -51 -86t-66 -28q-19 0 -34.5 5.5t-34.5 15.5q-16 8 -27.5 12.5t-23.5 4.5q-15 0 -32.5 -9.5t-31.5 -31.5z" />
    <glyph glyph-name="ograve" unicode="&#xf2;" horiz-adv-x="515" 
d="M381.5 484.5q45.5 -26.5 72 -77t26.5 -119.5q0 -80 -30.5 -148.5t-87.5 -109.5t-133 -41q-97 0 -149 64t-52 163q0 80 31 147.5t88 107.5t132 40q57 0 102.5 -26.5zM211.5 418q-22.5 -27 -35 -73t-12.5 -101q0 -74 19 -131.5t62 -57.5q34 0 55.5 35t31.5 85.5t10 97.5
q0 69 -18 120.5t-61 51.5q-29 0 -51.5 -27zM196 672q-11 12 -18 27t-7 29q0 24 19 42q18 12 35 12q16 0 30.5 -9.5t24.5 -26.5l78 -140l-48 -41z" />
    <glyph glyph-name="oacute" unicode="&#xf3;" horiz-adv-x="515" 
d="M381.5 484.5q45.5 -26.5 72 -77t26.5 -119.5q0 -80 -30.5 -148.5t-87.5 -109.5t-133 -41q-97 0 -149 64t-52 163q0 80 31 147.5t88 107.5t132 40q57 0 102.5 -26.5zM211.5 418q-22.5 -27 -35 -73t-12.5 -101q0 -74 19 -131.5t62 -57.5q34 0 55.5 35t31.5 85.5t10 97.5
q0 69 -18 120.5t-61 51.5q-29 0 -51.5 -27zM172 606l89 140q11 17 27.5 27t33.5 10q20 0 34 -13q17 -16 17 -39q0 -16 -8 -32.5t-22 -27.5l-127 -106z" />
    <glyph glyph-name="ocircumflex" unicode="&#xf4;" horiz-adv-x="515" 
d="M381.5 484.5q45.5 -26.5 72 -77t26.5 -119.5q0 -80 -30.5 -148.5t-87.5 -109.5t-133 -41q-97 0 -149 64t-52 163q0 80 31 147.5t88 107.5t132 40q57 0 102.5 -26.5zM211.5 418q-22.5 -27 -35 -73t-12.5 -101q0 -74 19 -131.5t62 -57.5q34 0 55.5 35t31.5 85.5t10 97.5
q0 69 -18 120.5t-61 51.5q-29 0 -51.5 -27zM275 671h-1l-136 -100l-35 47l179 165h10l152 -170l-44 -46z" />
    <glyph glyph-name="otilde" unicode="&#xf5;" horiz-adv-x="515" 
d="M381.5 484.5q45.5 -26.5 72 -77t26.5 -119.5q0 -80 -30.5 -148.5t-87.5 -109.5t-133 -41q-97 0 -149 64t-52 163q0 80 31 147.5t88 107.5t132 40q57 0 102.5 -26.5zM211.5 418q-22.5 -27 -35 -73t-12.5 -101q0 -74 19 -131.5t62 -57.5q34 0 55.5 35t31.5 85.5t10 97.5
q0 69 -18 120.5t-61 51.5q-29 0 -51.5 -27zM96 640q15 44 48 71t67 27q22 0 37 -5.5t32 -15.5q15 -9 26.5 -13t26.5 -4q18 0 34.5 13.5t29.5 37.5l53 -28q-19 -58 -51 -86t-66 -28q-19 0 -34.5 5.5t-34.5 15.5q-16 8 -27.5 12.5t-23.5 4.5q-15 0 -32.5 -9.5t-31.5 -31.5z
" />
    <glyph glyph-name="odieresis" unicode="&#xf6;" horiz-adv-x="515" 
d="M381.5 484.5q45.5 -26.5 72 -77t26.5 -119.5q0 -80 -30.5 -148.5t-87.5 -109.5t-133 -41q-97 0 -149 64t-52 163q0 80 31 147.5t88 107.5t132 40q57 0 102.5 -26.5zM211.5 418q-22.5 -27 -35 -73t-12.5 -101q0 -74 19 -131.5t62 -57.5q34 0 55.5 35t31.5 85.5t10 97.5
q0 69 -18 120.5t-61 51.5q-29 0 -51.5 -27zM138.5 620q-17.5 20 -17.5 50q0 33 21 57t49 24q26 0 43 -20.5t17 -49.5q0 -34 -20 -57.5t-49 -23.5q-26 0 -43.5 20zM312.5 620q-17.5 20 -17.5 50q0 33 21 57t49 24q26 0 43 -20.5t17 -49.5q0 -34 -20 -57.5t-49 -23.5
q-26 0 -43.5 20z" />
    <glyph glyph-name="divide" unicode="&#xf7;" horiz-adv-x="276" 
d="M186 178.5q19 -21.5 19 -52.5q0 -34 -21 -58t-54 -24q-32 0 -51 21t-19 53q0 33 23.5 57.5t53.5 24.5t49 -21.5zM196 524.5q19 -21.5 19 -52.5q0 -34 -21 -58t-54 -24q-32 0 -51 21t-19 53q0 33 23.5 57.5t53.5 24.5t49 -21.5z" />
    <glyph glyph-name="oslash" unicode="&#xf8;" horiz-adv-x="515" 
d="M499 521l-63 -85q44 -60 44 -148q0 -80 -30.5 -148.5t-87.5 -109.5t-133 -41q-57 0 -98 23l-65 -89l-53 44l64 90q-49 61 -49 159q0 80 31 147.5t88 107.5t132 40q55 0 97 -24l59 83zM205.5 418q-25.5 -27 -40 -73t-14.5 -101q0 -37 8 -79l167 240q-23 40 -62 40
q-33 0 -58.5 -27zM185 95q25 -40 62 -40q35 0 59 32t36 79t13 93q0 36 -4 67z" />
    <glyph glyph-name="ugrave" unicode="&#xf9;" horiz-adv-x="598" 
d="M224 483q21 -28 21 -85q0 -45 -14 -153q-12 -96 -12 -122q0 -22 6.5 -32t21.5 -10q27 0 58.5 57t53 139.5t21.5 150.5q0 48 -3 72h129q3 -28 3 -48q0 -32 -7 -93.5t-15 -120.5q-15 -109 -15 -130q0 -26 14 -26q26 0 48 79l54 -16q-11 -59 -43 -107.5t-90 -48.5
q-37 0 -60.5 21t-23.5 70q0 18 2 36.5t3 28.5h-1q-59 -156 -164 -156q-62 0 -91 40.5t-29 113.5q0 32 6 74t7 51q13 82 13 124q0 26 -16 26q-26 0 -48 -79l-54 16q6 33 25.5 69t51.5 61.5t74 25.5q53 0 74 -28zM238 672q-11 12 -18 27t-7 29q0 24 19 42q18 12 35 12
q16 0 30.5 -9.5t24.5 -26.5l78 -140l-48 -41z" />
    <glyph glyph-name="uacute" unicode="&#xfa;" horiz-adv-x="598" 
d="M224 483q21 -28 21 -85q0 -45 -14 -153q-12 -96 -12 -122q0 -22 6.5 -32t21.5 -10q27 0 58.5 57t53 139.5t21.5 150.5q0 48 -3 72h129q3 -28 3 -48q0 -32 -7 -93.5t-15 -120.5q-15 -109 -15 -130q0 -26 14 -26q26 0 48 79l54 -16q-11 -59 -43 -107.5t-90 -48.5
q-37 0 -60.5 21t-23.5 70q0 18 2 36.5t3 28.5h-1q-59 -156 -164 -156q-62 0 -91 40.5t-29 113.5q0 32 6 74t7 51q13 82 13 124q0 26 -16 26q-26 0 -48 -79l-54 16q6 33 25.5 69t51.5 61.5t74 25.5q53 0 74 -28zM214 606l89 140q11 17 27.5 27t33.5 10q20 0 34 -13
q17 -16 17 -39q0 -16 -8 -32.5t-22 -27.5l-127 -106z" />
    <glyph glyph-name="ucircumflex" unicode="&#xfb;" horiz-adv-x="598" 
d="M224 483q21 -28 21 -85q0 -45 -14 -153q-12 -96 -12 -122q0 -22 6.5 -32t21.5 -10q27 0 58.5 57t53 139.5t21.5 150.5q0 48 -3 72h129q3 -28 3 -48q0 -32 -7 -93.5t-15 -120.5q-15 -109 -15 -130q0 -26 14 -26q26 0 48 79l54 -16q-11 -59 -43 -107.5t-90 -48.5
q-37 0 -60.5 21t-23.5 70q0 18 2 36.5t3 28.5h-1q-59 -156 -164 -156q-62 0 -91 40.5t-29 113.5q0 32 6 74t7 51q13 82 13 124q0 26 -16 26q-26 0 -48 -79l-54 16q6 33 25.5 69t51.5 61.5t74 25.5q53 0 74 -28zM317 671h-1l-136 -100l-35 47l179 165h10l152 -170l-44 -46z
" />
    <glyph glyph-name="udieresis" unicode="&#xfc;" horiz-adv-x="598" 
d="M224 483q21 -28 21 -85q0 -45 -14 -153q-12 -96 -12 -122q0 -22 6.5 -32t21.5 -10q27 0 58.5 57t53 139.5t21.5 150.5q0 48 -3 72h129q3 -28 3 -48q0 -32 -7 -93.5t-15 -120.5q-15 -109 -15 -130q0 -26 14 -26q26 0 48 79l54 -16q-11 -59 -43 -107.5t-90 -48.5
q-37 0 -60.5 21t-23.5 70q0 18 2 36.5t3 28.5h-1q-59 -156 -164 -156q-62 0 -91 40.5t-29 113.5q0 32 6 74t7 51q13 82 13 124q0 26 -16 26q-26 0 -48 -79l-54 16q6 33 25.5 69t51.5 61.5t74 25.5q53 0 74 -28zM180.5 620q-17.5 20 -17.5 50q0 33 21 57t49 24q26 0 43 -20.5
t17 -49.5q0 -34 -20 -57.5t-49 -23.5q-26 0 -43.5 20zM354.5 620q-17.5 20 -17.5 50q0 33 21 57t49 24q26 0 43 -20.5t17 -49.5q0 -34 -20 -57.5t-49 -23.5q-26 0 -43.5 20z" />
    <glyph glyph-name="yacute" unicode="&#xfd;" horiz-adv-x="561" 
d="M494.5 470q25.5 -41 25.5 -99q0 -96 -60.5 -252t-152.5 -273t-184 -117q-45 0 -70 21.5t-25 56.5q0 31 19.5 50.5t44.5 19.5q26 0 41.5 -14t19.5 -40q3 -1 10 -1q31 0 67.5 40.5t53.5 76.5q-24 151 -143 425q-12 25 -22.5 39.5t-24.5 14.5q-37 0 -45 -75l-56 8
q6 58 42 109t107 51q79 0 123 -104q77 -187 102 -334h1q60 134 68 243q3 52 -12 70q-5 -1 -14 -1q-25 0 -43 17t-18 41q0 32 21 50t48 18q51 0 76.5 -41zM179 606l89 140q11 17 27.5 27t33.5 10q20 0 34 -13q17 -16 17 -39q0 -16 -8 -32.5t-22 -27.5l-127 -106z" />
    <glyph glyph-name="thorn" unicode="&#xfe;" horiz-adv-x="520" 
d="M205 551q-7 -68 -18 -161h1q62 121 154 121q71 0 106.5 -53t35.5 -137q0 -150 -68.5 -241t-205.5 -91q-24 0 -36 1l-4 -82q-3 -50 -8 -90q33 3 67 3v-76h-254v65q35 0 47.5 22.5t15.5 67.5q8 133 14.5 241.5t12.5 204.5q4 94 12 214l2 29q2 45 5 63l-69 -3l4 76
q62 0 100 9t52 21h54zM217.5 330.5q-30.5 -89.5 -40.5 -268.5q26 -7 46 -7q74 0 99.5 84.5t25.5 180.5q0 51 -15 75.5t-39 24.5q-46 0 -76.5 -89.5z" />
    <glyph glyph-name="ydieresis" unicode="&#xff;" horiz-adv-x="561" 
d="M494.5 470q25.5 -41 25.5 -99q0 -96 -60.5 -252t-152.5 -273t-184 -117q-45 0 -70 21.5t-25 56.5q0 31 19.5 50.5t44.5 19.5q26 0 41.5 -14t19.5 -40q3 -1 10 -1q31 0 67.5 40.5t53.5 76.5q-24 151 -143 425q-12 25 -22.5 39.5t-24.5 14.5q-37 0 -45 -75l-56 8
q6 58 42 109t107 51q79 0 123 -104q77 -187 102 -334h1q60 134 68 243q3 52 -12 70q-5 -1 -14 -1q-25 0 -43 17t-18 41q0 32 21 50t48 18q51 0 76.5 -41zM145.5 620q-17.5 20 -17.5 50q0 33 21 57t49 24q26 0 43 -20.5t17 -49.5q0 -34 -20 -57.5t-49 -23.5q-26 0 -43.5 20z
M319.5 620q-17.5 20 -17.5 50q0 33 21 57t49 24q26 0 43 -20.5t17 -49.5q0 -34 -20 -57.5t-49 -23.5q-26 0 -43.5 20z" />
    <glyph glyph-name="Amacron" unicode="&#x100;" horiz-adv-x="667" 
d="M569 173q21 -70 23 -99q32 3 57 3l-3 -77h-268l4 66q51 0 51 43q0 14 -9 45l-17 55l-219 -4l-19 -47q-22 -55 -36 -81q33 3 74 3l-5 -80h-214l4 69q26 0 43.5 15t29 36t29.5 63l223 535h67zM314 542q-8 -39 -46 -132l-51 -130h168l-39 125q-26 88 -31 137h-1zM206 922
h284l-4 -90l-284 -3z" />
    <glyph glyph-name="amacron" unicode="&#x101;" horiz-adv-x="549" 
d="M471 490l-8 -53q-2 -18 -20 -146t-18 -180q0 -29 14 -29q29 0 51 79l54 -16q-11 -57 -45.5 -106.5t-93.5 -49.5q-80 0 -80 91q0 35 4 58h-1q-34 -82 -77 -115.5t-93 -33.5q-58 0 -95.5 46.5t-37.5 135.5q0 93 36 170.5t104.5 123.5t161.5 46q55 0 144 -21zM197 372.5
q-35 -72.5 -35 -206.5q0 -41 10 -64.5t28 -23.5q34 0 62.5 56.5t46.5 140.5t22 164q-21 6 -41 6q-58 0 -93 -72.5zM184 722h284l-4 -90l-284 -3z" />
    <glyph glyph-name="Abreve" unicode="&#x102;" horiz-adv-x="667" 
d="M569 173q21 -70 23 -99q32 3 57 3l-3 -77h-268l4 66q51 0 51 43q0 14 -9 45l-17 55l-219 -4l-19 -47q-22 -55 -36 -81q33 3 74 3l-5 -80h-214l4 69q26 0 43.5 15t29 36t29.5 63l223 535h67zM314 542q-8 -39 -46 -132l-51 -130h168l-39 125q-26 88 -31 137h-1z
M267.896 820q-44.998 33 -69.2969 100l53.9971 29q48.5986 -74 114.296 -74t111.595 74l50.3984 -24q-27.8994 -71 -69.2969 -104.5q-41.3984 -33.5 -97.1963 -33.5q-49.498 0 -94.4961 33z" />
    <glyph glyph-name="abreve" unicode="&#x103;" horiz-adv-x="549" 
d="M471 490l-8 -53q-2 -18 -20 -146t-18 -180q0 -29 14 -29q29 0 51 79l54 -16q-11 -57 -45.5 -106.5t-93.5 -49.5q-80 0 -80 91q0 35 4 58h-1q-34 -82 -77 -115.5t-93 -33.5q-58 0 -95.5 46.5t-37.5 135.5q0 93 36 170.5t104.5 123.5t161.5 46q55 0 144 -21zM197 372.5
q-35 -72.5 -35 -206.5q0 -41 10 -64.5t28 -23.5q34 0 62.5 56.5t46.5 140.5t22 164q-21 6 -41 6q-58 0 -93 -72.5zM234.5 634q-41.5 33 -63.5 101l58 28q19 -33 42 -53t55 -20q57 0 95 74l55 -24q-26 -72 -64 -105.5t-90 -33.5q-46 0 -87.5 33z" />
    <glyph glyph-name="Aogonek" unicode="&#x104;" horiz-adv-x="667" 
d="M569 173q21 -70 23 -99q32 3 57 3l-3 -77h-268l4 66q51 0 51 43q0 14 -9 45l-17 55l-219 -4l-19 -47q-22 -55 -36 -81q33 3 74 3l-5 -80h-214l4 69q26 0 43.5 15t29 36t29.5 63l223 535h67zM314 542q-8 -39 -46 -132l-51 -130h168l-39 125q-26 88 -31 137h-1z
M397.5 -235.5q-27.5 24.5 -27.5 69.5q0 50 33 96t86.5 81.5t115.5 55.5l-4 -62q-54 -21 -93.5 -58.5t-39.5 -77.5q0 -17 11 -27.5t30 -10.5q30 0 64 29l33 -43q-29 -35 -65 -56t-71 -21q-45 0 -72.5 24.5z" />
    <glyph glyph-name="aogonek" unicode="&#x105;" horiz-adv-x="549" 
d="M471 490l-8 -53q-2 -18 -20 -146t-18 -180q0 -29 14 -29q29 0 51 79l54 -16q-11 -57 -45.5 -106.5t-93.5 -49.5q-80 0 -80 91q0 35 4 58h-1q-34 -82 -77 -115.5t-93 -33.5q-58 0 -95.5 46.5t-37.5 135.5q0 93 36 170.5t104.5 123.5t161.5 46q55 0 144 -21zM197 372.5
q-35 -72.5 -35 -206.5q0 -41 10 -64.5t28 -23.5q34 0 62.5 56.5t46.5 140.5t22 164q-21 6 -41 6q-58 0 -93 -72.5zM259.5 -235.5q-27.5 24.5 -27.5 69.5q0 50 33 96t86.5 81.5t115.5 55.5l-4 -62q-54 -21 -93.5 -58.5t-39.5 -77.5q0 -17 11 -27.5t30 -10.5q30 0 64 29
l33 -43q-29 -35 -65 -56t-71 -21q-45 0 -72.5 24.5z" />
    <glyph glyph-name="Cacute" unicode="&#x106;" horiz-adv-x="690" 
d="M493.5 703q45.5 -13 83.5 -36h1l-1 42h77l-12 -233h-66q-9 84 -49.5 128t-110.5 44q-71 0 -121.5 -46t-76 -118.5t-25.5 -152.5q0 -121 53 -196t148 -75q63 0 126.5 31t111.5 93l39 -40q-70 -91 -150.5 -125.5t-158.5 -34.5q-97 0 -171 44t-114 120t-40 170
q0 98 43.5 190t128 150t199.5 58q40 0 85.5 -13zM322 806l89 140q11 17 27.5 27t33.5 10q20 0 34 -13q17 -16 17 -39q0 -16 -8 -32.5t-22 -27.5l-127 -106z" />
    <glyph glyph-name="cacute" unicode="&#x107;" horiz-adv-x="467" 
d="M389 478q46 -33 46 -87q0 -31 -18 -50t-48 -19t-45 19t-15 40q0 23 10 42q-5 9 -18 15.5t-30 6.5q-59 0 -83 -71.5t-24 -153.5q0 -73 27.5 -106t64.5 -33q34 0 68 23t60 81l57 -28q-40 -92 -94.5 -129.5t-123.5 -38.5q-91 1 -143.5 55.5t-52.5 162.5q0 69 28 139.5
t84 117.5t134 47q70 0 116 -33zM183 606l89 140q11 17 27.5 27t33.5 10q20 0 34 -13q17 -16 17 -39q0 -16 -8 -32.5t-22 -27.5l-127 -106z" />
    <glyph glyph-name="Ccircumflex" unicode="&#x108;" horiz-adv-x="690" 
d="M493.5 703q45.5 -13 83.5 -36h1l-1 42h77l-12 -233h-66q-9 84 -49.5 128t-110.5 44q-71 0 -121.5 -46t-76 -118.5t-25.5 -152.5q0 -121 53 -196t148 -75q63 0 126.5 31t111.5 93l39 -40q-70 -91 -150.5 -125.5t-158.5 -34.5q-97 0 -171 44t-114 120t-40 170
q0 98 43.5 190t128 150t199.5 58q40 0 85.5 -13zM433 867l-193 -86l-19 40l212 150h19l188 -150l-28 -42z" />
    <glyph glyph-name="ccircumflex" unicode="&#x109;" horiz-adv-x="467" 
d="M389 478q46 -33 46 -87q0 -31 -18 -50t-48 -19t-45 19t-15 40q0 23 10 42q-5 9 -18 15.5t-30 6.5q-59 0 -83 -71.5t-24 -153.5q0 -73 27.5 -106t64.5 -33q34 0 68 23t60 81l57 -28q-40 -92 -94.5 -129.5t-123.5 -38.5q-91 1 -143.5 55.5t-52.5 162.5q0 69 28 139.5
t84 117.5t134 47q70 0 116 -33zM286 671h-1l-136 -100l-35 47l179 165h10l152 -170l-44 -46z" />
    <glyph glyph-name="Cdotaccent" unicode="&#x10a;" horiz-adv-x="690" 
d="M493.5 703q45.5 -13 83.5 -36h1l-1 42h77l-12 -233h-66q-9 84 -49.5 128t-110.5 44q-71 0 -121.5 -46t-76 -118.5t-25.5 -152.5q0 -121 53 -196t148 -75q63 0 126.5 31t111.5 93l39 -40q-70 -91 -150.5 -125.5t-158.5 -34.5q-97 0 -171 44t-114 120t-40 170
q0 98 43.5 190t128 150t199.5 58q40 0 85.5 -13zM473 933.5q18 -19.5 18 -48.5q0 -31 -20 -53.5t-50 -22.5q-29 0 -46.5 19.5t-17.5 48.5q0 31 21.5 53.5t49.5 22.5q27 0 45 -19.5z" />
    <glyph glyph-name="cdotaccent" unicode="&#x10b;" horiz-adv-x="467" 
d="M389 478q46 -33 46 -87q0 -31 -18 -50t-48 -19t-45 19t-15 40q0 23 10 42q-5 9 -18 15.5t-30 6.5q-59 0 -83 -71.5t-24 -153.5q0 -73 27.5 -106t64.5 -33q34 0 68 23t60 81l57 -28q-40 -92 -94.5 -129.5t-123.5 -38.5q-91 1 -143.5 55.5t-52.5 162.5q0 69 28 139.5
t84 117.5t134 47q70 0 116 -33zM334 733.5q18 -19.5 18 -48.5q0 -31 -20 -53.5t-50 -22.5q-29 0 -46.5 19.5t-17.5 48.5q0 31 21.5 53.5t49.5 22.5q27 0 45 -19.5z" />
    <glyph glyph-name="Ccaron" unicode="&#x10c;" horiz-adv-x="690" 
d="M493.5 703q45.5 -13 83.5 -36h1l-1 42h77l-12 -233h-66q-9 84 -49.5 128t-110.5 44q-71 0 -121.5 -46t-76 -118.5t-25.5 -152.5q0 -121 53 -196t148 -75q63 0 126.5 31t111.5 93l39 -40q-70 -91 -150.5 -125.5t-158.5 -34.5q-97 0 -171 44t-114 120t-40 170
q0 98 43.5 190t128 150t199.5 58q40 0 85.5 -13zM409 770l-187 151l28 41l180 -87l191 87l20 -40l-212 -152h-20z" />
    <glyph glyph-name="ccaron" unicode="&#x10d;" horiz-adv-x="467" 
d="M389 478q46 -33 46 -87q0 -31 -18 -50t-48 -19t-45 19t-15 40q0 23 10 42q-5 9 -18 15.5t-30 6.5q-59 0 -83 -71.5t-24 -153.5q0 -73 27.5 -106t64.5 -33q34 0 68 23t60 81l57 -28q-40 -92 -94.5 -129.5t-123.5 -38.5q-91 1 -143.5 55.5t-52.5 162.5q0 69 28 139.5
t84 117.5t134 47q70 0 116 -33zM116 739l42 47l127 -105h1l130 107l36 -45l-172 -173h-10z" />
    <glyph glyph-name="Dcaron" unicode="&#x10e;" horiz-adv-x="755" 
d="M563.5 655q81.5 -46 120.5 -121t39 -160q0 -89 -43 -175t-134 -142.5t-227 -56.5h-284l4 66q26 1 40.5 6.5t23.5 23.5t11 57l20 383q3 57 9 90l-75 -3l4 77l289 1q121 0 202.5 -46zM295.5 617q-15.5 -17 -18.5 -68l-20 -385q-4 -65 -8 -90q5 1 19 1l43 -1q13 -1 33 -1
q70 0 119 37t74.5 96.5t28.5 129.5q1 12 1 34q0 135 -58 199.5t-164 64.5q-34 0 -49.5 -17zM383 770l-187 151l28 41l180 -87l191 87l20 -40l-212 -152h-20z" />
    <glyph glyph-name="dcaron" unicode="&#x10f;" horiz-adv-x="653" 
d="M473 435l-13 -117q-20 -162 -20 -207q0 -29 15 -29q26 0 48 79l55 -16q-12 -59 -45 -107.5t-91 -48.5q-80 0 -80 91q0 29 4 60h-1q-33 -81 -78 -116t-91 -35q-73 0 -110.5 53t-37.5 138q0 150 69.5 240.5t207.5 90.5q28 0 48 -2l5 50q5 59 11 93l-70 -3l4 76q63 0 101 9
t52 21h54zM191 360q-27 -85 -27 -179q0 -50 13 -75.5t36 -25.5q51 0 85 100t47 257q-6 3 -23 5.5t-30 2.5q-74 0 -101 -85zM557 572q39 71 39 134q0 34 -12 79l89 -17q14 -28 14 -50q0 -44 -25.5 -90t-65.5 -85z" />
    <glyph glyph-name="Dcroat" unicode="&#x110;" horiz-adv-x="756" 
d="M564.5 655q81.5 -46 120.5 -121t39 -160q0 -89 -43 -175t-134 -142.5t-227 -56.5h-284l4 66q26 1 40.5 6.5t23.5 23.5t11 57l8 151l-99 -2l5 98h99l7 136q3 57 9 90l-75 -3l4 77l289 1q121 0 202.5 -46zM296.5 617q-15.5 -17 -18.5 -68l-8 -149h102l-5 -91l-102 -2
l-7 -143q-4 -65 -8 -90q5 1 19 1l43 -1q13 -1 33 -1q70 0 119 37t74.5 96.5t28.5 129.5q1 12 1 34q0 135 -58 199.5t-164 64.5q-34 0 -49.5 -17z" />
    <glyph glyph-name="dcroat" unicode="&#x111;" horiz-adv-x="564" 
d="M473 435l-13 -117q-20 -162 -20 -207q0 -29 15 -29q26 0 48 79l55 -16q-12 -59 -45 -107.5t-91 -48.5q-80 0 -80 91q0 29 4 60h-1q-33 -81 -78 -116t-91 -35q-73 0 -110.5 53t-37.5 138q0 150 69.5 240.5t207.5 90.5q28 0 48 -2l4 39l-165 -2l5 72h167q1 8 2 16.5t3 17.5
l-70 -3l4 76q63 0 101 9t52 21h54l-16 -137h70l-4 -68l-74 -1zM298 180q34 100 47 257q-6 3 -23 5.5t-30 2.5q-74 0 -101 -85t-27 -179q0 -50 13 -75.5t36 -25.5q51 0 85 100z" />
    <glyph glyph-name="Emacron" unicode="&#x112;" horiz-adv-x="623" 
d="M565 506h-65q3 74 -31 102.5t-84 26.5l-36 -1q-24 -1 -38.5 -6.5t-23 -24.5t-10.5 -56l-7 -150h117v87h77l-12 -243h-66q2 40 -9.5 59t-31.5 24.5t-53 4.5l-26 -1l-9 -164q-3 -62 -8 -88h134q51 0 88 34.5t41 109.5h66l-17 -220h-526l4 66q26 1 40.5 6.5t23.5 23.5t11 57
l20 383q3 57 9 90l-75 -3l4 77h498zM203 922h284l-4 -90l-284 -3z" />
    <glyph glyph-name="emacron" unicode="&#x113;" horiz-adv-x="470" 
d="M389.5 480q40.5 -31 40.5 -95q0 -73 -76 -110t-190 -53q0 -78 26 -109.5t64 -31.5q34 0 70 20.5t60 75.5l56 -27q-40 -92 -94 -126.5t-122 -34.5q-93 0 -145 55t-52 163q0 70 28 140t85 117t140 47q69 0 109.5 -31zM198.5 399q-24.5 -46 -31.5 -112q76 14 111 42.5
t35 67.5q0 24 -13.5 36t-30.5 12q-46 0 -70.5 -46zM123 722h284l-4 -90l-284 -3z" />
    <glyph glyph-name="Ebreve" unicode="&#x114;" horiz-adv-x="623" 
d="M565 506h-65q3 74 -31 102.5t-84 26.5l-36 -1q-24 -1 -38.5 -6.5t-23 -24.5t-10.5 -56l-7 -150h117v87h77l-12 -243h-66q2 40 -9.5 59t-31.5 24.5t-53 4.5l-26 -1l-9 -164q-3 -62 -8 -88h134q51 0 88 34.5t41 109.5h66l-17 -220h-526l4 66q26 1 40.5 6.5t23.5 23.5t11 57
l20 383q3 57 9 90l-75 -3l4 77h498zM247.5 812.5q-46.5 25.5 -65.5 81.5l60 40q20 -25 47 -40t67 -15t68.5 15t53.5 40l54 -40q-27 -56 -77 -81.5t-105 -25.5q-56 0 -102.5 25.5z" />
    <glyph glyph-name="ebreve" unicode="&#x115;" horiz-adv-x="470" 
d="M389.5 480q40.5 -31 40.5 -95q0 -73 -76 -110t-190 -53q0 -78 26 -109.5t64 -31.5q34 0 70 20.5t60 75.5l56 -27q-40 -92 -94 -126.5t-122 -34.5q-93 0 -145 55t-52 163q0 70 28 140t85 117t140 47q69 0 109.5 -31zM198.5 399q-24.5 -46 -31.5 -112q76 14 111 42.5
t35 67.5q0 24 -13.5 36t-30.5 12q-46 0 -70.5 -46zM181.5 586.5q-41.5 27.5 -63.5 82.5l49 24q21 -27 46 -44t59 -17q59 0 103 61l46 -20q-26 -59 -64 -86.5t-89 -27.5q-45 0 -86.5 27.5z" />
    <glyph glyph-name="Edotaccent" unicode="&#x116;" horiz-adv-x="623" 
d="M565 506h-65q3 74 -31 102.5t-84 26.5l-36 -1q-24 -1 -38.5 -6.5t-23 -24.5t-10.5 -56l-7 -150h117v87h77l-12 -243h-66q2 40 -9.5 59t-31.5 24.5t-53 4.5l-26 -1l-9 -164q-3 -62 -8 -88h134q51 0 88 34.5t41 109.5h66l-17 -220h-526l4 66q26 1 40.5 6.5t23.5 23.5t11 57
l20 383q3 57 9 90l-75 -3l4 77h498zM393 933.5q18 -19.5 18 -48.5q0 -31 -20 -53.5t-50 -22.5q-29 0 -46.5 19.5t-17.5 48.5q0 31 21.5 53.5t49.5 22.5q27 0 45 -19.5z" />
    <glyph glyph-name="edotaccent" unicode="&#x117;" horiz-adv-x="470" 
d="M389.5 480q40.5 -31 40.5 -95q0 -73 -76 -110t-190 -53q0 -78 26 -109.5t64 -31.5q34 0 70 20.5t60 75.5l56 -27q-40 -92 -94 -126.5t-122 -34.5q-93 0 -145 55t-52 163q0 70 28 140t85 117t140 47q69 0 109.5 -31zM198.5 399q-24.5 -46 -31.5 -112q76 14 111 42.5
t35 67.5q0 24 -13.5 36t-30.5 12q-46 0 -70.5 -46zM313 733.5q18 -19.5 18 -48.5q0 -31 -20 -53.5t-50 -22.5q-29 0 -46.5 19.5t-17.5 48.5q0 31 21.5 53.5t49.5 22.5q27 0 45 -19.5z" />
    <glyph glyph-name="Eogonek" unicode="&#x118;" horiz-adv-x="623" 
d="M565 506h-65q3 74 -31 102.5t-84 26.5l-36 -1q-24 -1 -38.5 -6.5t-23 -24.5t-10.5 -56l-7 -150h117v87h77l-12 -243h-66q2 40 -9.5 59t-31.5 24.5t-53 4.5l-26 -1l-9 -164q-3 -62 -8 -88h134q51 0 88 34.5t41 109.5h66l-17 -220h-526l4 66q26 1 40.5 6.5t23.5 23.5t11 57
l20 383q3 57 9 90l-75 -3l4 77h498zM358.5 -235.5q-27.5 24.5 -27.5 69.5q0 50 33 96t86.5 81.5t115.5 55.5l-4 -62q-54 -21 -93.5 -58.5t-39.5 -77.5q0 -17 11 -27.5t30 -10.5q30 0 64 29l33 -43q-29 -35 -65 -56t-71 -21q-45 0 -72.5 24.5z" />
    <glyph glyph-name="eogonek" unicode="&#x119;" horiz-adv-x="470" 
d="M389.5 480q40.5 -31 40.5 -95q0 -73 -76 -110t-190 -53q0 -78 26 -109.5t64 -31.5q34 0 70 20.5t60 75.5l56 -27q-40 -92 -94 -126.5t-122 -34.5q-93 0 -145 55t-52 163q0 70 28 140t85 117t140 47q69 0 109.5 -31zM198.5 399q-24.5 -46 -31.5 -112q76 14 111 42.5
t35 67.5q0 24 -13.5 36t-30.5 12q-46 0 -70.5 -46zM110.5 -235.5q-27.5 24.5 -27.5 69.5q0 50 33 96t86.5 81.5t115.5 55.5l-4 -62q-54 -21 -93.5 -58.5t-39.5 -77.5q0 -17 11 -27.5t30 -10.5q30 0 64 29l33 -43q-29 -35 -65 -56t-71 -21q-45 0 -72.5 24.5z" />
    <glyph glyph-name="Ecaron" unicode="&#x11a;" horiz-adv-x="623" 
d="M565 506h-65q3 74 -31 102.5t-84 26.5l-36 -1q-24 -1 -38.5 -6.5t-23 -24.5t-10.5 -56l-7 -150h117v87h77l-12 -243h-66q2 40 -9.5 59t-31.5 24.5t-53 4.5l-26 -1l-9 -164q-3 -62 -8 -88h134q51 0 88 34.5t41 109.5h66l-17 -220h-526l4 66q26 1 40.5 6.5t23.5 23.5t11 57
l20 383q3 57 9 90l-75 -3l4 77h498zM329 770l-187 151l28 41l180 -87l191 87l20 -40l-212 -152h-20z" />
    <glyph glyph-name="ecaron" unicode="&#x11b;" horiz-adv-x="470" 
d="M389.5 480q40.5 -31 40.5 -95q0 -73 -76 -110t-190 -53q0 -78 26 -109.5t64 -31.5q34 0 70 20.5t60 75.5l56 -27q-40 -92 -94 -126.5t-122 -34.5q-93 0 -145 55t-52 163q0 70 28 140t85 117t140 47q69 0 109.5 -31zM198.5 399q-24.5 -46 -31.5 -112q76 14 111 42.5
t35 67.5q0 24 -13.5 36t-30.5 12q-46 0 -70.5 -46zM95 739l42 47l127 -105h1l130 107l36 -45l-172 -173h-10z" />
    <glyph glyph-name="Gcircumflex" unicode="&#x11c;" horiz-adv-x="756" 
d="M503 703q54 -13 90 -36h1l-1 42h77l-12 -233h-66q-9 81 -56.5 124t-119.5 44q-71 0 -121.5 -45t-76 -117t-25.5 -152q0 -121 51.5 -194t145.5 -73q32 0 75.5 7.5t69.5 19.5l5 93q4 65 8 90q-26 -2 -49 -2l-26 -1l4 77h263l-3 -66q-25 -1 -39 -7t-22 -24.5t-10 -55.5
l-8 -160h-25q-23 0 -45 -5t-60 -16q-51 -14 -86.5 -21.5t-80.5 -7.5q-101 0 -174 43t-111 118t-38 169q0 99 42.5 191.5t126 151.5t199.5 59q43 0 97 -13zM437 867l-193 -86l-19 40l212 150h19l188 -150l-28 -42z" />
    <glyph glyph-name="gcircumflex" unicode="&#x11d;" horiz-adv-x="520" 
d="M387.5 505.5q42.5 -5.5 82.5 -15.5q-5 -94 -14.5 -231.5t-17.5 -218.5q-14 -151 -73.5 -231t-182.5 -80q-76 0 -119.5 27t-43.5 76q0 26 17.5 49.5t49.5 23.5q27 0 45 -17.5t18 -45.5q0 -17 -6 -30q4 -7 19.5 -12t28.5 -5q55 0 78 43t33 129q13 99 34 171h-1
q-35 -82 -77.5 -115.5t-92.5 -33.5q-59 0 -98.5 47t-39.5 135q0 96 31 173t96 122t163 45q28 0 70.5 -5.5zM194.5 373.5q-31.5 -70.5 -31.5 -207.5q0 -40 12 -64t31 -24q34 0 63 56.5t47.5 141t22.5 163.5q-6 2 -20 4t-26 2q-67 -1 -98.5 -71.5zM303 671h-1l-136 -100
l-35 47l179 165h10l152 -170l-44 -46z" />
    <glyph glyph-name="Gbreve" unicode="&#x11e;" horiz-adv-x="756" 
d="M503 703q54 -13 90 -36h1l-1 42h77l-12 -233h-66q-9 81 -56.5 124t-119.5 44q-71 0 -121.5 -45t-76 -117t-25.5 -152q0 -121 51.5 -194t145.5 -73q32 0 75.5 7.5t69.5 19.5l5 93q4 65 8 90q-26 -2 -49 -2l-26 -1l4 77h263l-3 -66q-25 -1 -39 -7t-22 -24.5t-10 -55.5
l-8 -160h-25q-23 0 -45 -5t-60 -16q-51 -14 -86.5 -21.5t-80.5 -7.5q-101 0 -174 43t-111 118t-38 169q0 99 42.5 191.5t126 151.5t199.5 59q43 0 97 -13zM340 820q-50 33 -77 100l60 29q54 -74 127 -74t124 74l56 -24q-31 -71 -77 -104.5t-108 -33.5q-55 0 -105 33z" />
    <glyph glyph-name="gbreve" unicode="&#x11f;" horiz-adv-x="520" 
d="M387.5 505.5q42.5 -5.5 82.5 -15.5q-5 -94 -14.5 -231.5t-17.5 -218.5q-14 -151 -73.5 -231t-182.5 -80q-76 0 -119.5 27t-43.5 76q0 26 17.5 49.5t49.5 23.5q27 0 45 -17.5t18 -45.5q0 -17 -6 -30q4 -7 19.5 -12t28.5 -5q55 0 78 43t33 129q13 99 34 171h-1
q-35 -82 -77.5 -115.5t-92.5 -33.5q-59 0 -98.5 47t-39.5 135q0 96 31 173t96 122t163 45q28 0 70.5 -5.5zM194.5 373.5q-31.5 -70.5 -31.5 -207.5q0 -40 12 -64t31 -24q34 0 63 56.5t47.5 141t22.5 163.5q-6 2 -20 4t-26 2q-67 -1 -98.5 -71.5zM211.5 634
q-41.5 33 -63.5 101l58 28q19 -33 42 -53t55 -20q57 0 95 74l55 -24q-26 -72 -64 -105.5t-90 -33.5q-46 0 -87.5 33z" />
    <glyph glyph-name="Gcommaaccent" unicode="&#x122;" horiz-adv-x="756" 
d="M503 703q54 -13 90 -36h1l-1 42h77l-12 -233h-66q-9 81 -56.5 124t-119.5 44q-71 0 -121.5 -45t-76 -117t-25.5 -152q0 -121 51.5 -194t145.5 -73q32 0 75.5 7.5t69.5 19.5l5 93q4 65 8 90q-26 -2 -49 -2l-26 -1l4 77h263l-3 -66q-25 -1 -39 -7t-22 -24.5t-10 -55.5
l-8 -160h-25q-23 0 -45 -5t-60 -16q-51 -14 -86.5 -21.5t-80.5 -7.5q-101 0 -174 43t-111 118t-38 169q0 99 42.5 191.5t126 151.5t199.5 59q43 0 97 -13zM236 -253q31 47 43 79t12 65q0 13 -4 49l108 24q18 -35 15 -72q-2 -42 -36.5 -92t-85.5 -94z" />
    <glyph glyph-name="gcommaaccent" unicode="&#x123;" horiz-adv-x="520" 
d="M387.5 505.5q42.5 -5.5 82.5 -15.5q-5 -94 -14.5 -231.5t-17.5 -218.5q-14 -151 -73.5 -231t-182.5 -80q-76 0 -119.5 27t-43.5 76q0 26 17.5 49.5t49.5 23.5q27 0 45 -17.5t18 -45.5q0 -17 -6 -30q4 -7 19.5 -12t28.5 -5q55 0 78 43t33 129q13 99 34 171h-1
q-35 -82 -77.5 -115.5t-92.5 -33.5q-59 0 -98.5 47t-39.5 135q0 96 31 173t96 122t163 45q28 0 70.5 -5.5zM194.5 373.5q-31.5 -70.5 -31.5 -207.5q0 -40 12 -64t31 -24q34 0 63 56.5t47.5 141t22.5 163.5q-6 2 -20 4t-26 2q-67 -1 -98.5 -71.5zM400 787q-31 -47 -43 -79
t-12 -65q0 -13 4 -49l-108 -24q-18 35 -15 72q2 42 36.5 92t85.5 94z" />
    <glyph glyph-name="Hcircumflex" unicode="&#x124;" horiz-adv-x="802" 
d="M771 634q-27 -1 -41.5 -6.5t-23.5 -23.5t-11 -57l-20 -383q-3 -57 -9 -90q33 3 75 3l-4 -77h-284l3 66q27 1 41.5 6.5t23.5 23.5t11 57l9 162l-276 -3l-8 -148q-4 -65 -8 -90q31 3 75 3l-4 -77h-285l4 66q26 1 40.5 6.5t23.5 23.5t11 57l20 383q3 57 9 90l-75 -3l4 77
h284l-3 -66q-27 -1 -41.5 -6.5t-23.5 -23.5t-11 -57l-8 -156h275l8 145q4 68 9 90l-76 -3l4 77h285zM439 867l-193 -86l-19 40l212 150h19l188 -150l-28 -42z" />
    <glyph glyph-name="hcircumflex" unicode="&#x125;" horiz-adv-x="574" 
d="M228 700q-10 -88 -18 -149q-3 -29 -10.5 -87t-17.5 -104h1q32 83 76.5 117t94.5 34q62 0 92 -40.5t30 -113.5q0 -36 -12 -124q-13 -82 -13 -125q0 -26 15 -26q26 0 48 79l54 -16q-6 -33 -25.5 -69t-51.5 -61.5t-74 -25.5q-53 0 -74 28t-21 85q0 45 14 153q2 17 6.5 58.5
t4.5 63.5q0 23 -6.5 32.5t-21.5 9.5q-29 0 -62 -57t-55.5 -139.5t-22.5 -150.5q0 -24 3 -72h-128q-3 28 -3 48q0 115 9.5 263t21.5 248q5 57 13 93l-70 -3l4 76q63 0 101 9t51 21h54zM177 876h-1l-136 -100l-35 47l179 165h10l152 -170l-44 -46z" />
    <glyph glyph-name="Hbar" unicode="&#x126;" horiz-adv-x="807" 
d="M729.5 627.5q-14.5 -5.5 -23.5 -23.5t-11 -57v-9h62l-2 -49h-63l-17 -325q-3 -57 -9 -90q33 3 75 3l-4 -77h-284l3 66q27 1 41.5 6.5t23.5 23.5t11 57l9 162l-276 -3l-8 -148q-4 -65 -8 -90q31 3 75 3l-4 -77h-285l4 66q26 1 40.5 6.5t23.5 23.5t11 57l17 332h-81l2 53
h82q3 55 9 88l-75 -3l4 77h284l-3 -66q-27 -1 -41.5 -6.5t-23.5 -23.5t-11 -57v-9h275q4 66 9 88l-76 -3l4 77h285l-3 -66q-27 -1 -41.5 -6.5zM549 488l-275 -2l-5 -95h275z" />
    <glyph glyph-name="hbar" unicode="&#x127;" horiz-adv-x="574" 
d="M568 145q-6 -33 -25.5 -69t-51.5 -61.5t-74 -25.5q-53 0 -74 28t-21 85q0 45 14 153q2 17 6.5 58.5t4.5 63.5q0 23 -6.5 32.5t-21.5 9.5q-29 0 -62 -57t-55.5 -139.5t-22.5 -150.5q0 -24 3 -72h-128q-3 28 -3 48q0 114 9.5 260.5t21.5 247.5l-61 -1l2 53h65q4 32 7 44
l-70 -3l4 76q63 0 101 9t51 21h54l-18 -147h141l-2 -49l-145 -2l-1 -6q-3 -29 -10.5 -87t-17.5 -104h1q32 83 76.5 117t94.5 34q62 0 92 -40.5t30 -113.5q0 -36 -12 -124q-13 -82 -13 -125q0 -26 15 -26q26 0 48 79z" />
    <glyph glyph-name="Itilde" unicode="&#x128;" horiz-adv-x="384" 
d="M353 634q-27 -1 -41.5 -6.5t-23.5 -23.5t-11 -57l-20 -383q-4 -65 -8 -90q31 3 75 3l-4 -77h-285l4 66q26 1 40.5 6.5t23.5 23.5t11 57l20 383q3 57 9 90l-75 -3l4 77h284zM58 840q15 44 48 71t67 27q22 0 37 -5.5t32 -15.5q15 -9 26.5 -13t26.5 -4q18 0 34.5 13.5
t29.5 37.5l53 -28q-19 -58 -51 -86t-66 -28q-19 0 -34.5 5.5t-34.5 15.5q-16 8 -27.5 12.5t-23.5 4.5q-15 0 -32.5 -9.5t-31.5 -31.5z" />
    <glyph glyph-name="itilde" unicode="&#x129;" horiz-adv-x="344" 
d="M227.5 481q21.5 -30 21.5 -86q0 -30 -8 -90.5t-10 -77.5q-2 -13 -8 -57.5t-6 -61.5q0 -26 15 -26q27 0 49 79l54 -16q-6 -33 -26 -69t-52 -61.5t-74 -25.5q-53 0 -74.5 28t-21.5 85q0 45 18 159q15 98 15 131q0 26 -16 26q-26 0 -48 -79l-54 16q6 32 26.5 68.5t53 62
t74.5 25.5q50 0 71.5 -30zM17 640q15 44 48 71t67 27q22 0 37 -5.5t32 -15.5q15 -9 26.5 -13t26.5 -4q18 0 34.5 13.5t29.5 37.5l53 -28q-19 -58 -51 -86t-66 -28q-19 0 -34.5 5.5t-34.5 15.5q-16 8 -27.5 12.5t-23.5 4.5q-15 0 -32.5 -9.5t-31.5 -31.5z" />
    <glyph glyph-name="Imacron" unicode="&#x12a;" horiz-adv-x="384" 
d="M353 634q-27 -1 -41.5 -6.5t-23.5 -23.5t-11 -57l-20 -383q-4 -65 -8 -90q31 3 75 3l-4 -77h-285l4 66q26 1 40.5 6.5t23.5 23.5t11 57l20 383q3 57 9 90l-75 -3l4 77h284zM86 922h284l-4 -90l-284 -3z" />
    <glyph glyph-name="imacron" unicode="&#x12b;" horiz-adv-x="344" 
d="M227.5 481q21.5 -30 21.5 -86q0 -30 -8 -90.5t-10 -77.5q-2 -13 -8 -57.5t-6 -61.5q0 -26 15 -26q27 0 49 79l54 -16q-6 -33 -26 -69t-52 -61.5t-74 -25.5q-53 0 -74.5 28t-21.5 85q0 45 18 159q15 98 15 131q0 26 -16 26q-26 0 -48 -79l-54 16q6 32 26.5 68.5t53 62
t74.5 25.5q50 0 71.5 -30zM45 722h284l-4 -90l-284 -3z" />
    <glyph glyph-name="Ibreve" unicode="&#x12c;" horiz-adv-x="384" 
d="M353 634q-27 -1 -41.5 -6.5t-23.5 -23.5t-11 -57l-20 -383q-4 -65 -8 -90q31 3 75 3l-4 -77h-285l4 66q26 1 40.5 6.5t23.5 23.5t11 57l20 383q3 57 9 90l-75 -3l4 77h284zM130.5 812.5q-46.5 25.5 -65.5 81.5l60 40q20 -25 47 -40t67 -15t68.5 15t53.5 40l54 -40
q-27 -56 -77 -81.5t-105 -25.5q-56 0 -102.5 25.5z" />
    <glyph glyph-name="ibreve" unicode="&#x12d;" horiz-adv-x="344" 
d="M227.5 481q21.5 -30 21.5 -86q0 -30 -8 -90.5t-10 -77.5q-2 -13 -8 -57.5t-6 -61.5q0 -26 15 -26q27 0 49 79l54 -16q-6 -33 -26 -69t-52 -61.5t-74 -25.5q-53 0 -74.5 28t-21.5 85q0 45 18 159q15 98 15 131q0 26 -16 26q-26 0 -48 -79l-54 16q6 32 26.5 68.5t53 62
t74.5 25.5q50 0 71.5 -30zM103.5 586.5q-41.5 27.5 -63.5 82.5l49 24q21 -27 46 -44t59 -17q59 0 103 61l46 -20q-26 -59 -64 -86.5t-89 -27.5q-45 0 -86.5 27.5z" />
    <glyph glyph-name="Iogonek" unicode="&#x12e;" horiz-adv-x="384" 
d="M353 634q-27 -1 -41.5 -6.5t-23.5 -23.5t-11 -57l-20 -383q-4 -65 -8 -90q31 3 75 3l-4 -77h-285l4 66q26 1 40.5 6.5t23.5 23.5t11 57l20 383q3 57 9 90l-75 -3l4 77h284zM115.5 -240.5q-27.5 24.5 -27.5 69.5q0 50 33 96t86.5 81.5t115.5 55.5l-4 -62
q-54 -21 -93.5 -58.5t-39.5 -77.5q0 -17 11 -27.5t30 -10.5q30 0 64 29l33 -43q-29 -35 -65 -56t-71 -21q-45 0 -72.5 24.5z" />
    <glyph glyph-name="iogonek" unicode="&#x12f;" horiz-adv-x="344" 
d="M227.5 481q21.5 -30 21.5 -86q0 -30 -8 -90.5t-10 -77.5q-2 -13 -8 -57.5t-6 -61.5q0 -26 15 -26q27 0 49 79l54 -16q-6 -33 -26 -69t-52 -61.5t-74 -25.5q-53 0 -74.5 28t-21.5 85q0 45 18 159q15 98 15 131q0 26 -16 26q-26 0 -48 -79l-54 16q6 32 26.5 68.5t53 62
t74.5 25.5q50 0 71.5 -30zM235 733.5q18 -19.5 18 -48.5q0 -31 -20 -53.5t-50 -22.5q-29 0 -46.5 19.5t-17.5 48.5q0 31 21.5 53.5t49.5 22.5q27 0 45 -19.5zM93.5 -235.5q-27.5 24.5 -27.5 69.5q0 50 33 96t86.5 81.5t115.5 55.5l-4 -62q-54 -21 -93.5 -58.5t-39.5 -77.5
q0 -17 11 -27.5t30 -10.5q30 0 64 29l33 -43q-29 -35 -65 -56t-71 -21q-45 0 -72.5 24.5z" />
    <glyph glyph-name="Idotaccent" unicode="&#x130;" horiz-adv-x="384" 
d="M353 634q-27 -1 -41.5 -6.5t-23.5 -23.5t-11 -57l-20 -383q-4 -65 -8 -90q31 3 75 3l-4 -77h-285l4 66q26 1 40.5 6.5t23.5 23.5t11 57l20 383q3 57 9 90l-75 -3l4 77h284zM276 933.5q18 -19.5 18 -48.5q0 -31 -20 -53.5t-50 -22.5q-29 0 -46.5 19.5t-17.5 48.5
q0 31 21.5 53.5t49.5 22.5q27 0 45 -19.5z" />
    <glyph glyph-name="dotlessi" unicode="&#x131;" horiz-adv-x="344" 
d="M227.5 481q21.5 -30 21.5 -86q0 -30 -8 -90.5t-10 -77.5q-2 -13 -8 -57.5t-6 -61.5q0 -26 15 -26q27 0 49 79l54 -16q-6 -33 -26 -69t-52 -61.5t-74 -25.5q-53 0 -74.5 28t-21.5 85q0 45 18 159q15 98 15 131q0 26 -16 26q-26 0 -48 -79l-54 16q6 32 26.5 68.5t53 62
t74.5 25.5q50 0 71.5 -30z" />
    <glyph glyph-name="Jcircumflex" unicode="&#x134;" horiz-adv-x="445" 
d="M314 971l151 -157l-44 -46l-123 99l-138 -96l-36 47l174 153h16zM437 634q-27 -1 -41.5 -6.5t-23.5 -23.5t-11 -57l-15 -293q-8 -141 -63 -205.5t-158 -64.5q-58 0 -97 28.5t-39 72.5q0 37 21 63t58 26q31 0 46.5 -18.5t15.5 -46.5q0 -17 -10 -37q3 -9 12 -12.5t17 -3.5
q22 0 34 19t14 60l21 401q3 57 9 90l-80 -3l4 77h289z" />
    <glyph glyph-name="jcircumflex" unicode="&#x135;" horiz-adv-x="325" 
d="M337 613l-44 -46l-113 104h-1l-123 -100l-35 47l169 165h10zM254 395q2 -115 -11 -261q-16 -174 -70 -289.5t-183 -115.5q-45 0 -71.5 20.5t-26.5 53.5q0 22 15 42.5t45 20.5q21 0 37 -15.5t16 -39.5q0 -9 -1 -14q4 -2 15 -2q68 1 96 350q10 147 10 247q0 26 -15 26
q-26 0 -48 -79l-55 16q7 33 26 69t50.5 61.5t73.5 25.5q95 0 97 -116z" />
    <glyph glyph-name="Kcommaaccent" unicode="&#x136;" horiz-adv-x="711" 
d="M681 634q-43 -2 -81.5 -22t-78.5 -80l-104 -154v-1q37 -24 59 -58l94 -145q32 -49 63.5 -78t62.5 -30l-4 -66h-152q-12 1 -42 35t-51 67l-91 144q-38 56 -55 69h-36l-8 -151q-4 -65 -8 -90q31 3 75 3l-4 -77h-285l4 66q26 1 40.5 6.5t23.5 23.5t11 57l20 383q3 57 9 90
l-75 -3l4 77h284l-3 -66q-27 -1 -41.5 -6.5t-23.5 -23.5t-11 -57l-8 -152h73l83 131q27 41 44.5 66t29.5 34v1q-22 -2 -38 -2.5t-25 -1.5l3 77h245zM223 -253q31 47 43 79t12 65q0 13 -4 49l108 24q18 -35 15 -72q-2 -42 -36.5 -92t-85.5 -94z" />
    <glyph glyph-name="kcommaaccent" unicode="&#x137;" horiz-adv-x="518" 
d="M233 697q-15 -104 -23 -176q-5 -51 -20 -130h1q31 62 74 91t86 29q54 0 81 -28t27 -78q0 -34 -19 -70.5t-61.5 -67.5t-109.5 -45v-1q38 -1 57 -18.5t30 -44.5q17 -39 26.5 -54.5t21.5 -15.5q23 0 43 69l54 -17q-13 -61 -47.5 -106t-83.5 -45q-45 0 -72.5 28t-54.5 101
q-17 48 -27 66t-28 14q-6 -27 -9 -64.5t-3 -66.5q0 -40 3 -67h-130q-3 28 -3 49q0 47 11 205.5t30 304.5q5 46 15 93l-72 -3l4 76q63 0 101 9t52 21h54zM271.5 423q-23.5 -22 -44.5 -64t-32 -97q72 0 108 36.5t36 102.5q0 20 -6.5 32t-19.5 12q-18 0 -41.5 -22zM132 -253
q31 47 43 79t12 65q0 13 -4 49l108 24q18 -35 15 -72q-2 -42 -36.5 -92t-85.5 -94z" />
    <glyph glyph-name="Lacute" unicode="&#x139;" horiz-adv-x="606" 
d="M353 634q-27 -1 -41.5 -6.5t-23.5 -23.5t-11 -57l-20 -383q-3 -62 -8 -88h134q60 1 95.5 42.5t39.5 121.5h66l-18 -240h-531l4 66q26 1 40.5 6.5t23.5 23.5t11 57l20 383q3 57 9 90l-75 -3l4 77h284zM146 818l122 118q13 12 28.5 19.5t30.5 7.5q25 0 38 -20q9 -13 9 -28
q0 -17 -12.5 -33.5t-31.5 -27.5l-150 -84z" />
    <glyph glyph-name="lacute" unicode="&#x13a;" horiz-adv-x="303" 
d="M238 710q-3 -24 -6 -50q-27 -238 -41.5 -374t-14.5 -175q0 -29 14 -29q27 0 49 79l54 -16q-16 -64 -52.5 -110t-101.5 -46q-39 0 -64.5 23.5t-25.5 72.5q0 80 10.5 187.5t31.5 286.5q6 53 13 93l-70 -3l4 76q62 0 99.5 9t51.5 21h54q-2 -21 -5 -45zM51 807l89 140
q11 17 27.5 27t33.5 10q20 0 34 -13q17 -16 17 -39q0 -16 -8 -32.5t-22 -27.5l-127 -106z" />
    <glyph glyph-name="Lcommaaccent" unicode="&#x13b;" horiz-adv-x="606" 
d="M353 634q-27 -1 -41.5 -6.5t-23.5 -23.5t-11 -57l-20 -383q-3 -62 -8 -88h134q60 1 95.5 42.5t39.5 121.5h66l-18 -240h-531l4 66q26 1 40.5 6.5t23.5 23.5t11 57l20 383q3 57 9 90l-75 -3l4 77h284zM171 -253q31 47 43 79t12 65q0 13 -4 49l108 24q18 -35 15 -72
q-2 -42 -36.5 -92t-85.5 -94z" />
    <glyph glyph-name="lcommaaccent" unicode="&#x13c;" horiz-adv-x="303" 
d="M238 710q-3 -24 -6 -50q-27 -238 -41.5 -374t-14.5 -175q0 -29 14 -29q27 0 49 79l54 -16q-16 -64 -52.5 -110t-101.5 -46q-39 0 -64.5 23.5t-25.5 72.5q0 80 10.5 187.5t31.5 286.5q6 53 13 93l-70 -3l4 76q62 0 99.5 9t51.5 21h54q-2 -21 -5 -45zM41 -253q31 47 43 79
t12 65q0 13 -4 49l108 24q18 -35 15 -72q-2 -42 -36.5 -92t-85.5 -94z" />
    <glyph glyph-name="Lcaron" unicode="&#x13d;" horiz-adv-x="606" 
d="M353 634q-27 -1 -41.5 -6.5t-23.5 -23.5t-11 -57l-20 -383q-3 -62 -8 -88h134q60 1 95.5 42.5t39.5 121.5h66l-18 -240h-531l4 66q26 1 40.5 6.5t23.5 23.5t11 57l20 383q3 57 9 90l-75 -3l4 77h284zM426 504q39 71 39 134q0 34 -12 79l89 -17q14 -28 14 -50
q0 -44 -25.5 -90t-65.5 -85z" />
    <glyph glyph-name="lcaron" unicode="&#x13e;" horiz-adv-x="303" 
d="M238 710q-3 -24 -6 -50q-27 -238 -41.5 -374t-14.5 -175q0 -29 14 -29q27 0 49 79l54 -16q-16 -64 -52.5 -110t-101.5 -46q-39 0 -64.5 23.5t-25.5 72.5q0 80 10.5 187.5t31.5 286.5q6 53 13 93l-70 -3l4 76q62 0 99.5 9t51.5 21h54q-2 -21 -5 -45zM277 572q39 71 39 134
q0 34 -12 79l89 -17q14 -28 14 -50q0 -44 -25.5 -90t-65.5 -85z" />
    <glyph glyph-name="Ldot" unicode="&#x13f;" horiz-adv-x="600" 
d="M353 634q-27 -1 -41.5 -6.5t-23.5 -23.5t-11 -57l-20 -383q-3 -62 -8 -88h134q60 1 95.5 42.5t39.5 121.5h66l-18 -240h-531l4 66q26 1 40.5 6.5t23.5 23.5t11 57l20 383q3 57 9 90l-75 -3l4 77h284zM456 397.5q19 -21.5 19 -52.5q0 -34 -21 -58t-54 -24q-32 0 -51 21
t-19 53q0 33 23.5 57.5t53.5 24.5t49 -21.5z" />
    <glyph glyph-name="ldot" unicode="&#x140;" horiz-adv-x="449" 
d="M238 710q-3 -24 -6 -50q-27 -238 -41.5 -374t-14.5 -175q0 -29 14 -29q27 0 49 79l54 -16q-16 -64 -52.5 -110t-101.5 -46q-39 0 -64.5 23.5t-25.5 72.5q0 80 10.5 187.5t31.5 286.5q6 53 13 93l-70 -3l4 76q62 0 99.5 9t51.5 21h54q-2 -21 -5 -45zM385 397.5
q19 -21.5 19 -52.5q0 -34 -21 -58t-54 -24q-32 0 -51 21t-19 53q0 33 23.5 57.5t53.5 24.5t49 -21.5z" />
    <glyph glyph-name="Lslash" unicode="&#x141;" horiz-adv-x="606" 
d="M354 634q-27 -1 -41.5 -6.5t-23.5 -23.5t-11 -57l-5 -93l81 58l-6 -111l-80 -57l-10 -180q-3 -62 -8 -88h134q60 1 95.5 42.5t39.5 121.5h66l-18 -240h-531l4 66q26 1 40.5 6.5t23.5 23.5t11 57l5 84l-79 -57l5 112l79 57l10 187q3 57 9 90l-75 -3l4 77h284z" />
    <glyph glyph-name="lslash" unicode="&#x142;" horiz-adv-x="325" 
d="M229 443l69 48l-6 -107l-76 -53q-19 -174 -19 -220q0 -29 14 -29q27 0 49 79l54 -16q-16 -64 -52.5 -110t-101.5 -46q-39 0 -64.5 23.5t-25.5 72.5q0 73 7 150l-74 -50l6 109l78 54l25 211q6 53 13 93l-70 -3l4 76q62 0 99.5 9t51.5 21h54z" />
    <glyph glyph-name="Nacute" unicode="&#x143;" horiz-adv-x="772" 
d="M757 634q-27 -1 -41.5 -6.5t-23.5 -23.5t-11 -57l-30 -557h-85l-298 411q-28 39 -51 75h-1l-14 -312q-3 -57 -9 -90q33 3 76 3l-5 -77h-228l4 66q27 1 41.5 6.5t23.5 23.5t11 57l17 383q3 57 9 90l-76 -3l5 77h157l285 -387q25 -35 65 -96h1l16 319q3 57 9 90l-76 -3
l5 77h227zM309 806l89 140q11 17 27.5 27t33.5 10q20 0 34 -13q17 -16 17 -39q0 -16 -8 -32.5t-22 -27.5l-127 -106z" />
    <glyph glyph-name="nacute" unicode="&#x144;" horiz-adv-x="610" 
d="M483 470.5q29 -40.5 29 -113.5q0 -36 -12 -124q-13 -82 -13 -125q0 -26 15 -26q26 0 48 79l54 -16q-6 -33 -25.5 -69t-51.5 -61.5t-74 -25.5q-53 0 -73.5 28t-20.5 85q0 45 14 153q2 17 6.5 58.5t4.5 63.5q0 23 -6.5 32.5t-21.5 9.5q-29 0 -61.5 -57t-54.5 -139t-22 -151
q0 -24 3 -72h-129q-3 28 -3 48q0 32 7 93.5t15 120.5q2 18 8 65.5t6 64.5q0 26 -14 26q-26 0 -48 -79l-55 16q13 60 44.5 108t89.5 48q37 0 60.5 -21t23.5 -70q0 -19 -2.5 -35.5t-3.5 -24.5h1q59 151 171 151q62 0 91 -40.5zM240 606l89 140q11 17 27.5 27t33.5 10
q20 0 34 -13q17 -16 17 -39q0 -16 -8 -32.5t-22 -27.5l-127 -106z" />
    <glyph glyph-name="Ncommaaccent" unicode="&#x145;" horiz-adv-x="772" 
d="M757 634q-27 -1 -41.5 -6.5t-23.5 -23.5t-11 -57l-30 -557h-85l-298 411q-28 39 -51 75h-1l-14 -312q-3 -57 -9 -90q33 3 76 3l-5 -77h-228l4 66q27 1 41.5 6.5t23.5 23.5t11 57l17 383q3 57 9 90l-76 -3l5 77h157l285 -387q25 -35 65 -96h1l16 319q3 57 9 90l-76 -3
l5 77h227zM254 -253q31 47 43 79t12 65q0 13 -4 49l108 24q18 -35 15 -72q-2 -42 -36.5 -92t-85.5 -94z" />
    <glyph glyph-name="ncommaaccent" unicode="&#x146;" horiz-adv-x="610" 
d="M483 470.5q29 -40.5 29 -113.5q0 -36 -12 -124q-13 -82 -13 -125q0 -26 15 -26q26 0 48 79l54 -16q-6 -33 -25.5 -69t-51.5 -61.5t-74 -25.5q-53 0 -73.5 28t-20.5 85q0 45 14 153q2 17 6.5 58.5t4.5 63.5q0 23 -6.5 32.5t-21.5 9.5q-29 0 -61.5 -57t-54.5 -139t-22 -151
q0 -24 3 -72h-129q-3 28 -3 48q0 32 7 93.5t15 120.5q2 18 8 65.5t6 64.5q0 26 -14 26q-26 0 -48 -79l-55 16q13 60 44.5 108t89.5 48q37 0 60.5 -21t23.5 -70q0 -19 -2.5 -35.5t-3.5 -24.5h1q59 151 171 151q62 0 91 -40.5zM195 -253q31 47 43 79t12 65q0 13 -4 49l108 24
q18 -35 15 -72q-2 -42 -36.5 -92t-85.5 -94z" />
    <glyph glyph-name="Ncaron" unicode="&#x147;" horiz-adv-x="772" 
d="M757 634q-27 -1 -41.5 -6.5t-23.5 -23.5t-11 -57l-30 -557h-85l-298 411q-28 39 -51 75h-1l-14 -312q-3 -57 -9 -90q33 3 76 3l-5 -77h-228l4 66q27 1 41.5 6.5t23.5 23.5t11 57l17 383q3 57 9 90l-76 -3l5 77h157l285 -387q25 -35 65 -96h1l16 319q3 57 9 90l-76 -3
l5 77h227zM396 770l-187 151l28 41l180 -87l191 87l20 -40l-212 -152h-20z" />
    <glyph glyph-name="ncaron" unicode="&#x148;" horiz-adv-x="610" 
d="M483 470.5q29 -40.5 29 -113.5q0 -36 -12 -124q-13 -82 -13 -125q0 -26 15 -26q26 0 48 79l54 -16q-6 -33 -25.5 -69t-51.5 -61.5t-74 -25.5q-53 0 -73.5 28t-20.5 85q0 45 14 153q2 17 6.5 58.5t4.5 63.5q0 23 -6.5 32.5t-21.5 9.5q-29 0 -61.5 -57t-54.5 -139t-22 -151
q0 -24 3 -72h-129q-3 28 -3 48q0 32 7 93.5t15 120.5q2 18 8 65.5t6 64.5q0 26 -14 26q-26 0 -48 -79l-55 16q13 60 44.5 108t89.5 48q37 0 60.5 -21t23.5 -70q0 -19 -2.5 -35.5t-3.5 -24.5h1q59 151 171 151q62 0 91 -40.5zM173 739l42 47l127 -105h1l130 107l36 -45
l-172 -173h-10z" />
    <glyph glyph-name="napostrophe" unicode="&#x149;" horiz-adv-x="610" 
d="M483 470.5q29 -40.5 29 -113.5q0 -36 -12 -124q-13 -82 -13 -125q0 -26 15 -26q26 0 48 79l54 -16q-6 -33 -25.5 -69t-51.5 -61.5t-74 -25.5q-53 0 -73.5 28t-20.5 85q0 45 14 153q2 17 6.5 58.5t4.5 63.5q0 23 -6.5 32.5t-21.5 9.5q-29 0 -61.5 -57t-54.5 -139t-22 -151
q0 -24 3 -72h-129q-3 28 -3 48q0 32 7 93.5t15 120.5q2 18 8 65.5t6 64.5q0 26 -14 26q-26 0 -48 -79l-55 16q13 60 44.5 108t89.5 48q37 0 60.5 -21t23.5 -70q0 -19 -2.5 -35.5t-3.5 -24.5h1q59 151 171 151q62 0 91 -40.5zM228 867.5q21 -26.5 21 -69.5q0 -51 -26 -109.5
t-77 -118.5l-37 28q21 26 42.5 72.5t22.5 85.5q-10 -3 -21 -3q-28 0 -47 15.5t-19 46.5q0 33 22.5 56t55.5 23q42 0 63 -26.5z" />
    <glyph glyph-name="Eng" unicode="&#x14a;" horiz-adv-x="772" 
d="M760 700l-3 -66q-27 -1 -41.5 -6.5t-23.5 -23.5t-11 -57l-27 -504l-2 -39q-6 -141 -54 -205.5t-138 -64.5q-40 0 -72.5 15t-50.5 40.5t-18 55.5q0 36 19 57.5t55 21.5q31 0 46.5 -18.5t15.5 -46.5q0 -17 -10 -37q4 -16 39 -16q36 0 55 19t23 60l5 105h-1l-298 411
q-28 39 -51 75h-1l-14 -312q-3 -57 -9 -90q33 3 76 3l-5 -77h-228l4 66q27 1 41.5 6.5t23.5 23.5t11 57l17 383q3 57 9 90l-76 -3l5 77h157l285 -387q25 -35 65 -96h1l16 319q3 57 9 90l-76 -3l5 77h227z" />
    <glyph glyph-name="eng" unicode="&#x14b;" horiz-adv-x="616" 
d="M556 307q0 -48 -15 -153l-6 -48q-26 -178 -91 -270.5t-181 -92.5q-76 0 -119.5 27t-43.5 76q0 26 17.5 49.5t49.5 23.5q27 0 45 -17.5t18 -45.5q0 -8 -2.5 -17.5t-6.5 -15.5q6 -7 17 -12t23 -5q51 0 91 80t56 220l6 51q2 21 8 80.5t6 89.5q0 47 -10 69.5t-42 22.5
q-39 0 -75.5 -56t-59.5 -138.5t-23 -152.5q0 -24 3 -72h-129q-3 28 -3 48q0 32 7 93.5t15 120.5q2 18 8 65.5t6 64.5q0 26 -14 26q-26 0 -48 -79l-55 16q13 60 44.5 108t89.5 48q37 0 60.5 -21t23.5 -70q0 -19 -2.5 -35.5t-3.5 -24.5h1q32 82 80.5 116.5t100.5 34.5
q154 0 154 -204z" />
    <glyph glyph-name="Omacron" unicode="&#x14c;" horiz-adv-x="762" 
d="M589 665.5q73 -50.5 107 -129t34 -165.5q0 -90 -42 -179.5t-124.5 -148.5t-198.5 -59q-114 0 -187 48t-106 124.5t-33 165.5q0 19 1 28q4 89 47.5 173t125 138.5t193.5 54.5q110 0 183 -50.5zM278 599q-45 -49 -65 -121t-20 -143q0 -68 18.5 -132.5t60 -107.5t106.5 -43
t108.5 42t65 106.5t24.5 132.5q1 12 1 36q0 128 -46 203.5t-137 75.5q-71 0 -116 -49zM259 922h284l-4 -90l-284 -3z" />
    <glyph glyph-name="omacron" unicode="&#x14d;" horiz-adv-x="515" 
d="M381.5 484.5q45.5 -26.5 72 -77t26.5 -119.5q0 -80 -30.5 -148.5t-87.5 -109.5t-133 -41q-97 0 -149 64t-52 163q0 80 31 147.5t88 107.5t132 40q57 0 102.5 -26.5zM211.5 418q-22.5 -27 -35 -73t-12.5 -101q0 -74 19 -131.5t62 -57.5q34 0 55.5 35t31.5 85.5t10 97.5
q0 69 -18 120.5t-61 51.5q-29 0 -51.5 -27zM133 722h284l-4 -90l-284 -3z" />
    <glyph glyph-name="Obreve" unicode="&#x14e;" horiz-adv-x="762" 
d="M589 665.5q73 -50.5 107 -129t34 -165.5q0 -90 -42 -179.5t-124.5 -148.5t-198.5 -59q-114 0 -187 48t-106 124.5t-33 165.5q0 19 1 28q4 89 47.5 173t125 138.5t193.5 54.5q110 0 183 -50.5zM278 599q-45 -49 -65 -121t-20 -143q0 -68 18.5 -132.5t60 -107.5t106.5 -43
t108.5 42t65 106.5t24.5 132.5q1 12 1 36q0 128 -46 203.5t-137 75.5q-71 0 -116 -49zM303.5 812.5q-46.5 25.5 -65.5 81.5l60 40q20 -25 47 -40t67 -15t68.5 15t53.5 40l54 -40q-27 -56 -77 -81.5t-105 -25.5q-56 0 -102.5 25.5z" />
    <glyph glyph-name="obreve" unicode="&#x14f;" horiz-adv-x="515" 
d="M381.5 484.5q45.5 -26.5 72 -77t26.5 -119.5q0 -80 -30.5 -148.5t-87.5 -109.5t-133 -41q-97 0 -149 64t-52 163q0 80 31 147.5t88 107.5t132 40q57 0 102.5 -26.5zM211.5 418q-22.5 -27 -35 -73t-12.5 -101q0 -74 19 -131.5t62 -57.5q34 0 55.5 35t31.5 85.5t10 97.5
q0 69 -18 120.5t-61 51.5q-29 0 -51.5 -27zM191.5 586.5q-41.5 27.5 -63.5 82.5l49 24q21 -27 46 -44t59 -17q59 0 103 61l46 -20q-26 -59 -64 -86.5t-89 -27.5q-45 0 -86.5 27.5z" />
    <glyph glyph-name="Ohungarumlaut" unicode="&#x150;" horiz-adv-x="762" 
d="M589 665.5q73 -50.5 107 -129t34 -165.5q0 -90 -42 -179.5t-124.5 -148.5t-198.5 -59q-114 0 -187 48t-106 124.5t-33 165.5q0 19 1 28q4 89 47.5 173t125 138.5t193.5 54.5q110 0 183 -50.5zM278 599q-45 -49 -65 -121t-20 -143q0 -68 18.5 -132.5t60 -107.5t106.5 -43
t108.5 42t65 106.5t24.5 132.5q1 12 1 36q0 128 -46 203.5t-137 75.5q-71 0 -116 -49zM211 821l89 125q16 21 35 34.5t36 13.5q13 0 24 -9q14 -13 14 -30q0 -16 -10 -33.5t-25 -31.5l-120 -110zM371 828l105 113q18 19 37.5 30.5t36.5 11.5t29 -13q9 -12 9 -26
q0 -17 -13.5 -35.5t-32.5 -31.5l-135 -96z" />
    <glyph glyph-name="ohungarumlaut" unicode="&#x151;" horiz-adv-x="515" 
d="M381.5 484.5q45.5 -26.5 72 -77t26.5 -119.5q0 -80 -30.5 -148.5t-87.5 -109.5t-133 -41q-97 0 -149 64t-52 163q0 80 31 147.5t88 107.5t132 40q57 0 102.5 -26.5zM211.5 418q-22.5 -27 -35 -73t-12.5 -101q0 -74 19 -131.5t62 -57.5q34 0 55.5 35t31.5 85.5t10 97.5
q0 69 -18 120.5t-61 51.5q-29 0 -51.5 -27zM85 621l89 125q16 21 35 34.5t36 13.5q13 0 24 -9q14 -13 14 -30q0 -16 -10 -33.5t-25 -31.5l-120 -110zM245 628l105 113q18 19 37.5 30.5t36.5 11.5t29 -13q9 -12 9 -26q0 -17 -13.5 -35.5t-32.5 -31.5l-135 -96z" />
    <glyph glyph-name="OE" unicode="&#x152;" horiz-adv-x="1015" 
d="M478.5 712q35.5 -4 64.5 -12h418l-4 -194h-66q4 74 -30 102.5t-85 26.5l-36 -1q-24 -1 -38 -6.5t-22.5 -24t-10.5 -56.5l-8 -150h118q-1 20 -0.5 35.5t0.5 25.5v26h77l-13 -243h-66q2 40 -9 59t-31 24.5t-53 4.5l-27 -1l-8 -164q-4 -65 -9 -88h134q51 0 88.5 34.5
t41.5 109.5h66l-18 -220h-445q-63 -18 -145 -16q-97 1 -170.5 44.5t-113.5 118t-40 167.5q0 101 41 193t126 150.5t211 58.5q27 0 62.5 -4zM292.5 601.5q-51.5 -42.5 -75.5 -112t-24 -152.5q0 -127 58 -200.5t163 -73.5q46 0 88 15l24 458q1 44 7 79q-46 29 -111 29
q-78 0 -129.5 -42.5z" />
    <glyph glyph-name="oe" unicode="&#x153;" horiz-adv-x="784" 
d="M703 480q40 -31 40 -95q0 -73 -76 -110t-189 -53q0 -78 25.5 -109.5t63.5 -31.5q35 0 69.5 20.5t58.5 76.5l59 -28q-40 -91 -93.5 -126t-119.5 -35q-40 0 -82.5 21.5t-68.5 73.5h-1q-31 -53 -73.5 -74t-87.5 -21q-98 0 -149 64t-51 163q0 81 29.5 148.5t85 107
t129.5 39.5q44 0 84 -22.5t64 -74.5h1q65 97 172 97q70 0 110 -31zM191 387q-26 -58 -26 -143q0 -76 17.5 -132.5t60.5 -56.5q49 0 71.5 70.5t22.5 150.5q0 69 -17 119t-59 50q-44 0 -70 -58zM512 399.5q-24 -45.5 -31 -112.5q75 14 110 42t35 66q0 25 -13 37.5t-31 12.5
q-46 0 -70 -45.5z" />
    <glyph glyph-name="Racute" unicode="&#x154;" horiz-adv-x="681" 
d="M555.5 658q70.5 -45 70.5 -146q0 -16 -1 -25q-5 -66 -52 -117.5t-133 -75.5v-1q17 -7 35 -24.5t31 -38.5l43 -70q32 -54 53.5 -73.5t53.5 -20.5l-4 -66h-162q-28 21 -69 94l-67 120q-20 36 -39 58h-52l-6 -107q-4 -66 -8 -91q31 3 84 3l-3 -77h-295l4 66q26 1 40.5 6.5
t23.5 23.5t11 57l20 383q3 57 9 90l-75 -3l4 77l282 2q131 1 201.5 -44zM297 617q-17 -15 -20 -64l-10 -205q30 -4 48 -4q86 0 124.5 40t38.5 124q0 76 -40 100t-89 24q-35 0 -52 -15zM252 810l89 140q11 17 27.5 27t33.5 10q20 0 34 -13q17 -16 17 -39q0 -16 -8 -32.5
t-22 -27.5l-127 -106z" />
    <glyph glyph-name="racute" unicode="&#x155;" horiz-adv-x="459" 
d="M442 490q23 -21 23 -55q0 -27 -19 -47.5t-48 -20.5q-23 0 -39.5 14.5t-15.5 37.5q-27 3 -56 -53.5t-48 -140t-19 -153.5q0 -24 3 -72h-131q-3 28 -3 48q0 32 7 93.5t15 120.5q2 18 8 65.5t6 64.5q0 26 -14 26q-26 0 -48 -79l-55 16q13 60 44.5 108t89.5 48q37 0 60.5 -21
t23.5 -70q0 -35 -10 -89h1q37 103 78.5 141.5t85.5 38.5q38 0 61 -21zM149 606l89 140q11 17 27.5 27t33.5 10q20 0 34 -13q17 -16 17 -39q0 -16 -8 -32.5t-22 -27.5l-127 -106z" />
    <glyph glyph-name="Rcommaaccent" unicode="&#x156;" horiz-adv-x="681" 
d="M555.5 658q70.5 -45 70.5 -146q0 -16 -1 -25q-5 -66 -52 -117.5t-133 -75.5v-1q17 -7 35 -24.5t31 -38.5l43 -70q32 -54 53.5 -73.5t53.5 -20.5l-4 -66h-162q-28 21 -69 94l-67 120q-20 36 -39 58h-52l-6 -107q-4 -66 -8 -91q31 3 84 3l-3 -77h-295l4 66q26 1 40.5 6.5
t23.5 23.5t11 57l20 383q3 57 9 90l-75 -3l4 77l282 2q131 1 201.5 -44zM297 617q-17 -15 -20 -64l-10 -205q30 -4 48 -4q86 0 124.5 40t38.5 124q0 76 -40 100t-89 24q-35 0 -52 -15zM208 -253q31 47 43 79t12 65q0 13 -4 49l108 24q18 -35 15 -72q-2 -42 -36.5 -92
t-85.5 -94z" />
    <glyph glyph-name="rcommaaccent" unicode="&#x157;" horiz-adv-x="459" 
d="M442 490q23 -21 23 -55q0 -27 -19 -47.5t-48 -20.5q-23 0 -39.5 14.5t-15.5 37.5q-27 3 -56 -53.5t-48 -140t-19 -153.5q0 -24 3 -72h-131q-3 28 -3 48q0 32 7 93.5t15 120.5q2 18 8 65.5t6 64.5q0 26 -14 26q-26 0 -48 -79l-55 16q13 60 44.5 108t89.5 48q37 0 60.5 -21
t23.5 -70q0 -35 -10 -89h1q37 103 78.5 141.5t85.5 38.5q38 0 61 -21zM71 -253q31 47 43 79t12 65q0 13 -4 49l108 24q18 -35 15 -72q-2 -42 -36.5 -92t-85.5 -94z" />
    <glyph glyph-name="Rcaron" unicode="&#x158;" horiz-adv-x="681" 
d="M555.5 658q70.5 -45 70.5 -146q0 -16 -1 -25q-5 -66 -52 -117.5t-133 -75.5v-1q17 -7 35 -24.5t31 -38.5l43 -70q32 -54 53.5 -73.5t53.5 -20.5l-4 -66h-162q-28 21 -69 94l-67 120q-20 36 -39 58h-52l-6 -107q-4 -66 -8 -91q31 3 84 3l-3 -77h-295l4 66q26 1 40.5 6.5
t23.5 23.5t11 57l20 383q3 57 9 90l-75 -3l4 77l282 2q131 1 201.5 -44zM297 617q-17 -15 -20 -64l-10 -205q30 -4 48 -4q86 0 124.5 40t38.5 124q0 76 -40 100t-89 24q-35 0 -52 -15zM339 774l-187 151l28 41l180 -87l191 87l20 -40l-212 -152h-20z" />
    <glyph glyph-name="rcaron" unicode="&#x159;" horiz-adv-x="459" 
d="M442 490q23 -21 23 -55q0 -27 -19 -47.5t-48 -20.5q-23 0 -39.5 14.5t-15.5 37.5q-27 3 -56 -53.5t-48 -140t-19 -153.5q0 -24 3 -72h-131q-3 28 -3 48q0 32 7 93.5t15 120.5q2 18 8 65.5t6 64.5q0 26 -14 26q-26 0 -48 -79l-55 16q13 60 44.5 108t89.5 48q37 0 60.5 -21
t23.5 -70q0 -35 -10 -89h1q37 103 78.5 141.5t85.5 38.5q38 0 61 -21zM82 739l42 47l127 -105h1l130 107l36 -45l-172 -173h-10z" />
    <glyph glyph-name="Sacute" unicode="&#x15a;" horiz-adv-x="600" 
d="M389 703.5q46 -12.5 76 -35.5h1l-1 41h77l-12 -233h-66q-9 82 -51 125t-111 43q-46 0 -80 -26t-34 -65q0 -42 35.5 -72t118.5 -64q64 -27 110.5 -55t78 -72t28.5 -104q-3 -59 -37.5 -105t-94.5 -71.5t-136 -25.5q-40 0 -86.5 13t-83.5 36h-1l1 -42h-77l12 234h66
q9 -82 56.5 -125.5t119.5 -43.5q54 0 89.5 29t35.5 70q0 31 -21.5 53t-50 36t-81.5 36q-104 42 -159 94.5t-55 136.5q0 48 23.5 94.5t78.5 78.5t142 32q43 0 89 -12.5zM230 806l89 140q11 17 27.5 27t33.5 10q20 0 34 -13q17 -16 17 -39q0 -16 -8 -32.5t-22 -27.5l-127 -106
z" />
    <glyph glyph-name="sacute" unicode="&#x15b;" horiz-adv-x="446" 
d="M313 497.5q39 -13.5 63.5 -38.5t24.5 -58q0 -27 -17.5 -46.5t-45.5 -19.5q-26 0 -43 18t-17 43q0 16 6 29q-8 10 -24 15t-31 5q-24 0 -45.5 -14.5t-21.5 -37.5q0 -15 6.5 -25t25 -23t61.5 -38q51 -29 78.5 -48t49 -48.5t21.5 -67.5q0 -44 -27 -79t-73.5 -55t-103.5 -20
q-74 0 -126.5 32t-52.5 84q0 30 18.5 50t45.5 20t44 -18t17 -44q0 -15 -6 -30q5 -10 26 -19t37 -9q41 0 60 17.5t19 44.5q0 17 -13.5 32t-37.5 30t-50 29q-77 44 -107.5 76.5t-30.5 82.5q0 36 22.5 69t66 54t101.5 21q41 0 80 -13.5zM136 606l89 140q11 17 27.5 27t33.5 10
q20 0 34 -13q17 -16 17 -39q0 -16 -8 -32.5t-22 -27.5l-127 -106z" />
    <glyph glyph-name="Scircumflex" unicode="&#x15c;" horiz-adv-x="600" 
d="M389 703.5q46 -12.5 76 -35.5h1l-1 41h77l-12 -233h-66q-9 82 -51 125t-111 43q-46 0 -80 -26t-34 -65q0 -42 35.5 -72t118.5 -64q64 -27 110.5 -55t78 -72t28.5 -104q-3 -59 -37.5 -105t-94.5 -71.5t-136 -25.5q-40 0 -86.5 13t-83.5 36h-1l1 -42h-77l12 234h66
q9 -82 56.5 -125.5t119.5 -43.5q54 0 89.5 29t35.5 70q0 31 -21.5 53t-50 36t-81.5 36q-104 42 -159 94.5t-55 136.5q0 48 23.5 94.5t78.5 78.5t142 32q43 0 89 -12.5zM341 867l-193 -86l-19 40l212 150h19l188 -150l-28 -42z" />
    <glyph glyph-name="scircumflex" unicode="&#x15d;" horiz-adv-x="446" 
d="M313 497.5q39 -13.5 63.5 -38.5t24.5 -58q0 -27 -17.5 -46.5t-45.5 -19.5q-26 0 -43 18t-17 43q0 16 6 29q-8 10 -24 15t-31 5q-24 0 -45.5 -14.5t-21.5 -37.5q0 -15 6.5 -25t25 -23t61.5 -38q51 -29 78.5 -48t49 -48.5t21.5 -67.5q0 -44 -27 -79t-73.5 -55t-103.5 -20
q-74 0 -126.5 32t-52.5 84q0 30 18.5 50t45.5 20t44 -18t17 -44q0 -15 -6 -30q5 -10 26 -19t37 -9q41 0 60 17.5t19 44.5q0 17 -13.5 32t-37.5 30t-50 29q-77 44 -107.5 76.5t-30.5 82.5q0 36 22.5 69t66 54t101.5 21q41 0 80 -13.5zM239 671h-1l-136 -100l-35 47l179 165
h10l152 -170l-44 -46z" />
    <glyph glyph-name="Scedilla" unicode="&#x15e;" horiz-adv-x="600" 
d="M389 703.5q46 -12.5 76 -35.5h1l-1 41h77l-12 -233h-66q-9 82 -51 125t-111 43q-46 0 -80 -26t-34 -65q0 -42 35.5 -72t118.5 -64q64 -27 110.5 -55t78 -72t28.5 -104q-3 -59 -37.5 -105t-94.5 -71.5t-136 -25.5q-40 0 -86.5 13t-83.5 36h-1l1 -42h-77l12 234h66
q9 -82 56.5 -125.5t119.5 -43.5q54 0 89.5 29t35.5 70q0 31 -21.5 53t-50 36t-81.5 36q-104 42 -159 94.5t-55 136.5q0 48 23.5 94.5t78.5 78.5t142 32q43 0 89 -12.5zM212 -207q125 23 125 65q0 12 -7.5 17.5t-19.5 5.5q-11 0 -22.5 -4t-19.5 -10l-37 16l38 127h76l-33 -79
h1q12 6 33.5 11t35.5 5q31 -1 50 -17t19 -47q0 -64 -72.5 -97t-161.5 -45z" />
    <glyph glyph-name="scedilla" unicode="&#x15f;" horiz-adv-x="446" 
d="M313 497.5q39 -13.5 63.5 -38.5t24.5 -58q0 -27 -17.5 -46.5t-45.5 -19.5q-26 0 -43 18t-17 43q0 16 6 29q-8 10 -24 15t-31 5q-24 0 -45.5 -14.5t-21.5 -37.5q0 -15 6.5 -25t25 -23t61.5 -38q51 -29 78.5 -48t49 -48.5t21.5 -67.5q0 -44 -27 -79t-73.5 -55t-103.5 -20
q-74 0 -126.5 32t-52.5 84q0 30 18.5 50t45.5 20t44 -18t17 -44q0 -15 -6 -30q5 -10 26 -19t37 -9q41 0 60 17.5t19 44.5q0 17 -13.5 32t-37.5 30t-50 29q-77 44 -107.5 76.5t-30.5 82.5q0 36 22.5 69t66 54t101.5 21q41 0 80 -13.5zM104 -207q125 23 125 65q0 12 -7.5 17.5
t-19.5 5.5q-11 0 -22.5 -4t-19.5 -10l-37 16l38 127h76l-33 -79h1q12 6 33.5 11t35.5 5q31 -1 50 -17t19 -47q0 -64 -72.5 -97t-161.5 -45z" />
    <glyph glyph-name="Scaron" unicode="&#x160;" horiz-adv-x="600" 
d="M389 703.5q46 -12.5 76 -35.5h1l-1 41h77l-12 -233h-66q-9 82 -51 125t-111 43q-46 0 -80 -26t-34 -65q0 -42 35.5 -72t118.5 -64q64 -27 110.5 -55t78 -72t28.5 -104q-3 -59 -37.5 -105t-94.5 -71.5t-136 -25.5q-40 0 -86.5 13t-83.5 36h-1l1 -42h-77l12 234h66
q9 -82 56.5 -125.5t119.5 -43.5q54 0 89.5 29t35.5 70q0 31 -21.5 53t-50 36t-81.5 36q-104 42 -159 94.5t-55 136.5q0 48 23.5 94.5t78.5 78.5t142 32q43 0 89 -12.5zM317 770l-187 151l28 41l180 -87l191 87l20 -40l-212 -152h-20z" />
    <glyph glyph-name="scaron" unicode="&#x161;" horiz-adv-x="446" 
d="M313 497.5q39 -13.5 63.5 -38.5t24.5 -58q0 -27 -17.5 -46.5t-45.5 -19.5q-26 0 -43 18t-17 43q0 16 6 29q-8 10 -24 15t-31 5q-24 0 -45.5 -14.5t-21.5 -37.5q0 -15 6.5 -25t25 -23t61.5 -38q51 -29 78.5 -48t49 -48.5t21.5 -67.5q0 -44 -27 -79t-73.5 -55t-103.5 -20
q-74 0 -126.5 32t-52.5 84q0 30 18.5 50t45.5 20t44 -18t17 -44q0 -15 -6 -30q5 -10 26 -19t37 -9q41 0 60 17.5t19 44.5q0 17 -13.5 32t-37.5 30t-50 29q-77 44 -107.5 76.5t-30.5 82.5q0 36 22.5 69t66 54t101.5 21q41 0 80 -13.5zM69 739l42 47l127 -105h1l130 107
l36 -45l-172 -173h-10z" />
    <glyph glyph-name="uni0162" unicode="&#x162;" horiz-adv-x="648" 
d="M644 474h-66q4 79 -26.5 119.5t-88.5 39.5h-48l-24 -469q-3 -57 -9 -90q32 3 80 3l-4 -77h-290l4 66q27 1 41.5 6.5t23.5 23.5t11 57l25 479h-46q-59 -1 -93.5 -40t-38.5 -118h-66l17 226h604zM222 -207q125 23 125 65q0 12 -7.5 17.5t-19.5 5.5q-11 0 -22.5 -4
t-19.5 -10l-37 16l38 127h76l-33 -79h1q12 6 33.5 11t35.5 5q31 -1 50 -17t19 -47q0 -64 -72.5 -97t-161.5 -45z" />
    <glyph glyph-name="uni0163" unicode="&#x163;" horiz-adv-x="395" 
d="M233 500h125l-6 -69l-125 -2q-10 -79 -18 -162.5t-8 -115.5q0 -27 9.5 -46.5t38.5 -19.5q19 0 44.5 13.5t45.5 49.5l51 -32q-33 -63 -82 -95t-106 -32q-75 0 -102 44t-25 118q6 127 23 277l-80 -1l9 73q70 0 107.5 40t51.5 111h67zM98 -207q125 23 125 65q0 12 -7.5 17.5
t-19.5 5.5q-11 0 -22.5 -4t-19.5 -10l-37 16l38 127h76l-33 -79h1q12 6 33.5 11t35.5 5q31 -1 50 -17t19 -47q0 -64 -72.5 -97t-161.5 -45z" />
    <glyph glyph-name="Tcaron" unicode="&#x164;" horiz-adv-x="648" 
d="M644 474h-66q4 79 -26.5 119.5t-88.5 39.5h-48l-24 -469q-3 -57 -9 -90q32 3 80 3l-4 -77h-290l4 66q27 1 41.5 6.5t23.5 23.5t11 57l25 479h-46q-59 -1 -93.5 -40t-38.5 -118h-66l17 226h604zM336 770l-187 151l28 41l180 -87l191 87l20 -40l-212 -152h-20z" />
    <glyph glyph-name="tcaron" unicode="&#x165;" horiz-adv-x="395" 
d="M233 500h125l-6 -69l-125 -2q-10 -79 -18 -162.5t-8 -115.5q0 -27 9.5 -46.5t38.5 -19.5q19 0 44.5 13.5t45.5 49.5l51 -32q-33 -63 -82 -95t-106 -32q-75 0 -102 44t-25 118q6 127 23 277l-80 -1l9 73q70 0 107.5 40t51.5 111h67zM307 615q39 71 39 134q0 34 -12 79
l89 -17q14 -28 14 -50q0 -44 -25.5 -90t-65.5 -85z" />
    <glyph glyph-name="Tbar" unicode="&#x166;" horiz-adv-x="648" 
d="M644 474h-66q4 79 -26.5 119.5t-88.5 39.5h-48l-24 -469q-3 -57 -9 -90q32 3 80 3l-4 -77h-290l4 66q27 1 41.5 6.5t23.5 23.5t11 57l25 479h-46q-59 -1 -93.5 -40t-38.5 -118h-66l17 226h604zM156 383h340l-4 -63l-340 -3z" />
    <glyph glyph-name="tbar" unicode="&#x167;" horiz-adv-x="395" 
d="M233 500h125l-6 -69l-125 -2q-10 -79 -18 -162.5t-8 -115.5q0 -27 9.5 -46.5t38.5 -19.5q19 0 44.5 13.5t45.5 49.5l51 -32q-33 -63 -82 -95t-106 -32q-75 0 -102 44t-25 118q6 127 23 277l-80 -1l9 73q70 0 107.5 40t51.5 111h67zM10 323h340l-4 -63l-340 -3z" />
    <glyph glyph-name="Utilde" unicode="&#x168;" horiz-adv-x="755" 
d="M752 634q-26 -1 -40.5 -6.5t-23.5 -23.5t-11 -57l-13 -250q-9 -164 -88.5 -238.5t-208.5 -74.5q-147 0 -209 74t-62 202q0 22 1 34l13 242q4 68 9 90l-76 -3l4 77h286l-4 -66q-27 -1 -41.5 -6.5t-23.5 -23.5t-11 -57l-14 -275l-1 -26q0 -186 158 -186q80 0 125.5 53.5
t51.5 160.5l14 262q4 68 9 90l-75 -3l3 77h232zM254 840q15 44 48 71t67 27q22 0 37 -5.5t32 -15.5q15 -9 26.5 -13t26.5 -4q18 0 34.5 13.5t29.5 37.5l53 -28q-19 -58 -51 -86t-66 -28q-19 0 -34.5 5.5t-34.5 15.5q-16 8 -27.5 12.5t-23.5 4.5q-15 0 -32.5 -9.5
t-31.5 -31.5z" />
    <glyph glyph-name="utilde" unicode="&#x169;" horiz-adv-x="598" 
d="M224 483q21 -28 21 -85q0 -45 -14 -153q-12 -96 -12 -122q0 -22 6.5 -32t21.5 -10q27 0 58.5 57t53 139.5t21.5 150.5q0 48 -3 72h129q3 -28 3 -48q0 -32 -7 -93.5t-15 -120.5q-15 -109 -15 -130q0 -26 14 -26q26 0 48 79l54 -16q-11 -59 -43 -107.5t-90 -48.5
q-37 0 -60.5 21t-23.5 70q0 18 2 36.5t3 28.5h-1q-59 -156 -164 -156q-62 0 -91 40.5t-29 113.5q0 32 6 74t7 51q13 82 13 124q0 26 -16 26q-26 0 -48 -79l-54 16q6 33 25.5 69t51.5 61.5t74 25.5q53 0 74 -28zM147 640q15 44 48 71t67 27q22 0 37 -5.5t32 -15.5
q15 -9 26.5 -13t26.5 -4q18 0 34.5 13.5t29.5 37.5l53 -28q-19 -58 -51 -86t-66 -28q-19 0 -34.5 5.5t-34.5 15.5q-16 8 -27.5 12.5t-23.5 4.5q-15 0 -32.5 -9.5t-31.5 -31.5z" />
    <glyph glyph-name="Umacron" unicode="&#x16a;" horiz-adv-x="755" 
d="M752 634q-26 -1 -40.5 -6.5t-23.5 -23.5t-11 -57l-13 -250q-9 -164 -88.5 -238.5t-208.5 -74.5q-147 0 -209 74t-62 202q0 22 1 34l13 242q4 68 9 90l-76 -3l4 77h286l-4 -66q-27 -1 -41.5 -6.5t-23.5 -23.5t-11 -57l-14 -275l-1 -26q0 -186 158 -186q80 0 125.5 53.5
t51.5 160.5l14 262q4 68 9 90l-75 -3l3 77h232zM282 922h284l-4 -90l-284 -3z" />
    <glyph glyph-name="umacron" unicode="&#x16b;" horiz-adv-x="598" 
d="M224 483q21 -28 21 -85q0 -45 -14 -153q-12 -96 -12 -122q0 -22 6.5 -32t21.5 -10q27 0 58.5 57t53 139.5t21.5 150.5q0 48 -3 72h129q3 -28 3 -48q0 -32 -7 -93.5t-15 -120.5q-15 -109 -15 -130q0 -26 14 -26q26 0 48 79l54 -16q-11 -59 -43 -107.5t-90 -48.5
q-37 0 -60.5 21t-23.5 70q0 18 2 36.5t3 28.5h-1q-59 -156 -164 -156q-62 0 -91 40.5t-29 113.5q0 32 6 74t7 51q13 82 13 124q0 26 -16 26q-26 0 -48 -79l-54 16q6 33 25.5 69t51.5 61.5t74 25.5q53 0 74 -28zM175 722h284l-4 -90l-284 -3z" />
    <glyph glyph-name="Ubreve" unicode="&#x16c;" horiz-adv-x="755" 
d="M752 634q-26 -1 -40.5 -6.5t-23.5 -23.5t-11 -57l-13 -250q-9 -164 -88.5 -238.5t-208.5 -74.5q-147 0 -209 74t-62 202q0 22 1 34l13 242q4 68 9 90l-76 -3l4 77h286l-4 -66q-27 -1 -41.5 -6.5t-23.5 -23.5t-11 -57l-14 -275l-1 -26q0 -186 158 -186q80 0 125.5 53.5
t51.5 160.5l14 262q4 68 9 90l-75 -3l3 77h232zM335 820q-50 33 -77 100l60 29q54 -74 127 -74t124 74l56 -24q-31 -71 -77 -104.5t-108 -33.5q-55 0 -105 33z" />
    <glyph glyph-name="ubreve" unicode="&#x16d;" horiz-adv-x="598" 
d="M224 483q21 -28 21 -85q0 -45 -14 -153q-12 -96 -12 -122q0 -22 6.5 -32t21.5 -10q27 0 58.5 57t53 139.5t21.5 150.5q0 48 -3 72h129q3 -28 3 -48q0 -32 -7 -93.5t-15 -120.5q-15 -109 -15 -130q0 -26 14 -26q26 0 48 79l54 -16q-11 -59 -43 -107.5t-90 -48.5
q-37 0 -60.5 21t-23.5 70q0 18 2 36.5t3 28.5h-1q-59 -156 -164 -156q-62 0 -91 40.5t-29 113.5q0 32 6 74t7 51q13 82 13 124q0 26 -16 26q-26 0 -48 -79l-54 16q6 33 25.5 69t51.5 61.5t74 25.5q53 0 74 -28zM225.5 634q-41.5 33 -63.5 101l58 28q19 -33 42 -53t55 -20
q57 0 95 74l55 -24q-26 -72 -64 -105.5t-90 -33.5q-46 0 -87.5 33z" />
    <glyph glyph-name="Uring" unicode="&#x16e;" horiz-adv-x="755" 
d="M752 634q-26 -1 -40.5 -6.5t-23.5 -23.5t-11 -57l-13 -250q-9 -164 -88.5 -238.5t-208.5 -74.5q-147 0 -209 74t-62 202q0 22 1 34l13 242q4 68 9 90l-76 -3l4 77h286l-4 -66q-27 -1 -41.5 -6.5t-23.5 -23.5t-11 -57l-14 -275l-1 -26q0 -186 158 -186q80 0 125.5 53.5
t51.5 160.5l14 262q4 68 9 90l-75 -3l3 77h232zM337.5 792.5q-34.5 29.5 -34.5 79.5q0 34 17.5 62t46.5 44.5t60 16.5q46 0 79.5 -28t33.5 -80q0 -36 -18.5 -64.5t-47 -44t-58.5 -15.5q-44 0 -78.5 29.5zM450 839q11 15 11 40q0 28 -10.5 42.5t-26.5 14.5q-16 -1 -27.5 -15
t-11.5 -41t10.5 -42t28.5 -15q15 1 26 16z" />
    <glyph glyph-name="uring" unicode="&#x16f;" horiz-adv-x="598" 
d="M224 483q21 -28 21 -85q0 -45 -14 -153q-12 -96 -12 -122q0 -22 6.5 -32t21.5 -10q27 0 58.5 57t53 139.5t21.5 150.5q0 48 -3 72h129q3 -28 3 -48q0 -32 -7 -93.5t-15 -120.5q-15 -109 -15 -130q0 -26 14 -26q26 0 48 79l54 -16q-11 -59 -43 -107.5t-90 -48.5
q-37 0 -60.5 21t-23.5 70q0 18 2 36.5t3 28.5h-1q-59 -156 -164 -156q-62 0 -91 40.5t-29 113.5q0 32 6 74t7 51q13 82 13 124q0 26 -16 26q-26 0 -48 -79l-54 16q6 33 25.5 69t51.5 61.5t74 25.5q53 0 74 -28zM230.5 592.5q-34.5 29.5 -34.5 79.5q0 34 17.5 62t46.5 44.5
t60 16.5q46 0 79.5 -28t33.5 -80q0 -36 -18.5 -64.5t-47 -44t-58.5 -15.5q-44 0 -78.5 29.5zM343 639q11 15 11 40q0 28 -10.5 42.5t-26.5 14.5q-16 -1 -27.5 -15t-11.5 -41t10.5 -42t28.5 -15q15 1 26 16z" />
    <glyph glyph-name="Uhungarumlaut" unicode="&#x170;" horiz-adv-x="755" 
d="M752 634q-26 -1 -40.5 -6.5t-23.5 -23.5t-11 -57l-13 -250q-9 -164 -88.5 -238.5t-208.5 -74.5q-147 0 -209 74t-62 202q0 22 1 34l13 242q4 68 9 90l-76 -3l4 77h286l-4 -66q-27 -1 -41.5 -6.5t-23.5 -23.5t-11 -57l-14 -275l-1 -26q0 -186 158 -186q80 0 125.5 53.5
t51.5 160.5l14 262q4 68 9 90l-75 -3l3 77h232zM234 821l89 125q16 21 35 34.5t36 13.5q13 0 24 -9q14 -13 14 -30q0 -16 -10 -33.5t-25 -31.5l-120 -110zM394 828l105 113q18 19 37.5 30.5t36.5 11.5t29 -13q9 -12 9 -26q0 -17 -13.5 -35.5t-32.5 -31.5l-135 -96z" />
    <glyph glyph-name="uhungarumlaut" unicode="&#x171;" horiz-adv-x="598" 
d="M224 483q21 -28 21 -85q0 -45 -14 -153q-12 -96 -12 -122q0 -22 6.5 -32t21.5 -10q27 0 58.5 57t53 139.5t21.5 150.5q0 48 -3 72h129q3 -28 3 -48q0 -32 -7 -93.5t-15 -120.5q-15 -109 -15 -130q0 -26 14 -26q26 0 48 79l54 -16q-11 -59 -43 -107.5t-90 -48.5
q-37 0 -60.5 21t-23.5 70q0 18 2 36.5t3 28.5h-1q-59 -156 -164 -156q-62 0 -91 40.5t-29 113.5q0 32 6 74t7 51q13 82 13 124q0 26 -16 26q-26 0 -48 -79l-54 16q6 33 25.5 69t51.5 61.5t74 25.5q53 0 74 -28zM127 621l89 125q16 21 35 34.5t36 13.5q13 0 24 -9
q14 -13 14 -30q0 -16 -10 -33.5t-25 -31.5l-120 -110zM287 628l105 113q18 19 37.5 30.5t36.5 11.5t29 -13q9 -12 9 -26q0 -17 -13.5 -35.5t-32.5 -31.5l-135 -96z" />
    <glyph glyph-name="Uogonek" unicode="&#x172;" horiz-adv-x="755" 
d="M752 634q-26 -1 -40.5 -6.5t-23.5 -23.5t-11 -57l-13 -250q-9 -164 -88.5 -238.5t-208.5 -74.5q-147 0 -209 74t-62 202q0 22 1 34l13 242q4 68 9 90l-76 -3l4 77h286l-4 -66q-27 -1 -41.5 -6.5t-23.5 -23.5t-11 -57l-14 -275l-1 -26q0 -186 158 -186q80 0 125.5 53.5
t51.5 160.5l14 262q4 68 9 90l-75 -3l3 77h232zM289.5 -235.5q-27.5 24.5 -27.5 69.5q0 50 33 96t86.5 81.5t115.5 55.5l-4 -62q-54 -21 -93.5 -58.5t-39.5 -77.5q0 -17 11 -27.5t30 -10.5q30 0 64 29l33 -43q-29 -35 -65 -56t-71 -21q-45 0 -72.5 24.5z" />
    <glyph glyph-name="uogonek" unicode="&#x173;" horiz-adv-x="598" 
d="M224 483q21 -28 21 -85q0 -45 -14 -153q-12 -96 -12 -122q0 -22 6.5 -32t21.5 -10q27 0 58.5 57t53 139.5t21.5 150.5q0 48 -3 72h129q3 -28 3 -48q0 -32 -7 -93.5t-15 -120.5q-15 -109 -15 -130q0 -26 14 -26q26 0 48 79l54 -16q-11 -59 -43 -107.5t-90 -48.5
q-37 0 -60.5 21t-23.5 70q0 18 2 36.5t3 28.5h-1q-59 -156 -164 -156q-62 0 -91 40.5t-29 113.5q0 32 6 74t7 51q13 82 13 124q0 26 -16 26q-26 0 -48 -79l-54 16q6 33 25.5 69t51.5 61.5t74 25.5q53 0 74 -28zM308.5 -235.5q-27.5 24.5 -27.5 69.5q0 50 33 96t86.5 81.5
t115.5 55.5l-4 -62q-54 -21 -93.5 -58.5t-39.5 -77.5q0 -17 11 -27.5t30 -10.5q30 0 64 29l33 -43q-29 -35 -65 -56t-71 -21q-45 0 -72.5 24.5z" />
    <glyph glyph-name="Ydieresis" unicode="&#x178;" horiz-adv-x="665" 
d="M681 634q-35 -5 -61 -28.5t-58 -78.5l-144 -250l-5 -113q-3 -57 -9 -90q32 3 80 3l-4 -77h-290l4 66q27 1 41.5 6.5t23.5 23.5t11 57l4 87l-169 291q-14 24 -24 51.5t-9 43.5l-49 -3l4 77h292l-3 -66q-34 2 -54 -8.5t-20 -32.5q0 -14 11 -36l70 -125q2 -5 20 -39t25 -58
h2q13 27 20 38l31 60l58 102q11 20 28 48.5t29 42.5v1l-52 -3l-25 -1l4 77h221zM252.5 817.5q-17.5 20.5 -17.5 50.5q0 33 21 57t49 24q26 0 42.5 -20.5t16.5 -50.5q0 -33 -20 -57t-49 -24q-25 0 -42.5 20.5zM427 817.5q-17 20.5 -17 50.5q0 33 20.5 57t48.5 24
q26 0 42.5 -20.5t16.5 -50.5q0 -33 -20 -57t-48 -24q-26 0 -43 20.5z" />
    <glyph glyph-name="Zacute" unicode="&#x179;" horiz-adv-x="603" 
d="M576 625l-311 -436q-52 -73 -92 -118l-1 -1l183 -4q59 -1 94.5 34.5t39.5 113.5h66l-17 -214h-513l4 75l324 456q41 60 74 98l1 1l-172 5q-59 2 -94.5 -34t-39.5 -114h-66l17 213h507zM229 806l89 140q11 17 27.5 27t33.5 10q20 0 34 -13q17 -16 17 -39q0 -16 -8 -32.5
t-22 -27.5l-127 -106z" />
    <glyph glyph-name="zacute" unicode="&#x17a;" horiz-adv-x="491" 
d="M464 471l-149 -191q-56 -71 -100.5 -113t-101.5 -89h1q37 30 67 40.5t58 10.5q29 0 65 -14q29 -11 49 -11q19 0 29.5 13t10.5 34q0 17 -8 38l51 17q14 -42 14 -76q0 -58 -32.5 -99.5t-90.5 -41.5q-31 0 -95 15q-5 1 -37.5 8t-58.5 7q-41 0 -75 -30l-43 40q32 47 88 117.5
t107 129.5q32 37 55.5 60.5t53.5 49.5q15 12 41 37h-1q-37 -31 -65 -42.5t-54 -11.5q-14 0 -29 4t-28 9t-26 8.5t-26 3.5q-19 0 -30 -14.5t-11 -36.5q0 -17 6 -34l-50 -17q-12 32 -12 78q0 58 32.5 99.5t90.5 41.5q32 0 90 -15q5 -1 35 -8t56 -7q46 0 80 30zM157 606l89 140
q11 17 27.5 27t33.5 10q20 0 34 -13q17 -16 17 -39q0 -16 -8 -32.5t-22 -27.5l-127 -106z" />
    <glyph glyph-name="Zdotaccent" unicode="&#x17b;" horiz-adv-x="603" 
d="M576 625l-311 -436q-52 -73 -92 -118l-1 -1l183 -4q59 -1 94.5 34.5t39.5 113.5h66l-17 -214h-513l4 75l324 456q41 60 74 98l1 1l-172 5q-59 2 -94.5 -34t-39.5 -114h-66l17 213h507zM380 933.5q18 -19.5 18 -48.5q0 -31 -20 -53.5t-50 -22.5q-29 0 -46.5 19.5
t-17.5 48.5q0 31 21.5 53.5t49.5 22.5q27 0 45 -19.5z" />
    <glyph glyph-name="zdotaccent" unicode="&#x17c;" horiz-adv-x="491" 
d="M464 471l-149 -191q-56 -71 -100.5 -113t-101.5 -89h1q37 30 67 40.5t58 10.5q29 0 65 -14q29 -11 49 -11q19 0 29.5 13t10.5 34q0 17 -8 38l51 17q14 -42 14 -76q0 -58 -32.5 -99.5t-90.5 -41.5q-31 0 -95 15q-5 1 -37.5 8t-58.5 7q-41 0 -75 -30l-43 40q32 47 88 117.5
t107 129.5q32 37 55.5 60.5t53.5 49.5q15 12 41 37h-1q-37 -31 -65 -42.5t-54 -11.5q-14 0 -29 4t-28 9t-26 8.5t-26 3.5q-19 0 -30 -14.5t-11 -36.5q0 -17 6 -34l-50 -17q-12 32 -12 78q0 58 32.5 99.5t90.5 41.5q32 0 90 -15q5 -1 35 -8t56 -7q46 0 80 30zM308 733.5
q18 -19.5 18 -48.5q0 -31 -20 -53.5t-50 -22.5q-29 0 -46.5 19.5t-17.5 48.5q0 31 21.5 53.5t49.5 22.5q27 0 45 -19.5z" />
    <glyph glyph-name="Zcaron" unicode="&#x17d;" horiz-adv-x="603" 
d="M576 625l-311 -436q-52 -73 -92 -118l-1 -1l183 -4q59 -1 94.5 34.5t39.5 113.5h66l-17 -214h-513l4 75l324 456q41 60 74 98l1 1l-172 5q-59 2 -94.5 -34t-39.5 -114h-66l17 213h507zM316 770l-187 151l28 41l180 -87l191 87l20 -40l-212 -152h-20z" />
    <glyph glyph-name="zcaron" unicode="&#x17e;" horiz-adv-x="491" 
d="M464 471l-149 -191q-56 -71 -100.5 -113t-101.5 -89h1q37 30 67 40.5t58 10.5q29 0 65 -14q29 -11 49 -11q19 0 29.5 13t10.5 34q0 17 -8 38l51 17q14 -42 14 -76q0 -58 -32.5 -99.5t-90.5 -41.5q-31 0 -95 15q-5 1 -37.5 8t-58.5 7q-41 0 -75 -30l-43 40q32 47 88 117.5
t107 129.5q32 37 55.5 60.5t53.5 49.5q15 12 41 37h-1q-37 -31 -65 -42.5t-54 -11.5q-14 0 -29 4t-28 9t-26 8.5t-26 3.5q-19 0 -30 -14.5t-11 -36.5q0 -17 6 -34l-50 -17q-12 32 -12 78q0 58 32.5 99.5t90.5 41.5q32 0 90 -15q5 -1 35 -8t56 -7q46 0 80 30zM90 739l42 47
l127 -105h1l130 107l36 -45l-172 -173h-10z" />
    <glyph glyph-name="longs" unicode="&#x17f;" horiz-adv-x="353" 
d="M398 739.5q25 -20.5 25 -53.5q0 -21 -15.5 -41t-44.5 -20q-21 0 -36.5 15t-15.5 38l1 9q-4 2 -13 2q-31 0 -44 -47.5t-18 -141.5q-20 -337 -40 -511q-30 -260 -217 -260q-45 0 -70 19.5t-25 52.5q0 22 15.5 42.5t44.5 20.5q21 0 36.5 -15t15.5 -38l-1 -9q6 -2 13 -2
q30 0 42 51.5t20 137.5q8 87 19 255l14 184l-80 -1l9 73h80q29 260 216 260q44 0 69 -20.5z" />
    <glyph glyph-name="uni018F" unicode="&#x18f;" horiz-adv-x="760" 
d="M590.5 668q73.5 -48 106 -124.5t32.5 -166.5q0 -100 -41 -190t-124 -146.5t-201 -56.5q-106 0 -173.5 45.5t-98 117.5t-30.5 156q0 41 8 86l503 3q-5 105 -52 179t-148 74q-74 0 -127 -40t-70 -115h-66l11 219h77l-5 -42h1q38 22 100 35.5t106 13.5q118 0 191.5 -48z
M514.5 129q45.5 77 55.5 185h-354q-3 -73 15.5 -132.5t57.5 -94.5t96 -35q84 0 129.5 77z" />
    <glyph glyph-name="florin" unicode="&#x192;" horiz-adv-x="353" 
d="M398 739.5q25 -20.5 25 -53.5q0 -21 -15.5 -41t-44.5 -20q-21 0 -36.5 15t-15.5 38l1 9q-4 2 -13 2q-30 0 -42 -51.5t-20 -137.5h129l-7 -69l-126 -2q-6 -99 -16.5 -230.5t-19.5 -209.5q-30 -260 -217 -260q-45 0 -70 19.5t-25 52.5q0 22 15.5 42.5t44.5 20.5
q21 0 36.5 -15t15.5 -38l-1 -9q6 -2 13 -2q30 0 42 51.5t20 137.5q8 87 19 255l14 184l-80 -1l9 73h80q29 260 216 260q44 0 69 -20.5z" />
    <glyph glyph-name="Ohorn" unicode="&#x1a0;" horiz-adv-x="762" 
d="M589 665.5q73 -50.5 107 -129t34 -165.5q0 -90 -42 -179.5t-124.5 -148.5t-198.5 -59q-114 0 -187 48t-106 124.5t-33 165.5q0 19 1 28q4 89 47.5 173t125 138.5t193.5 54.5q110 0 183 -50.5zM278 599q-45 -49 -65 -121t-20 -143q0 -68 18.5 -132.5t60 -107.5t106.5 -43
t108.5 42t65 106.5t24.5 132.5q1 12 1 36q0 128 -46 203.5t-137 75.5q-71 0 -116 -49zM512 696q33 0 51 22t24 54h104q-13 -66 -61.5 -101.5t-129.5 -35.5z" />
    <glyph glyph-name="ohorn" unicode="&#x1a1;" horiz-adv-x="515" 
d="M381.5 484.5q45.5 -26.5 72 -77t26.5 -119.5q0 -80 -30.5 -148.5t-87.5 -109.5t-133 -41q-97 0 -149 64t-52 163q0 80 31 147.5t88 107.5t132 40q57 0 102.5 -26.5zM211.5 418q-22.5 -27 -35 -73t-12.5 -101q0 -74 19 -131.5t62 -57.5q34 0 55.5 35t31.5 85.5t10 97.5
q0 69 -18 120.5t-61 51.5q-29 0 -51.5 -27zM343 496q33 0 51 22t24 54h104q-13 -66 -61.5 -101.5t-129.5 -35.5z" />
    <glyph glyph-name="Uhorn" unicode="&#x1af;" horiz-adv-x="755" 
d="M794 676q-42 -35 -112 -40l-18 -339q-9 -164 -88.5 -238.5t-208.5 -74.5q-147 0 -209 74t-62 202q0 22 1 34l13 242q4 68 9 90l-76 -3l4 77h286l-4 -66q-27 -1 -41.5 -6.5t-23.5 -23.5t-11 -57l-14 -275l-1 -26q0 -186 158 -186q80 0 125.5 53.5t51.5 160.5l14 262
q4 68 9 90l-75 -3l3 77h161v-2q25 5 39.5 26t19.5 48h104q-12 -61 -54 -96z" />
    <glyph glyph-name="uhorn" unicode="&#x1b0;" horiz-adv-x="598" 
d="M224 483q21 -28 21 -85q0 -45 -14 -153q-12 -96 -12 -122q0 -22 6.5 -32t21.5 -10q27 0 58.5 57t53 139.5t21.5 150.5q0 48 -3 72h129q3 -28 3 -48q0 -32 -7 -93.5t-15 -120.5q-15 -109 -15 -130q0 -26 14 -26q26 0 48 79l54 -16q-11 -59 -43 -107.5t-90 -48.5
q-37 0 -60.5 21t-23.5 70q0 18 2 36.5t3 28.5h-1q-59 -156 -164 -156q-62 0 -91 40.5t-29 113.5q0 32 6 74t7 51q13 82 13 124q0 26 -16 26q-26 0 -48 -79l-54 16q6 33 25.5 69t51.5 61.5t74 25.5q53 0 74 -28zM457 496q33 0 51 22t24 54h104q-13 -66 -61.5 -101.5
t-129.5 -35.5z" />
    <glyph glyph-name="uni01B7" unicode="&#x1b7;" horiz-adv-x="661" 
d="M533 387.5q45 -27.5 67 -71t22 -94.5q0 -75 -42 -129t-110.5 -81.5t-147.5 -27.5q-92 0 -174.5 40.5t-134.5 119.5l51 45q47 -59 101 -91.5t125 -32.5q66 0 115.5 30t58.5 107q2 16 2 25q0 57 -35 94t-105 37h-67l3 35l123 138q60 68 104 98v1l-190 5q-119 3 -129 -148
h-66l17 213h507l-8 -75l-198 -209q66 -1 111 -28.5z" />
    <glyph glyph-name="uni01CD" unicode="&#x1cd;" horiz-adv-x="667" 
d="M569 173q21 -70 23 -99q32 3 57 3l-3 -77h-268l4 66q51 0 51 43q0 14 -9 45l-17 55l-219 -4l-19 -47q-22 -55 -36 -81q33 3 74 3l-5 -80h-214l4 69q26 0 43.5 15t29 36t29.5 63l223 535h67zM314 542q-8 -39 -46 -132l-51 -130h168l-39 125q-26 88 -31 137h-1zM332 770
l-187 151l28 41l180 -87l191 87l20 -40l-212 -152h-20z" />
    <glyph glyph-name="uni01CE" unicode="&#x1ce;" horiz-adv-x="549" 
d="M471 490l-8 -53q-2 -18 -20 -146t-18 -180q0 -29 14 -29q29 0 51 79l54 -16q-11 -57 -45.5 -106.5t-93.5 -49.5q-80 0 -80 91q0 35 4 58h-1q-34 -82 -77 -115.5t-93 -33.5q-58 0 -95.5 46.5t-37.5 135.5q0 93 36 170.5t104.5 123.5t161.5 46q55 0 144 -21zM197 372.5
q-35 -72.5 -35 -206.5q0 -41 10 -64.5t28 -23.5q34 0 62.5 56.5t46.5 140.5t22 164q-21 6 -41 6q-58 0 -93 -72.5zM156 739l42 47l127 -105h1l130 107l36 -45l-172 -173h-10z" />
    <glyph glyph-name="uni01D3" unicode="&#x1d3;" horiz-adv-x="755" 
d="M752 634q-26 -1 -40.5 -6.5t-23.5 -23.5t-11 -57l-13 -250q-9 -164 -88.5 -238.5t-208.5 -74.5q-147 0 -209 74t-62 202q0 22 1 34l13 242q4 68 9 90l-76 -3l4 77h286l-4 -66q-27 -1 -41.5 -6.5t-23.5 -23.5t-11 -57l-14 -275l-1 -26q0 -186 158 -186q80 0 125.5 53.5
t51.5 160.5l14 262q4 68 9 90l-75 -3l3 77h232zM408 770l-187 151l28 41l180 -87l191 87l20 -40l-212 -152h-20z" />
    <glyph glyph-name="uni01D4" unicode="&#x1d4;" horiz-adv-x="598" 
d="M224 483q21 -28 21 -85q0 -45 -14 -153q-12 -96 -12 -122q0 -22 6.5 -32t21.5 -10q27 0 58.5 57t53 139.5t21.5 150.5q0 48 -3 72h129q3 -28 3 -48q0 -32 -7 -93.5t-15 -120.5q-15 -109 -15 -130q0 -26 14 -26q26 0 48 79l54 -16q-11 -59 -43 -107.5t-90 -48.5
q-37 0 -60.5 21t-23.5 70q0 18 2 36.5t3 28.5h-1q-59 -156 -164 -156q-62 0 -91 40.5t-29 113.5q0 32 6 74t7 51q13 82 13 124q0 26 -16 26q-26 0 -48 -79l-54 16q6 33 25.5 69t51.5 61.5t74 25.5q53 0 74 -28zM147 739l42 47l127 -105h1l130 107l36 -45l-172 -173h-10z" />
    <glyph glyph-name="uni01E4" unicode="&#x1e4;" horiz-adv-x="756" 
d="M751 189l-85 -1l-8 -154h-25q-23 0 -45 -5t-60 -16q-51 -14 -86.5 -21.5t-80.5 -7.5q-101 0 -174 43t-111 118t-38 169q0 99 42.5 191.5t126 151.5t199.5 59q43 0 97 -13t90 -36h1l-1 42h77l-12 -233h-66q-9 81 -56.5 124t-119.5 44q-71 0 -121.5 -45t-76 -117
t-25.5 -152q0 -121 51.5 -194t145.5 -73q32 0 75.5 7.5t69.5 19.5l5 93v3l-94 -1l2 43h95q4 42 5 45q-26 -2 -49 -2l-26 -1l4 77h263l-3 -66q-31 -2 -46 -12t-21 -41h83z" />
    <glyph glyph-name="uni01E5" unicode="&#x1e5;" horiz-adv-x="520" 
d="M480 -111l-73 -1q-28 -78 -83 -118.5t-142 -40.5q-76 0 -119.5 27t-43.5 76q0 26 17.5 49.5t49.5 23.5q27 0 45 -17.5t18 -45.5q0 -17 -6 -30q4 -7 19.5 -12t28.5 -5q40 0 62.5 23.5t34.5 67.5l-113 -1l2 53h121q2 9 4 29q13 99 34 171h-1q-35 -82 -77.5 -115.5
t-92.5 -33.5q-59 0 -98.5 47t-39.5 135q0 96 31 173t96 122t163 45q28 0 70.5 -5.5t82.5 -15.5q-5 -94 -14.5 -231.5t-17.5 -218.5q-5 -58 -16 -102h60zM269 134.5q29 56.5 47.5 141t22.5 163.5q-6 2 -20 4t-26 2q-67 -1 -98.5 -71.5t-31.5 -207.5q0 -40 12 -64t31 -24
q34 0 63 56.5z" />
    <glyph glyph-name="Gcaron" unicode="&#x1e6;" horiz-adv-x="756" 
d="M503 703q54 -13 90 -36h1l-1 42h77l-12 -233h-66q-9 81 -56.5 124t-119.5 44q-71 0 -121.5 -45t-76 -117t-25.5 -152q0 -121 51.5 -194t145.5 -73q32 0 75.5 7.5t69.5 19.5l5 93q4 65 8 90q-26 -2 -49 -2l-26 -1l4 77h263l-3 -66q-25 -1 -39 -7t-22 -24.5t-10 -55.5
l-8 -160h-25q-23 0 -45 -5t-60 -16q-51 -14 -86.5 -21.5t-80.5 -7.5q-101 0 -174 43t-111 118t-38 169q0 99 42.5 191.5t126 151.5t199.5 59q43 0 97 -13zM413 770l-187 151l28 41l180 -87l191 87l20 -40l-212 -152h-20z" />
    <glyph glyph-name="gcaron" unicode="&#x1e7;" horiz-adv-x="520" 
d="M387.5 505.5q42.5 -5.5 82.5 -15.5q-5 -94 -14.5 -231.5t-17.5 -218.5q-14 -151 -73.5 -231t-182.5 -80q-76 0 -119.5 27t-43.5 76q0 26 17.5 49.5t49.5 23.5q27 0 45 -17.5t18 -45.5q0 -17 -6 -30q4 -7 19.5 -12t28.5 -5q55 0 78 43t33 129q13 99 34 171h-1
q-35 -82 -77.5 -115.5t-92.5 -33.5q-59 0 -98.5 47t-39.5 135q0 96 31 173t96 122t163 45q28 0 70.5 -5.5zM194.5 373.5q-31.5 -70.5 -31.5 -207.5q0 -40 12 -64t31 -24q34 0 63 56.5t47.5 141t22.5 163.5q-6 2 -20 4t-26 2q-67 -1 -98.5 -71.5zM133 739l42 47l127 -105h1
l130 107l36 -45l-172 -173h-10z" />
    <glyph glyph-name="uni01E8" unicode="&#x1e8;" horiz-adv-x="711" 
d="M681 634q-43 -2 -81.5 -22t-78.5 -80l-104 -154v-1q37 -24 59 -58l94 -145q32 -49 63.5 -78t62.5 -30l-4 -66h-152q-12 1 -42 35t-51 67l-91 144q-38 56 -55 69h-36l-8 -151q-4 -65 -8 -90q31 3 75 3l-4 -77h-285l4 66q26 1 40.5 6.5t23.5 23.5t11 57l20 383q3 57 9 90
l-75 -3l4 77h284l-3 -66q-27 -1 -41.5 -6.5t-23.5 -23.5t-11 -57l-8 -152h73l83 131q27 41 44.5 66t29.5 34v1q-22 -2 -38 -2.5t-25 -1.5l3 77h245zM379 770l-187 151l28 41l180 -87l191 87l20 -40l-212 -152h-20z" />
    <glyph glyph-name="uni01E9" unicode="&#x1e9;" horiz-adv-x="518" 
d="M233 697q-15 -104 -23 -176q-5 -51 -20 -130h1q31 62 74 91t86 29q54 0 81 -28t27 -78q0 -34 -19 -70.5t-61.5 -67.5t-109.5 -45v-1q38 -1 57 -18.5t30 -44.5q17 -39 26.5 -54.5t21.5 -15.5q23 0 43 69l54 -17q-13 -61 -47.5 -106t-83.5 -45q-45 0 -72.5 28t-54.5 101
q-17 48 -27 66t-28 14q-6 -27 -9 -64.5t-3 -66.5q0 -40 3 -67h-130q-3 28 -3 49q0 47 11 205.5t30 304.5q5 46 15 93l-72 -3l4 76q63 0 101 9t52 21h54zM271.5 423q-23.5 -22 -44.5 -64t-32 -97q72 0 108 36.5t36 102.5q0 20 -6.5 32t-19.5 12q-18 0 -41.5 -22zM47 944
l42 47l127 -105h1l130 107l36 -45l-172 -173h-10z" />
    <glyph glyph-name="uni01EE" unicode="&#x1ee;" horiz-adv-x="661" 
d="M533 387.5q45 -27.5 67 -71t22 -94.5q0 -75 -42 -129t-110.5 -81.5t-147.5 -27.5q-92 0 -174.5 40.5t-134.5 119.5l51 45q47 -59 101 -91.5t125 -32.5q66 0 115.5 30t58.5 107q2 16 2 25q0 57 -35 94t-105 37h-67l3 35l123 138q60 68 104 98v1l-190 5q-119 3 -129 -148
h-66l17 213h507l-8 -75l-198 -209q66 -1 111 -28.5zM363 770l-187 151l28 41l180 -87l191 87l20 -40l-212 -152h-20z" />
    <glyph glyph-name="uni01EF" unicode="&#x1ef;" horiz-adv-x="519" 
d="M358.5 151q45.5 -28 68.5 -75.5t23 -104.5q0 -66 -30.5 -121.5t-86 -88t-126.5 -32.5q-60 0 -103.5 20.5t-66 52.5t-22.5 67q0 33 21 58t54 25q30 0 45 -16.5t15 -38.5q0 -11 -6 -25.5t-17 -26.5q20 -50 64 -50q59 0 90 47.5t31 128.5q0 67 -24 112t-86 45h-36l3 70
q31 38 66 78q32 37 55.5 60.5t53.5 49.5q15 12 41 37h-1q-37 -31 -65 -42.5t-54 -11.5q-14 0 -29 4t-28 9t-26 8.5t-26 3.5q-19 0 -30 -14.5t-11 -36.5q0 -17 6 -34l-50 -17q-12 32 -12 78q0 58 32.5 99.5t90.5 41.5q32 0 90 -15q5 -1 35 -8t56 -7q46 0 80 30l43 -40
l-149 -191q-43 -55 -89 -101q65 0 110.5 -28zM125 739l42 47l127 -105h1l130 107l36 -45l-172 -173h-10z" />
    <glyph glyph-name="Oslashacute" unicode="&#x1fe;" horiz-adv-x="761" 
d="M694 734l-64 -101q50 -49 75.5 -118t25.5 -143q0 -90 -42 -180t-125 -149t-199 -59q-78 0 -136 23l-70 -109l-72 50l65 102q-58 47 -85.5 119t-27.5 154l1 27q4 89 47.5 173t125 138.5t193.5 54.5q85 0 149 -31l63 98zM283.5 605q-43.5 -43 -65 -108.5t-24.5 -134.5
q-1 -10 -1 -30q0 -96 32 -167l280 440q-43 43 -112 43q-66 0 -109.5 -43zM280 86q42 -34 99 -34q65 0 108 42.5t64.5 106.5t24.5 132q1 13 1 38q0 84 -21 147zM340 818l122 118q13 12 28.5 19.5t30.5 7.5q25 0 38 -20q9 -13 9 -28q0 -17 -12.5 -33.5t-31.5 -27.5l-150 -84z
" />
    <glyph glyph-name="oslashacute" unicode="&#x1ff;" horiz-adv-x="515" 
d="M499 521l-63 -85q44 -60 44 -148q0 -80 -30.5 -148.5t-87.5 -109.5t-133 -41q-57 0 -98 23l-65 -89l-53 44l64 90q-49 61 -49 159q0 80 31 147.5t88 107.5t132 40q55 0 97 -24l59 83zM205.5 418q-25.5 -27 -40 -73t-14.5 -101q0 -37 8 -79l167 240q-23 40 -62 40
q-33 0 -58.5 -27zM185 95q25 -40 62 -40q35 0 59 32t36 79t13 93q0 36 -4 67zM179 606l89 140q11 17 27.5 27t33.5 10q20 0 34 -13q17 -16 17 -39q0 -16 -8 -32.5t-22 -27.5l-127 -106z" />
    <glyph glyph-name="Scommaaccent" unicode="&#x218;" horiz-adv-x="600" 
d="M389 703.5q46 -12.5 76 -35.5h1l-1 41h77l-12 -233h-66q-9 82 -51 125t-111 43q-46 0 -80 -26t-34 -65q0 -42 35.5 -72t118.5 -64q64 -27 110.5 -55t78 -72t28.5 -104q-3 -59 -37.5 -105t-94.5 -71.5t-136 -25.5q-40 0 -86.5 13t-83.5 36h-1l1 -42h-77l12 234h66
q9 -82 56.5 -125.5t119.5 -43.5q54 0 89.5 29t35.5 70q0 31 -21.5 53t-50 36t-81.5 36q-104 42 -159 94.5t-55 136.5q0 48 23.5 94.5t78.5 78.5t142 32q43 0 89 -12.5zM200 -253q31 47 43 79t12 65q0 13 -4 49l108 24q18 -35 15 -72q-2 -42 -36.5 -92t-85.5 -94z" />
    <glyph glyph-name="scommaaccent" unicode="&#x219;" horiz-adv-x="446" 
d="M313 497.5q39 -13.5 63.5 -38.5t24.5 -58q0 -27 -17.5 -46.5t-45.5 -19.5q-26 0 -43 18t-17 43q0 16 6 29q-8 10 -24 15t-31 5q-24 0 -45.5 -14.5t-21.5 -37.5q0 -15 6.5 -25t25 -23t61.5 -38q51 -29 78.5 -48t49 -48.5t21.5 -67.5q0 -44 -27 -79t-73.5 -55t-103.5 -20
q-74 0 -126.5 32t-52.5 84q0 30 18.5 50t45.5 20t44 -18t17 -44q0 -15 -6 -30q5 -10 26 -19t37 -9q41 0 60 17.5t19 44.5q0 17 -13.5 32t-37.5 30t-50 29q-77 44 -107.5 76.5t-30.5 82.5q0 36 22.5 69t66 54t101.5 21q41 0 80 -13.5zM92 -253q31 47 43 79t12 65q0 13 -4 49
l108 24q18 -35 15 -72q-2 -42 -36.5 -92t-85.5 -94z" />
    <glyph glyph-name="uni021A" unicode="&#x21a;" horiz-adv-x="648" 
d="M644 474h-66q4 79 -26.5 119.5t-88.5 39.5h-48l-24 -469q-3 -57 -9 -90q32 3 80 3l-4 -77h-290l4 66q27 1 41.5 6.5t23.5 23.5t11 57l25 479h-46q-59 -1 -93.5 -40t-38.5 -118h-66l17 226h604zM210 -253q31 47 43 79t12 65q0 13 -4 49l108 24q18 -35 15 -72
q-2 -42 -36.5 -92t-85.5 -94z" />
    <glyph glyph-name="uni021B" unicode="&#x21b;" horiz-adv-x="395" 
d="M233 500h125l-6 -69l-125 -2q-10 -79 -18 -162.5t-8 -115.5q0 -27 9.5 -46.5t38.5 -19.5q19 0 44.5 13.5t45.5 49.5l51 -32q-33 -63 -82 -95t-106 -32q-75 0 -102 44t-25 118q6 127 23 277l-80 -1l9 73q70 0 107.5 40t51.5 111h67zM86 -253q31 47 43 79t12 65q0 13 -4 49
l108 24q18 -35 15 -72q-2 -42 -36.5 -92t-85.5 -94z" />
    <glyph glyph-name="uni021E" unicode="&#x21e;" horiz-adv-x="802" 
d="M771 634q-27 -1 -41.5 -6.5t-23.5 -23.5t-11 -57l-20 -383q-3 -57 -9 -90q33 3 75 3l-4 -77h-284l3 66q27 1 41.5 6.5t23.5 23.5t11 57l9 162l-276 -3l-8 -148q-4 -65 -8 -90q31 3 75 3l-4 -77h-285l4 66q26 1 40.5 6.5t23.5 23.5t11 57l20 383q3 57 9 90l-75 -3l4 77
h284l-3 -66q-27 -1 -41.5 -6.5t-23.5 -23.5t-11 -57l-8 -156h275l8 145q4 68 9 90l-76 -3l4 77h285zM415 770l-187 151l28 41l180 -87l191 87l20 -40l-212 -152h-20z" />
    <glyph glyph-name="uni021F" unicode="&#x21f;" horiz-adv-x="574" 
d="M228 700q-10 -88 -18 -149q-3 -29 -10.5 -87t-17.5 -104h1q32 83 76.5 117t94.5 34q62 0 92 -40.5t30 -113.5q0 -36 -12 -124q-13 -82 -13 -125q0 -26 15 -26q26 0 48 79l54 -16q-6 -33 -25.5 -69t-51.5 -61.5t-74 -25.5q-53 0 -74 28t-21 85q0 45 14 153q2 17 6.5 58.5
t4.5 63.5q0 23 -6.5 32.5t-21.5 9.5q-29 0 -62 -57t-55.5 -139.5t-22.5 -150.5q0 -24 3 -72h-128q-3 28 -3 48q0 115 9.5 263t21.5 248q5 57 13 93l-70 -3l4 76q63 0 101 9t51 21h54zM7 944l42 47l127 -105h1l130 107l36 -45l-172 -173h-10z" />
    <glyph glyph-name="uni0259" unicode="&#x259;" horiz-adv-x="515" 
d="M372.5 487.5q49.5 -27.5 79 -80.5t29.5 -127q0 -79 -33 -145t-90.5 -105t-125.5 -39q-51 0 -97.5 25.5t-75.5 75.5t-29 120q0 35 7 69l308 6q-7 140 -120 140q-49 0 -81.5 -25t-42.5 -68h-65l10 177h76l-5 -50h1q32 27 70.5 40.5t77.5 13.5q57 0 106.5 -27.5zM307.5 98.5
q28.5 43.5 35.5 118.5h-175q-6 -28 -6 -54q0 -50 22 -79t60 -29q35 0 63.5 43.5z" />
    <glyph glyph-name="uni0292" unicode="&#x292;" horiz-adv-x="519" 
d="M358.5 151q45.5 -28 68.5 -75.5t23 -104.5q0 -66 -30.5 -121.5t-86 -88t-126.5 -32.5q-60 0 -103.5 20.5t-66 52.5t-22.5 67q0 33 21 58t54 25q30 0 45 -16.5t15 -38.5q0 -11 -6 -25.5t-17 -26.5q20 -50 64 -50q59 0 90 47.5t31 128.5q0 67 -24 112t-86 45h-36l3 70
q31 38 66 78q32 37 55.5 60.5t53.5 49.5q15 12 41 37h-1q-37 -31 -65 -42.5t-54 -11.5q-14 0 -29 4t-28 9t-26 8.5t-26 3.5q-19 0 -30 -14.5t-11 -36.5q0 -17 6 -34l-50 -17q-12 32 -12 78q0 58 32.5 99.5t90.5 41.5q32 0 90 -15q5 -1 35 -8t56 -7q46 0 80 30l43 -40
l-149 -191q-43 -55 -89 -101q65 0 110.5 -28z" />
    <glyph glyph-name="uni02BC" unicode="&#x2bc;" horiz-adv-x="139" 
d="M138 711.5q21 -26.5 21 -69.5q0 -51 -26 -109.5t-77 -118.5l-37 28q21 26 42.5 72.5t22.5 85.5q-10 -3 -21 -3q-28 0 -47 15.5t-19 46.5q0 33 22.5 56t55.5 23q42 0 63 -26.5z" />
    <glyph glyph-name="circumflex" unicode="&#x2c6;" horiz-adv-x="429" 
d="M216 671h-1l-136 -100l-35 47l179 165h10l152 -170l-44 -46z" />
    <glyph glyph-name="caron" unicode="&#x2c7;" horiz-adv-x="426" 
d="M45 739l42 47l127 -105h1l130 107l36 -45l-172 -173h-10z" />
    <glyph glyph-name="uni02C9" unicode="&#x2c9;" horiz-adv-x="378" 
d="M37 686h284l-4 -90l-284 -3z" />
    <glyph glyph-name="breve" unicode="&#x2d8;" horiz-adv-x="395" 
d="M108.5 634q-41.5 33 -63.5 101l58 28q19 -33 42 -53t55 -20q57 0 95 74l55 -24q-26 -72 -64 -105.5t-90 -33.5q-46 0 -87.5 33z" />
    <glyph glyph-name="dotaccent" unicode="&#x2d9;" horiz-adv-x="228" 
d="M163 733.5q18 -19.5 18 -48.5q0 -31 -20 -53.5t-50 -22.5q-29 0 -46.5 19.5t-17.5 48.5q0 31 21.5 53.5t49.5 22.5q27 0 45 -19.5z" />
    <glyph glyph-name="ring" unicode="&#x2da;" horiz-adv-x="329" 
d="M80.5 592.5q-34.5 29.5 -34.5 79.5q0 34 17.5 62t46.5 44.5t60 16.5q46 0 79.5 -28t33.5 -80q0 -36 -18.5 -64.5t-47 -44t-58.5 -15.5q-44 0 -78.5 29.5zM193 639q11 15 11 40q0 28 -10.5 42.5t-26.5 14.5q-16 -1 -27.5 -15t-11.5 -41t10.5 -42t28.5 -15q15 1 26 16z" />
    <glyph glyph-name="ogonek" unicode="&#x2db;" horiz-adv-x="327" 
d="M73.5 -240.5q-27.5 24.5 -27.5 69.5q0 50 33 96t86.5 81.5t115.5 55.5l-4 -62q-54 -21 -93.5 -58.5t-39.5 -77.5q0 -17 11 -27.5t30 -10.5q30 0 64 29l33 -43q-29 -35 -65 -56t-71 -21q-45 0 -72.5 24.5z" />
    <glyph glyph-name="tilde" unicode="&#x2dc;" horiz-adv-x="444" 
d="M45 640q15 44 48 71t67 27q22 0 37 -5.5t32 -15.5q15 -9 26.5 -13t26.5 -4q18 0 34.5 13.5t29.5 37.5l53 -28q-19 -58 -51 -86t-66 -28q-19 0 -34.5 5.5t-34.5 15.5q-16 8 -27.5 12.5t-23.5 4.5q-15 0 -32.5 -9.5t-31.5 -31.5z" />
    <glyph glyph-name="hungarumlaut" unicode="&#x2dd;" horiz-adv-x="468" 
d="M45 621l89 125q16 21 35 34.5t36 13.5q13 0 24 -9q14 -13 14 -30q0 -16 -10 -33.5t-25 -31.5l-120 -110zM205 628l105 113q18 19 37.5 30.5t36.5 11.5t29 -13q9 -12 9 -26q0 -17 -13.5 -35.5t-32.5 -31.5l-135 -96z" />
    <glyph glyph-name="gravecomb" unicode="&#x300;" 
d="M-207 672q-11 12 -18 27t-7 29q0 24 19 42q18 12 35 12q16 0 30.5 -9.5t24.5 -26.5l78 -140l-48 -41z" />
    <glyph glyph-name="acutecomb" unicode="&#x301;" 
d="M-247 606l89 140q11 17 27.5 27t33.5 10q20 0 34 -13q17 -16 17 -39q0 -16 -8 -32.5t-22 -27.5l-127 -106z" />
    <glyph glyph-name="uni0302" unicode="&#x302;" 
d="M-187 620l-131 -59l-28 46l159 106h13l144 -101l-35 -52z" />
    <glyph glyph-name="tildecomb" unicode="&#x303;" 
d="M-372 640q15 44 48 71t67 27q22 0 37 -5.5t32 -15.5q15 -9 26.5 -13t26.5 -4q18 0 34.5 13.5t29.5 37.5l53 -28q-19 -58 -51 -86t-66 -28q-19 0 -34.5 5.5t-34.5 15.5q-16 8 -27.5 12.5t-23.5 4.5q-15 0 -32.5 -9.5t-31.5 -31.5z" />
    <glyph glyph-name="uni0304" unicode="&#x304;" 
d="M-329 722h284l-4 -90l-284 -3z" />
    <glyph glyph-name="uni0306" unicode="&#x306;" 
d="M-207.5 586.5q-41.5 27.5 -63.5 82.5l49 24q21 -27 46 -44t59 -17q59 0 103 61l46 -20q-26 -59 -64 -86.5t-89 -27.5q-45 0 -86.5 27.5z" />
    <glyph glyph-name="uni0307" unicode="&#x307;" 
d="M-65 733.5q18 -19.5 18 -48.5q0 -31 -20 -53.5t-50 -22.5q-29 0 -46.5 19.5t-17.5 48.5q0 31 21.5 53.5t49.5 22.5q27 0 45 -19.5z" />
    <glyph glyph-name="uni0308" unicode="&#x308;" 
d="M-342.5 620q-17.5 20 -17.5 50q0 33 21 57t49 24q26 0 43 -20.5t17 -49.5q0 -34 -20 -57.5t-49 -23.5q-26 0 -43.5 20zM-168.5 620q-17.5 20 -17.5 50q0 33 21 57t49 24q26 0 43 -20.5t17 -49.5q0 -34 -20 -57.5t-49 -23.5q-26 0 -43.5 20z" />
    <glyph glyph-name="hookabovecomb" unicode="&#x309;" 
d="M-69.5 727q28.5 -20 28.5 -56q0 -14 -2 -22q-4 -18 -15 -29.5t-32 -25.5q-16 -11 -24 -18t-10 -17h-66q3 13 11.5 22t23.5 20q20 14 29 25.5t9 31.5q0 29 -43 29q-26 0 -36 -7.5t-14 -19.5q5 -4 5 -11q0 -6 -1 -10q-2 -10 -12.5 -16.5t-31.5 -6.5q-31 0 -31 28q0 8 1 13
q7 34 40 62t91 28q51 0 79.5 -20z" />
    <glyph glyph-name="uni030A" unicode="&#x30a;" 
d="M-248.5 592.5q-34.5 29.5 -34.5 79.5q0 34 17.5 62t46.5 44.5t60 16.5q46 0 79.5 -28t33.5 -80q0 -36 -18.5 -64.5t-47 -44t-58.5 -15.5q-44 0 -78.5 29.5zM-136 639q11 15 11 40q0 28 -10.5 42.5t-26.5 14.5q-16 -1 -27.5 -15t-11.5 -41t10.5 -42t28.5 -15q15 1 26 16z
" />
    <glyph glyph-name="uni030B" unicode="&#x30b;" 
d="M-423 621l89 125q16 21 35 34.5t36 13.5q13 0 24 -9q14 -13 14 -30q0 -16 -10 -33.5t-25 -31.5l-120 -110zM-263 628l105 113q18 19 37.5 30.5t36.5 11.5t29 -13q9 -12 9 -26q0 -17 -13.5 -35.5t-32.5 -31.5l-135 -96z" />
    <glyph glyph-name="uni030C" unicode="&#x30c;" 
d="M-381 739l42 47l127 -105h1l130 107l36 -45l-172 -173h-10z" />
    <glyph glyph-name="uni031B" unicode="&#x31b;" 
d="M-188 496q33 0 51 22t24 54h104q-13 -66 -61.5 -101.5t-129.5 -35.5z" />
    <glyph glyph-name="dotbelowcomb" unicode="&#x323;" 
d="M-97 -86.5q16 -17.5 16 -43.5q0 -28 -17.5 -48t-44.5 -20q-26 0 -42 17.5t-16 42.5q0 28 19.5 48.5t44.5 20.5q24 0 40 -17.5z" />
    <glyph glyph-name="uni0326" unicode="&#x326;" 
d="M-258 -253q31 47 43 79t12 65q0 13 -4 49l108 24q18 -35 15 -72q-2 -42 -36.5 -92t-85.5 -94z" />
    <glyph glyph-name="uni0327" unicode="&#x327;" 
d="M-285 -207q125 23 125 65q0 12 -7.5 17.5t-19.5 5.5q-11 0 -22.5 -4t-19.5 -10l-37 16l38 127h76l-33 -79h1q12 6 33.5 11t35.5 5q31 -1 50 -17t19 -47q0 -64 -72.5 -97t-161.5 -45z" />
    <glyph glyph-name="uni0328" unicode="&#x328;" 
d="M-253.5 -240.5q-27.5 24.5 -27.5 69.5q0 50 33 96t86.5 81.5t115.5 55.5l-4 -62q-54 -21 -93.5 -58.5t-39.5 -77.5q0 -17 11 -27.5t30 -10.5q30 0 64 29l33 -43q-29 -35 -65 -56t-71 -21q-45 0 -72.5 24.5z" />
    <glyph glyph-name="uni0335" unicode="&#x335;" 
d="M-425 346h340l-4 -63l-340 -3z" />
    <glyph glyph-name="uni0336" unicode="&#x336;" 
d="M-130 265l-665 -4l5 105h665z" />
    <glyph glyph-name="Gamma" unicode="&#x393;" horiz-adv-x="566" 
d="M39 66q26 1 40.5 6.5t23.5 23.5t11 57l20 383q3 57 9 90l-75 -3l4 77h498l-5 -194h-65q3 74 -31 102.5t-84 26.5l-36 -1q-24 -1 -38.5 -6.5t-23 -24.5t-10.5 -56l-20 -383q-4 -65 -8 -90q31 3 88 3l-4 -77h-298z" />
    <glyph glyph-name="uni0394" unicode="&#x394;" horiz-adv-x="683" 
d="M641 0h-636l310 716h74zM303.5 71q93.5 0 187.5 -1q-21 62 -80 229l-90 262l-203 -490h185.5z" />
    <glyph glyph-name="Pi" unicode="&#x3a0;" horiz-adv-x="789" 
d="M39 66q26 1 40.5 6.5t23.5 23.5t11 57l20 383q3 57 9 90l-75 -3l4 77h690l-4 -66q-27 -1 -41 -6.5t-23 -23.5t-11 -57l-20 -383q-3 -57 -9 -90q32 3 75 3l-4 -77h-285l4 66q27 1 41.5 6.5t23.5 23.5t11 57l22 472l-202 -3q-29 0 -44 -16t-19 -60l-20 -382q-4 -65 -8 -90
q31 3 75 3l-4 -77h-285z" />
    <glyph glyph-name="uni03A9" unicode="&#x3a9;" horiz-adv-x="769" 
d="M158.5 153.5q-50.5 39.5 -78 96t-27.5 121.5q0 84 43 163.5t122.5 130.5t183.5 51q102 0 173 -42.5t106.5 -112t35.5 -148.5q0 -68 -31 -133t-86 -113.5t-124 -68.5v-1l107 -2q35 0 53.5 13.5t20.5 51.5h63l-16 -160h-314l6 106q48 10 89.5 49.5t66.5 102.5t25 140
q0 107 -41.5 179t-133.5 72q-71 0 -119.5 -43.5t-71.5 -111t-23 -139.5q0 -70 24.5 -125t62.5 -87t78 -37l-6 -106h-311v160h64q0 -38 15.5 -51.5t56.5 -13.5l104 2v1q-67 16 -117.5 55.5z" />
    <glyph glyph-name="uni03BC" unicode="&#x3bc;" horiz-adv-x="597" 
d="M468 142q-1 -21 2 -36t20 -15q16 0 37 18l32 -42q-22 -28 -56.5 -50t-68.5 -22q-64 0 -77 64h-1q-31 -36 -62 -55t-59 -19q-52 0 -77 70h-1q0 -69 18 -177q8 -58 8 -69q0 -33 -16.5 -56.5t-51.5 -23.5q-37 0 -51 27t-12 77l35 667h122l-14 -272q-1 -9 -1 -27
q0 -57 16 -89.5t49 -32.5q22 0 45.5 9t41.5 28l20 384h122z" />
    <glyph glyph-name="pi" unicode="&#x3c0;" horiz-adv-x="607" 
d="M593 476q-15 -20 -40 -40.5t-51 -32.5q-4 -93 -7 -133l-7 -134q-3 -53 29 -53q11 0 29 9l28 -44q-25 -29 -56.5 -46.5t-66.5 -17.5q-58 0 -78 34t-20 86l1 32l15 255q-18 2 -31 2q-78 6 -110 10q-5 -114 -13.5 -197.5t-26.5 -127.5q-18 -46 -47 -70t-67 -24
q-27 0 -46 16.5t-19 44.5q0 33 20.5 50.5t45.5 17.5q22 0 42 -11q19 23 28.5 107.5t15.5 195.5q-59 -4 -102 -25l-29 46q31 36 73 60.5t88 24.5q47 0 125 -8q72 -9 139 -9q50 0 104 27z" />
    <glyph glyph-name="uni0400" unicode="&#x400;" horiz-adv-x="623" 
d="M565 506h-65q3 74 -31 102.5t-84 26.5l-36 -1q-24 -1 -38.5 -6.5t-23 -24.5t-10.5 -56l-7 -150h117v87h77l-12 -243h-66q2 40 -9.5 59t-31.5 24.5t-53 4.5l-26 -1l-9 -164q-3 -62 -8 -88h134q51 0 88 34.5t41 109.5h66l-17 -220h-526l4 66q26 1 40.5 6.5t23.5 23.5t11 57
l20 383q3 57 9 90l-75 -3l4 77h498zM266 872q-11 12 -18 27t-7 29q0 24 19 42q18 12 35 12q16 0 30.5 -9.5t24.5 -26.5l78 -140l-48 -41z" />
    <glyph glyph-name="uni0401" unicode="&#x401;" horiz-adv-x="623" 
d="M565 506h-65q3 74 -31 102.5t-84 26.5l-36 -1q-24 -1 -38.5 -6.5t-23 -24.5t-10.5 -56l-7 -150h117v87h77l-12 -243h-66q2 40 -9.5 59t-31.5 24.5t-53 4.5l-26 -1l-9 -164q-3 -62 -8 -88h134q51 0 88 34.5t41 109.5h66l-17 -220h-526l4 66q26 1 40.5 6.5t23.5 23.5t11 57
l20 383q3 57 9 90l-75 -3l4 77h498zM218.5 817.5q-17.5 20.5 -17.5 50.5q0 33 21 57t49 24q26 0 42.5 -20.5t16.5 -50.5q0 -33 -20 -57t-49 -24q-25 0 -42.5 20.5zM393 817.5q-17 20.5 -17 50.5q0 33 20.5 57t48.5 24q26 0 42.5 -20.5t16.5 -50.5q0 -33 -20 -57t-48 -24
q-26 0 -43 20.5z" />
    <glyph glyph-name="uni0402" unicode="&#x402;" horiz-adv-x="803" 
d="M721 371.5q50 -51.5 50 -138.5q0 -106 -50 -177t-150 -71q-28 0 -65 5t-66 16l21 65q34 -13 67 -13q38 0 59.5 42.5t25.5 114.5t-20.5 101t-76.5 29q-62 0 -115 -21l-8 -160q-4 -68 -9 -90l-4 -74h-212l4 66q27 1 41.5 6.5t23.5 23.5t11 57l25 479h-46q-59 -1 -93.5 -40
t-38.5 -118h-66l17 226h606l-4 -200h-66q4 66 -27.5 100t-89.5 33h-48l-12 -235q35 12 81.5 18.5t82.5 6.5q102 0 152 -51.5z" />
    <glyph glyph-name="uni0403" unicode="&#x403;" horiz-adv-x="566" 
d="M39 66q26 1 40.5 6.5t23.5 23.5t11 57l20 383q3 57 9 90l-75 -3l4 77h498l-5 -194h-65q3 74 -31 102.5t-84 26.5l-36 -1q-24 -1 -38.5 -6.5t-23 -24.5t-10.5 -56l-20 -383q-4 -65 -8 -90q31 3 88 3l-4 -77h-298zM242 818l122 118q13 12 28.5 19.5t30.5 7.5q25 0 38 -20
q9 -13 9 -28q0 -17 -12.5 -33.5t-31.5 -27.5l-150 -84z" />
    <glyph glyph-name="uni0404" unicode="&#x404;" horiz-adv-x="692" 
d="M673 144q-70 -91 -150.5 -125.5t-158.5 -34.5q-97 0 -171 44t-114 120t-40 170q0 98 43.5 190t128 150t199.5 58q40 0 85.5 -13t83.5 -36h1l-1 42h77l-12 -233h-66q-9 84 -50 128t-111 44q-61 0 -109 -34.5t-78 -92t-39 -124.5h252q-1 20 -0.5 35.5t0.5 25.5v26h77
l-13 -243h-66q2 40 -9 59t-31 24t-53 5l-162 -1q0 -78 26 -139t73.5 -95t110.5 -34t126.5 31t111.5 93z" />
    <glyph glyph-name="uni0405" unicode="&#x405;" horiz-adv-x="600" 
d="M389 703.5q46 -12.5 76 -35.5h1l-1 41h77l-12 -233h-66q-9 82 -51 125t-111 43q-46 0 -80 -26t-34 -65q0 -42 35.5 -72t118.5 -64q64 -27 110.5 -55t78 -72t28.5 -104q-3 -59 -37.5 -105t-94.5 -71.5t-136 -25.5q-40 0 -86.5 13t-83.5 36h-1l1 -42h-77l12 234h66
q9 -82 56.5 -125.5t119.5 -43.5q54 0 89.5 29t35.5 70q0 31 -21.5 53t-50 36t-81.5 36q-104 42 -159 94.5t-55 136.5q0 48 23.5 94.5t78.5 78.5t142 32q43 0 89 -12.5z" />
    <glyph glyph-name="uni0406" unicode="&#x406;" horiz-adv-x="384" 
d="M353 634q-27 -1 -41.5 -6.5t-23.5 -23.5t-11 -57l-20 -383q-4 -65 -8 -90q31 3 75 3l-4 -77h-285l4 66q26 1 40.5 6.5t23.5 23.5t11 57l20 383q3 57 9 90l-75 -3l4 77h284z" />
    <glyph glyph-name="uni0407" unicode="&#x407;" horiz-adv-x="384" 
d="M353 634q-27 -1 -41.5 -6.5t-23.5 -23.5t-11 -57l-20 -383q-4 -65 -8 -90q31 3 75 3l-4 -77h-285l4 66q26 1 40.5 6.5t23.5 23.5t11 57l20 383q3 57 9 90l-75 -3l4 77h284zM91.5 820q-17.5 20 -17.5 50q0 33 21 57t49 24q26 0 43 -20.5t17 -49.5q0 -34 -20 -57.5
t-49 -23.5q-26 0 -43.5 20zM265.5 820q-17.5 20 -17.5 50q0 33 21 57t49 24q26 0 43 -20.5t17 -49.5q0 -34 -20 -57.5t-49 -23.5q-26 0 -43.5 20z" />
    <glyph glyph-name="uni0408" unicode="&#x408;" horiz-adv-x="445" 
d="M437 634q-27 -1 -41.5 -6.5t-23.5 -23.5t-11 -57l-15 -293q-8 -141 -63 -205.5t-158 -64.5q-58 0 -97 28.5t-39 72.5q0 37 21 63t58 26q31 0 46.5 -18.5t15.5 -46.5q0 -17 -10 -37q3 -9 12 -12.5t17 -3.5q22 0 34 19t14 60l21 401q3 57 9 90l-80 -3l4 77h289z" />
    <glyph glyph-name="uni0409" unicode="&#x409;" horiz-adv-x="1039" 
d="M8 67q0 40 21.5 67t60.5 27q30 0 45.5 -19t15.5 -46q-2 -20 -11 -37q4 -4 15 -4q28 0 50.5 56.5t44 173t55.5 341.5l-137 -3l4 77h577l-4 -66q-26 -1 -40.5 -6.5t-23.5 -23.5t-11 -57l-8 -140l36 2q158 6 227.5 -51.5t69.5 -147.5q0 -67 -33 -114t-90.5 -71.5
t-130.5 -24.5h-316l4 66q27 1 41.5 6.5t23.5 23.5t11 57l24 472l-80 -3q-35 -1 -50 -13t-21 -46q-42 -258 -76 -379.5t-72.5 -160.5t-102.5 -39q-119 0 -119 83zM714 72q62 3 93 42t31 106q0 120 -122 117l-57 -1l-10 -177q-3 -62 -8 -88q49 0 73 1z" />
    <glyph glyph-name="uni040A" unicode="&#x40a;" horiz-adv-x="1064" 
d="M950.5 357.5q69.5 -57.5 69.5 -147.5q0 -67 -33 -114t-90.5 -71.5t-130.5 -24.5h-316l4 66q27 1 41.5 6.5t23.5 23.5t11 57l9 173l-274 -3l-8 -159q-1 -53 -8 -90q31 3 75 3l-4 -77h-285l4 66q26 1 40.5 6.5t23.5 23.5t11 57l20 383q3 57 9 90l-75 -3l4 77h284l-3 -66
q-27 -1 -41.5 -6.5t-23.5 -23.5t-11 -57l-8 -145h274l7 134q4 68 9 90l-76 -3l4 77h287l-3 -66q-27 -1 -41.5 -6.5t-23.5 -23.5t-11 -57l-8 -140l36 2q158 6 227.5 -51.5zM741 337l-57 -1l-9 -177q-3 -54 -9 -88q49 0 73 1q63 3 93.5 42t30.5 106q0 120 -122 117z" />
    <glyph glyph-name="uni040B" unicode="&#x40b;" horiz-adv-x="887" 
d="M849 77l-5 -77h-284l3 66q27 1 41 6.5t23 23.5t12 57l5 63q2 61 -25.5 90t-86.5 29q-38 0 -75 -10t-59 -25l-7 -136q-3 -57 -9 -90q32 3 80 3l-4 -77h-290l4 66q27 1 41.5 6.5t23.5 23.5t11 57l25 479h-46q-59 -1 -93.5 -40t-38.5 -118h-66l17 226h604l-6 -226h-66
q4 79 -26.5 119.5t-88.5 39.5h-48l-13 -260q42 25 93 40t106 15q96 0 142.5 -52t41.5 -162q-6 -108 -12 -140z" />
    <glyph glyph-name="uni040C" unicode="&#x40c;" horiz-adv-x="711" 
d="M681 634q-43 -2 -81.5 -22t-78.5 -80l-104 -154v-1q37 -24 59 -58l94 -145q32 -49 63.5 -78t62.5 -30l-4 -66h-152q-12 1 -42 35t-51 67l-91 144q-38 56 -55 69h-36l-8 -151q-4 -65 -8 -90q31 3 75 3l-4 -77h-285l4 66q26 1 40.5 6.5t23.5 23.5t11 57l20 383q3 57 9 90
l-75 -3l4 77h284l-3 -66q-27 -1 -41.5 -6.5t-23.5 -23.5t-11 -57l-8 -152h73l83 131q27 41 44.5 66t29.5 34v1q-22 -2 -38 -2.5t-25 -1.5l3 77h245zM315 818l122 118q13 12 28.5 19.5t30.5 7.5q25 0 38 -20q9 -13 9 -28q0 -17 -12.5 -33.5t-31.5 -27.5l-150 -84z" />
    <glyph glyph-name="uni040D" unicode="&#x40d;" horiz-adv-x="772" 
d="M686 164q-4 -68 -9 -90l76 3l-4 -77h-286l4 66q27 1 41.5 6.5t23.5 23.5t11 57l17 321l-306 -343q-2 -30 -7 -57l76 3l-5 -77h-283l4 66q27 1 41.5 6.5t23.5 23.5t11 57l20 383q4 68 9 90l-76 -3l4 77h283l-3 -66q-27 -1 -41.5 -6.5t-23.5 -23.5t-11 -57l-16 -305
l306 338q3 32 6 46l-76 -3l4 77h286l-4 -66q-27 -1 -41.5 -6.5t-23.5 -23.5t-11 -57zM348 854q-17 10 -27.5 25.5t-10.5 32.5q0 16 12 31q16 20 40 20q30 0 57 -27l109 -117l-39 -49z" />
    <glyph glyph-name="uni040E" unicode="&#x40e;" horiz-adv-x="639" 
d="M677 700l-3 -66q-38 -6 -66 -29.5t-54 -77.5l-174 -357q-49 -101 -105 -143.5t-112 -42.5q-47 0 -76 25.5t-29 67.5q0 36 20 62.5t60 26.5q31 0 48.5 -16.5t17.5 -41.5t-18 -48q4 -7 14 -7q21 0 45 28t60 95l-197 355q-14 26 -24 53t-9 42l-48 -3l4 77h289l-3 -66
q-34 2 -53.5 -8t-19.5 -33q0 -16 10 -36l71 -142q34 -68 42 -108l105 228q19 46 57 91v1l-77 -4l4 77h221zM264 781.5q-40 23.5 -40 65.5q0 32 19 48.5t45 16.5q28 0 41 -17t13 -36q-3 -20 -14 -34q17 -14 50 -14t56 14q13 9 23.5 23.5t28.5 45.5l53 -38q-36 -48 -83 -73
t-99 -25q-53 0 -93 23.5z" />
    <glyph glyph-name="uni040F" unicode="&#x40f;" horiz-adv-x="789" 
d="M663 164q-3 -57 -9 -90l75 3l-4 -77h-296l-9 -158h-72q2 34 2 47q0 56 -14 83.5t-46 27.5h-255l4 66q27 1 41 6.5t23 23.5t11 57l20 383q3 57 9 90q-32 -3 -75 -3l4 77h285l-4 -66q-27 -1 -41.5 -6.5t-23.5 -23.5t-11 -57l-22 -472l169 3h33q29 0 44 16t19 60l20 382
q4 65 8 90q-32 -3 -75 -3l4 77h285l-4 -66q-26 -1 -40.5 -6.5t-23.5 -23.5t-11 -57z" />
    <glyph glyph-name="uni0410" unicode="&#x410;" horiz-adv-x="667" 
d="M569 173q21 -70 23 -99q32 3 57 3l-3 -77h-268l4 66q51 0 51 43q0 14 -9 45l-17 55l-219 -4l-19 -47q-22 -55 -36 -81q33 3 74 3l-5 -80h-214l4 69q26 0 43.5 15t29 36t29.5 63l223 535h67zM314 542q-8 -39 -46 -132l-51 -130h168l-39 125q-26 88 -31 137h-1z" />
    <glyph glyph-name="uni0411" unicode="&#x411;" horiz-adv-x="659" 
d="M38 66q27 1 41.5 6.5t23.5 23.5t11 57l20 383q3 57 9 90l-76 -3l5 77h528l-5 -194h-66q4 74 -30 102t-84 27l-66 -1q-24 0 -38 -6t-23 -24.5t-11 -56.5l-7 -140l60 2q173 4 237 -51.5t60 -158.5q-4 -95 -74.5 -147t-179.5 -52h-338zM346 72q64 3 93.5 37.5t29.5 105.5
q0 68 -32.5 94.5t-89.5 27.5l-37 1q-14 0 -44 -2l-9 -177q-3 -62 -8 -88q66 0 97 1z" />
    <glyph glyph-name="uni0412" unicode="&#x412;" horiz-adv-x="659" 
d="M526 662q65 -41 65 -120q0 -14 -1 -22q-6 -47 -43 -85t-105 -56v-1q94 -15 139.5 -64t42.5 -115q-5 -95 -74 -147t-177 -52h-338l4 66q26 1 40.5 6.5t23.5 23.5t11 57l20 383q3 57 9 90l-75 -3l4 77l275 2q114 1 179 -40zM309 627q-13 -5 -21.5 -23.5t-10.5 -55.5
l-8 -155l52 1q63 1 91 41t28 103q0 49 -28 71.5t-69 22.5q-21 0 -34 -5zM265 322l-8 -163q-3 -54 -9 -88q66 0 98 1q61 3 92 40.5t31 99.5q0 58 -35 84.5t-88 26.5q-55 0 -81 -1z" />
    <glyph glyph-name="uni0413" unicode="&#x413;" horiz-adv-x="566" 
d="M39 66q26 1 40.5 6.5t23.5 23.5t11 57l20 383q3 57 9 90l-75 -3l4 77h498l-5 -194h-65q3 74 -31 102.5t-84 26.5l-36 -1q-24 -1 -38.5 -6.5t-23 -24.5t-10.5 -56l-20 -383q-4 -65 -8 -90q31 3 88 3l-4 -77h-298z" />
    <glyph glyph-name="uni0414" unicode="&#x414;" horiz-adv-x="691" 
d="M569 164q-3 -54 -9 -90l100 3l-12 -254h-73q2 32 2 47q0 63 -18 96.5t-61 33.5h-342q-99 0 -104 -177h-73l12 251h31q78 0 126 129t63 355l4 68l-107 -3l4 77h556l-3 -66q-27 -1 -41.5 -6.5t-23.5 -23.5t-11 -57zM348 74q27 2 41.5 7t23.5 23.5t11 56.5l24 464l-88 -3
q-39 -2 -55.5 -13.5t-19.5 -45.5q-26 -356 -140 -489h203z" />
    <glyph glyph-name="uni0415" unicode="&#x415;" horiz-adv-x="623" 
d="M565 506h-65q3 74 -31 102.5t-84 26.5l-36 -1q-24 -1 -38.5 -6.5t-23 -24.5t-10.5 -56l-7 -150h117v87h77l-12 -243h-66q2 40 -9.5 59t-31.5 24.5t-53 4.5l-26 -1l-9 -164q-3 -62 -8 -88h134q51 0 88 34.5t41 109.5h66l-17 -220h-526l4 66q26 1 40.5 6.5t23.5 23.5t11 57
l20 383q3 57 9 90l-75 -3l4 77h498z" />
    <glyph glyph-name="uni0416" unicode="&#x416;" horiz-adv-x="1046" 
d="M-4 66q31 1 65 30t72 78l111 145q25 34 65 58v1l-112 154q-43 57 -77.5 78.5t-71.5 23.5l3 66h231l-4 -77q-9 1 -25 1.5t-38 2.5v-1q18 -15 79 -100l94 -131h70l8 141q4 68 9 90l-76 -3l4 77h287l-3 -66q-27 -1 -41.5 -6.5t-23.5 -23.5t-11 -57l-8 -152h74l108 131
q35 43 55.5 66.5t33.5 33.5v1q-22 -2 -38.5 -2.5t-25.5 -1.5l4 77h228l-3 -66q-38 -2 -75.5 -23.5t-85.5 -78.5l-128 -154v-1q35 -22 60 -58l95 -145q32 -49 63.5 -78t62.5 -30l-4 -66h-154q-11 1 -41 35t-51 67l-91 144q-5 7 -23 32.5t-32 36.5h-36l-8 -151q-3 -57 -9 -90
q33 3 76 3l-5 -77h-287l4 66q27 1 41.5 6.5t23.5 23.5t11 57l8 162h-36q-20 -14 -62 -69l-106 -144q-24 -33 -58 -67t-46 -35h-154z" />
    <glyph glyph-name="uni0417" unicode="&#x417;" horiz-adv-x="660" 
d="M26 144l51 44q47 -59 105 -91t121 -32q69 0 117 36.5t48 109.5q0 53 -30.5 82.5t-72.5 29.5h-127l4 71h94q63 0 91.5 36t28.5 97q0 58 -29.5 87t-79.5 30q-63 -1 -112.5 -44.5t-66.5 -123.5h-65l13 233h77l-6 -42h1q45 25 100 37t110 12q96 0 151.5 -43.5t55.5 -119.5
q0 -66 -36.5 -112t-108.5 -67v-3q82 -13 123.5 -59t41.5 -111q0 -68 -38.5 -117t-104.5 -74.5t-147 -25.5q-200 0 -309 160z" />
    <glyph glyph-name="uni0418" unicode="&#x418;" horiz-adv-x="772" 
d="M686 164q-4 -68 -9 -90l76 3l-4 -77h-286l4 66q27 1 41.5 6.5t23.5 23.5t11 57l17 321l-306 -343q-2 -30 -7 -57l76 3l-5 -77h-283l4 66q27 1 41.5 6.5t23.5 23.5t11 57l20 383q4 68 9 90l-76 -3l4 77h283l-3 -66q-27 -1 -41.5 -6.5t-23.5 -23.5t-11 -57l-16 -305
l306 338q3 32 6 46l-76 -3l4 77h286l-4 -66q-27 -1 -41.5 -6.5t-23.5 -23.5t-11 -57z" />
    <glyph glyph-name="uni0419" unicode="&#x419;" horiz-adv-x="772" 
d="M686 164q-4 -68 -9 -90l76 3l-4 -77h-286l4 66q27 1 41.5 6.5t23.5 23.5t11 57l17 321l-306 -343q-2 -30 -7 -57l76 3l-5 -77h-283l4 66q27 1 41.5 6.5t23.5 23.5t11 57l20 383q4 68 9 90l-76 -3l4 77h283l-3 -66q-27 -1 -41.5 -6.5t-23.5 -23.5t-11 -57l-16 -305
l306 338q3 32 6 46l-76 -3l4 77h286l-4 -66q-27 -1 -41.5 -6.5t-23.5 -23.5t-11 -57zM330 781.5q-40 23.5 -40 65.5q0 32 19 48.5t45 16.5q28 0 41 -17t13 -36q-3 -20 -14 -34q17 -14 50 -14t56 14q13 9 23.5 23.5t28.5 45.5l53 -38q-36 -48 -83 -73t-99 -25q-53 0 -93 23.5
z" />
    <glyph glyph-name="uni041A" unicode="&#x41a;" horiz-adv-x="711" 
d="M681 634q-43 -2 -81.5 -22t-78.5 -80l-104 -154v-1q37 -24 59 -58l94 -145q32 -49 63.5 -78t62.5 -30l-4 -66h-152q-12 1 -42 35t-51 67l-91 144q-38 56 -55 69h-36l-8 -151q-4 -65 -8 -90q31 3 75 3l-4 -77h-285l4 66q26 1 40.5 6.5t23.5 23.5t11 57l20 383q3 57 9 90
l-75 -3l4 77h284l-3 -66q-27 -1 -41.5 -6.5t-23.5 -23.5t-11 -57l-8 -152h73l83 131q27 41 44.5 66t29.5 34v1q-22 -2 -38 -2.5t-25 -1.5l3 77h245z" />
    <glyph glyph-name="uni041B" unicode="&#x41b;" horiz-adv-x="780" 
d="M38.5 12q-30.5 23 -30.5 61t20 63t57 25q29 0 48.5 -21t19.5 -45q0 -7 -4 -17q4 -3 15 -3q22 0 52 47.5t54.5 146t31.5 241.5l6 116l-117 -3l4 77h557l-3 -66q-27 -1 -41.5 -6.5t-23.5 -23.5t-11 -57l-20 -383q-4 -65 -8 -90q31 3 75 3l-4 -77h-287l3 66q27 1 41.5 6.5
t23.5 23.5t11 57l25 472l-81 -3q-35 -1 -52 -14t-18 -45q-9 -203 -47 -331.5t-95 -185.5t-127 -57q-44 0 -74.5 23z" />
    <glyph glyph-name="uni041C" unicode="&#x41c;" horiz-adv-x="970" 
d="M932 634q-27 -1 -42 -6.5t-24.5 -23.5t-9.5 -57l-5 -383q0 -52 -9 -90q33 3 76 3l-4 -77h-280l4 66q27 1 42 6.5t24 23.5t9 57l3 212q1 24 1 177h-1l-229 -552h-90l-122 329q-13 33 -31 97t-28 119h-1l-1 -43q-5 -133 -6 -147l-11 -181q-3 -57 -9 -90q33 3 76 3l-4 -77
h-228l4 66q27 1 41 6.5t22.5 23.5t11.5 57l26 383q6 74 9 90l-76 -3l5 77h214l137 -388q17 -51 36 -118l12 -44h1l27 66q9 24 16 41.5t12 29.5l173 413h233z" />
    <glyph glyph-name="uni041D" unicode="&#x41d;" horiz-adv-x="802" 
d="M771 634q-27 -1 -41.5 -6.5t-23.5 -23.5t-11 -57l-20 -383q-3 -57 -9 -90q33 3 75 3l-4 -77h-284l3 66q27 1 41.5 6.5t23.5 23.5t11 57l9 162l-276 -3l-8 -148q-4 -65 -8 -90q31 3 75 3l-4 -77h-285l4 66q26 1 40.5 6.5t23.5 23.5t11 57l20 383q3 57 9 90l-75 -3l4 77
h284l-3 -66q-27 -1 -41.5 -6.5t-23.5 -23.5t-11 -57l-8 -156h275l8 145q4 68 9 90l-76 -3l4 77h285z" />
    <glyph glyph-name="uni041E" unicode="&#x41e;" horiz-adv-x="762" 
d="M589 665.5q73 -50.5 107 -129t34 -165.5q0 -90 -42 -179.5t-124.5 -148.5t-198.5 -59q-114 0 -187 48t-106 124.5t-33 165.5q0 19 1 28q4 89 47.5 173t125 138.5t193.5 54.5q110 0 183 -50.5zM278 599q-45 -49 -65 -121t-20 -143q0 -68 18.5 -132.5t60 -107.5t106.5 -43
t108.5 42t65 106.5t24.5 132.5q1 12 1 36q0 128 -46 203.5t-137 75.5q-71 0 -116 -49z" />
    <glyph glyph-name="uni041F" unicode="&#x41f;" horiz-adv-x="789" 
d="M39 66q26 1 40.5 6.5t23.5 23.5t11 57l20 383q3 57 9 90l-75 -3l4 77h690l-4 -66q-27 -1 -41 -6.5t-23 -23.5t-11 -57l-20 -383q-3 -57 -9 -90q32 3 75 3l-4 -77h-285l4 66q27 1 41.5 6.5t23.5 23.5t11 57l22 472l-202 -3q-29 0 -44 -16t-19 -60l-20 -382q-4 -65 -8 -90
q31 3 75 3l-4 -77h-285z" />
    <glyph glyph-name="uni0420" unicode="&#x420;" horiz-adv-x="632" 
d="M555.5 653q72.5 -50 72.5 -153q0 -17 -1 -25q-5 -56 -39 -105.5t-98.5 -81.5t-155.5 -35l-39 -1l-33 1l-5 -88q-4 -66 -8 -91q31 3 84 3l-3 -77h-295l4 66q26 1 40.5 6.5t23.5 23.5t11 57l20 383q3 57 9 90l-75 -3l4 77l282 2q129 1 201.5 -49zM297 617q-17 -15 -20 -64
l-11 -225q21 -3 45 -3q81 0 120.5 40t44.5 119q7 148 -127 148q-35 0 -52 -15z" />
    <glyph glyph-name="uni0421" unicode="&#x421;" horiz-adv-x="690" 
d="M493.5 703q45.5 -13 83.5 -36h1l-1 42h77l-12 -233h-66q-9 84 -49.5 128t-110.5 44q-71 0 -121.5 -46t-76 -118.5t-25.5 -152.5q0 -121 53 -196t148 -75q63 0 126.5 31t111.5 93l39 -40q-70 -91 -150.5 -125.5t-158.5 -34.5q-97 0 -171 44t-114 120t-40 170
q0 98 43.5 190t128 150t199.5 58q40 0 85.5 -13z" />
    <glyph glyph-name="uni0422" unicode="&#x422;" horiz-adv-x="648" 
d="M644 474h-66q4 79 -26.5 119.5t-88.5 39.5h-48l-24 -469q-3 -57 -9 -90q32 3 80 3l-4 -77h-290l4 66q27 1 41.5 6.5t23.5 23.5t11 57l25 479h-46q-59 -1 -93.5 -40t-38.5 -118h-66l17 226h604z" />
    <glyph glyph-name="uni0423" unicode="&#x423;" horiz-adv-x="639" 
d="M677 700l-3 -66q-38 -6 -66 -29.5t-54 -77.5l-174 -357q-49 -101 -105 -143.5t-112 -42.5q-47 0 -76 25.5t-29 67.5q0 36 20 62.5t60 26.5q31 0 48.5 -16.5t17.5 -41.5t-18 -48q4 -7 14 -7q21 0 45 28t60 95l-197 355q-14 26 -24 53t-9 42l-48 -3l4 77h289l-3 -66
q-34 2 -53.5 -8t-19.5 -33q0 -16 10 -36l71 -142q34 -68 42 -108l105 228q19 46 57 91v1l-77 -4l4 77h221z" />
    <glyph glyph-name="uni0424" unicode="&#x424;" horiz-adv-x="860" 
d="M690.5 589.5q70.5 -40.5 104 -100t33.5 -127.5q0 -72 -39 -133.5t-117 -102.5t-190 -52q-3 -40 -7 -53l75 2l-4 -77h-277l3 66q24 2 37 6t22.5 16t13.5 38q-157 12 -231 81.5t-74 173.5q0 82 38.5 149.5t114.5 111.5t185 54q4 40 6 53q-32 -3 -75 -3l4 77h277l-3 -66
q-24 -1 -37.5 -5t-22.5 -17t-13 -40q106 -11 176.5 -51.5zM228 204q41 -50 122 -64l24 436q-94 -15 -140.5 -78t-46.5 -163q0 -81 41 -131zM638 502q-42 56 -129 73l-24 -438q101 12 148 64.5t47 154.5q0 90 -42 146z" />
    <glyph glyph-name="uni0425" unicode="&#x425;" horiz-adv-x="700" 
d="M668 634q-34 -4 -69 -31t-78 -82l-103 -131l176 -240q15 -20 29 -40.5t21 -35.5q33 3 39 3l-4 -77h-297l4 66q57 0 57 25q0 15 -21 43l-94 129h-1l-94 -121q-38 -49 -59 -68v-1q44 4 72 4l-4 -77h-221l4 66q29 7 59.5 32.5t69.5 74.5l125 155l-151 204q-39 52 -55 94
q6 0 -40 -3l4 77h302l-4 -66q-63 0 -63 -30q0 -16 17 -38l82 -113h1l81 105q34 43 62 68v1l-51 -3l-24 -1l4 77h228z" />
    <glyph glyph-name="uni0426" unicode="&#x426;" horiz-adv-x="794" 
d="M765 79l-14 -256h-73q2 38 2 54q0 60 -14.5 91.5t-48.5 31.5h-582l4 66q27 1 41 6.5t23 23.5t11 57l20 383q3 57 9 90q-32 -3 -75 -3l4 77h285l-4 -66q-27 -1 -41.5 -6.5t-23.5 -23.5t-11 -57l-22 -472l202 3q29 0 44 16t19 60l20 382q4 65 8 90q-32 -3 -75 -3l4 77h285
l-4 -66q-26 -1 -40.5 -6.5t-23.5 -23.5t-11 -57l-20 -383q-3 -57 -9 -90h4z" />
    <glyph glyph-name="uni0427" unicode="&#x427;" horiz-adv-x="734" 
d="M607 164q-4 -65 -8 -90q32 3 75 3l-4 -77h-285l4 66q26 1 40.5 6.5t23.5 23.5t11 57l8 153q-45 -25 -87 -38.5t-88 -13.5q-185 0 -185 190l1 23q6 124 12 159l-76 -3l5 77h284l-3 -66q-27 -1 -41.5 -6.5t-23.5 -23.5t-11 -57l-5 -81q-4 -120 102 -120q29 0 63 10.5
t57 25.5l8 154q3 57 9 90l-75 -3l4 77h284l-3 -66q-27 -1 -41.5 -6.5t-23.5 -23.5t-11 -57z" />
    <glyph glyph-name="uni0428" unicode="&#x428;" horiz-adv-x="1100" 
d="M39 66q27 1 41.5 6.5t23.5 23.5t11 57l20 383q4 68 9 90l-76 -3l4 77h287l-3 -66q-27 -1 -41.5 -6.5t-23.5 -23.5t-11 -57l-25 -471l142 2q27 2 41 7t23 23t11 57l19 371q3 57 9 90l-76 -3l5 77h287l-4 -66q-27 -1 -41.5 -6.5t-23.5 -23.5t-11 -57l-20 -383
q-4 -63 -8 -88l146 2q25 1 39.5 6t23.5 23.5t11 57.5l20 371q4 65 8 90l-75 -3l4 77h287l-3 -66q-27 -1 -41.5 -6.5t-23.5 -23.5t-11 -57l-20 -383q-3 -57 -9 -90q33 3 76 3l-5 -77h-1000z" />
    <glyph glyph-name="uni0429" unicode="&#x429;" horiz-adv-x="1104" 
d="M1075 79l-14 -256h-73q2 38 2 54q0 60 -14.5 91.5t-48.5 31.5h-892l4 66q27 1 41.5 6.5t23.5 23.5t11 57l20 383q4 68 9 90l-76 -3l4 77h287l-3 -66q-27 -1 -41.5 -6.5t-23.5 -23.5t-11 -57l-25 -471l142 2q27 2 41 7t23 23t11 57l19 371q3 57 9 90l-76 -3l5 77h287
l-4 -66q-27 -1 -41.5 -6.5t-23.5 -23.5t-11 -57l-20 -383q-4 -63 -8 -88l146 2q25 1 39.5 6t23.5 23.5t11 57.5l20 371q4 65 8 90l-75 -3l4 77h287l-3 -66q-27 -1 -41.5 -6.5t-23.5 -23.5t-11 -57l-20 -383q-3 -57 -9 -90q26 3 64 3z" />
    <glyph glyph-name="uni042A" unicode="&#x42a;" horiz-adv-x="782" 
d="M172 66q27 1 41.5 6.5t23.5 23.5t11 57l25 479h-46q-59 -1 -93.5 -40t-38.5 -118h-66l18 226h446l-4 -66q-27 -1 -41.5 -6.5t-23.5 -23.5t-11 -57l-7 -140l35 2q158 6 227.5 -51t69.5 -146q0 -101 -70.5 -156.5t-183.5 -55.5h-316zM458 72q62 3 92.5 42t30.5 106
q0 120 -122 117l-57 -1l-9 -177q-4 -65 -9 -88q50 0 74 1z" />
    <glyph glyph-name="uni042B" unicode="&#x42b;" horiz-adv-x="969" 
d="M39 66q27 1 41.5 6.5t23.5 23.5t11 57l20 383q4 68 9 90l-76 -3l4 77h287l-3 -66q-27 -1 -41.5 -6.5t-23.5 -23.5t-11 -57l-8 -140l36 2q154 6 222 -52t68 -147q0 -66 -32.5 -113.5t-88.5 -72t-126 -24.5h-316zM938 634q-27 -1 -41.5 -6.5t-23.5 -23.5t-11 -57l-20 -383
q-4 -65 -8 -90q32 3 75 3l-4 -77h-285l4 66q26 1 40.5 6.5t23.5 23.5t11 57l20 383q3 57 9 90l-75 -3l4 77h284zM324 72q57 3 86.5 42.5t29.5 105.5q0 63 -31 90.5t-83 26.5l-57 -1l-9 -177q-3 -54 -9 -88q49 0 73 1z" />
    <glyph glyph-name="uni042C" unicode="&#x42c;" horiz-adv-x="649" 
d="M39 66q27 1 41.5 6.5t23.5 23.5t11 57l20 383q4 68 9 90l-76 -3l4 77h287l-3 -66q-27 -1 -41.5 -6.5t-23.5 -23.5t-11 -57l-8 -140l36 2q158 6 227.5 -51.5t69.5 -147.5q0 -67 -33 -114t-90.5 -71.5t-130.5 -24.5h-316zM324 72q63 3 93.5 42t30.5 106q0 120 -122 117
l-57 -1l-9 -177q-3 -54 -9 -88q49 0 73 1z" />
    <glyph glyph-name="uni042D" unicode="&#x42d;" horiz-adv-x="702" 
d="M526 665.5q72 -50.5 108.5 -132t36.5 -172.5q0 -104 -46 -190t-128.5 -136.5t-187.5 -50.5q-78 0 -155 34.5t-138 125.5l50 44q40 -62 102 -98.5t125 -36.5q92 0 151 75.5t71 199.5l-162 1q-33 0 -53.5 -5t-34 -24t-15.5 -59h-62l13 218h73l-9 -62h252
q-3 108 -52.5 179.5t-141.5 71.5q-68 -1 -113 -40.5t-64 -117.5h-65l12 219h77l-5 -42h1q40 24 89 36.5t98 12.5q101 0 173 -50.5z" />
    <glyph glyph-name="uni042E" unicode="&#x42e;" horiz-adv-x="1110" 
d="M939 666q73 -50 106.5 -129t33.5 -166q0 -90 -42 -179.5t-125.5 -148.5t-199.5 -59q-105 0 -173 46.5t-99.5 121t-33.5 162.5l-141 -2l-8 -148q-4 -65 -8 -90q31 3 75 3l-4 -77h-285l4 66q26 1 40.5 6.5t23.5 23.5t11 57l20 383q3 57 9 90l-75 -3l4 77h284l-3 -66
q-27 -1 -41.5 -6.5t-23.5 -23.5t-11 -57l-8 -156h142q12 84 55 158t116.5 120.5t171.5 46.5q112 0 185 -50zM925 369q0 126 -46.5 202.5t-136.5 76.5q-65 0 -105.5 -49.5t-58.5 -121.5t-18 -144q0 -68 16.5 -132t53.5 -106.5t96 -42.5q65 0 108 42t64.5 106t25.5 133
q1 12 1 36z" />
    <glyph glyph-name="uni042F" unicode="&#x42f;" horiz-adv-x="736" 
d="M609 164q-4 -68 -9 -90q33 3 75 3l-4 -77h-284l3 66q27 1 41.5 6.5t23.5 23.5t11 57l6 119q-34 -1 -54 -5t-39.5 -19t-40.5 -46l-69 -100q-22 -31 -56.5 -66t-46.5 -36h-147l3 66q32 1 68 31t69 77l41 58q21 32 42.5 48.5t50.5 25.5q-84 25 -125 70.5t-41 112.5
q0 99 67.5 155t177.5 56h336l-3 -66q-27 -1 -41.5 -6.5t-23.5 -23.5t-11 -57zM496 630h-73q-67 0 -104 -34t-37 -113q0 -67 37 -103t112 -36q11 0 24.5 1t20.5 2l11 209q1 36 9 74z" />
    <glyph glyph-name="uni0430" unicode="&#x430;" horiz-adv-x="549" 
d="M471 490l-8 -53q-2 -18 -20 -146t-18 -180q0 -29 14 -29q29 0 51 79l54 -16q-11 -57 -45.5 -106.5t-93.5 -49.5q-80 0 -80 91q0 35 4 58h-1q-34 -82 -77 -115.5t-93 -33.5q-58 0 -95.5 46.5t-37.5 135.5q0 93 36 170.5t104.5 123.5t161.5 46q55 0 144 -21zM197 372.5
q-35 -72.5 -35 -206.5q0 -41 10 -64.5t28 -23.5q34 0 62.5 56.5t46.5 140.5t22 164q-21 6 -41 6q-58 0 -93 -72.5z" />
    <glyph glyph-name="uni0431" unicode="&#x431;" horiz-adv-x="535" 
d="M93.5 63.5q-56.5 74.5 -56.5 214.5q0 23 1 35q5 117 38 205t113 140q38 25 76.5 35.5t94.5 19.5q53 7 74 16q13 6 21.5 14t21.5 27l44 -16q-15 -52 -27 -80.5t-27 -43.5t-38 -24q-26 -7 -81 -11q-35 -3 -58 -6.5t-45 -10.5q-64 -21 -102 -77.5t-49 -143.5h3
q29 62 81.5 93t113.5 32q54 0 100.5 -24.5t74.5 -73t28 -116.5q0 -83 -33.5 -146.5t-91 -98t-127.5 -34.5q-93 0 -149.5 74.5zM332 105.5q21 50.5 25 129.5q3 72 -15 126t-61 54q-42 0 -69.5 -46t-30.5 -106q-3 -83 17 -145.5t63 -62.5q50 0 71 50.5z" />
    <glyph glyph-name="uni0432" unicode="&#x432;" horiz-adv-x="507" 
d="M435.5 243.5q30.5 -31.5 30.5 -77.5q0 -49 -31 -89.5t-85 -64t-121 -23.5q-103 0 -152.5 58.5t-49.5 157.5q0 77 30 147.5t88.5 114.5t139.5 44q63 0 108 -29t45 -80q0 -37 -25 -69.5t-79 -55.5q71 -2 101.5 -33.5zM207.5 397q-30.5 -48 -40.5 -123q59 14 91 32t44 41.5
t12 56.5q0 41 -35 41q-41 0 -71.5 -48zM317.5 85.5q22.5 23.5 22.5 60.5q0 35 -20 59t-60 24q-7 0 -23 -2l-72 -19q8 -146 94 -146q36 0 58.5 23.5z" />
    <glyph glyph-name="uni0433" unicode="&#x433;" horiz-adv-x="443" 
d="M82.5 15q-49.5 31 -49.5 90q0 33 16.5 60t50 53t94.5 62q41 24 59.5 43.5t18.5 47.5q0 23 -14.5 37t-40.5 14q-39 0 -71.5 -18.5t-65.5 -57.5l-48 36q46 62 105.5 96t131.5 34t105.5 -32.5t33.5 -80.5q0 -49 -32 -81t-106 -73q-53 -29 -75.5 -52.5t-22.5 -52.5
q0 -32 22.5 -47t52.5 -15q68 0 133 79l48 -39q-45 -62 -99 -98t-133 -36q-64 0 -113.5 31z" />
    <glyph glyph-name="uni0434" unicode="&#x434;" horiz-adv-x="524" 
d="M126.5 14.5q-46.5 25.5 -73 74t-26.5 115.5q0 85 34 153t90.5 105.5t121.5 37.5q33 0 57.5 -11.5t43.5 -39.5q-6 121 -46.5 183.5t-102.5 62.5q-47 0 -97 -34l-30 38q39 30 71.5 45t71.5 15q80 0 137 -52.5t86.5 -144.5t29.5 -211q0 -34 -1 -52q-5 -109 -42.5 -178.5
t-94.5 -100.5t-124 -31q-59 0 -105.5 25.5zM324 109.5q33 54.5 42 160.5q2 26 2 38q0 54 -18.5 88.5t-57.5 34.5q-35 0 -64.5 -27.5t-47.5 -79.5t-18 -123q0 -73 23 -109.5t58 -36.5q48 0 81 54.5z" />
    <glyph glyph-name="uni0435" unicode="&#x435;" horiz-adv-x="470" 
d="M389.5 480q40.5 -31 40.5 -95q0 -73 -76 -110t-190 -53q0 -78 26 -109.5t64 -31.5q34 0 70 20.5t60 75.5l56 -27q-40 -92 -94 -126.5t-122 -34.5q-93 0 -145 55t-52 163q0 70 28 140t85 117t140 47q69 0 109.5 -31zM198.5 399q-24.5 -46 -31.5 -112q76 14 111 42.5
t35 67.5q0 24 -13.5 36t-30.5 12q-46 0 -70.5 -46z" />
    <glyph glyph-name="uni0436" unicode="&#x436;" horiz-adv-x="929" 
d="M903 152q-30 -91 -71 -126.5t-96 -36.5q-71 1 -113.5 53.5t-42.5 164.5v11l-60 -1q-10 -98 -9 -152q0 -34 4 -65h-130q-2 15 -2 36q0 44 15 181l-54 -1q-15 -101 -64 -164t-124 -63q-53 0 -90 33.5t-37 86.5q0 28 14 44.5t40 16.5q23 0 39 -13.5t16 -31.5q0 -17 -7 -28
t-22 -20q7 -41 42 -41q31 0 50 41.5t27 97t8 102.5q0 75 -19 116t-49 41q-23 0 -48 -27.5t-45 -80.5l-49 22q30 91 71 126.5t96 36.5q71 -1 113.5 -53.5t42.5 -164.5v-7h57q11 92 11 149q-2 45 -5 65h127q3 -15 3 -36q0 -46 -14 -178h58q14 99 63 162t124 63q53 0 90 -33.5
t37 -86.5q0 -28 -14 -44.5t-39 -16.5q-23 0 -39.5 13.5t-16.5 31.5q0 17 7 28t22 20q-7 41 -42 41q-31 0 -50 -41t-27 -97t-8 -103q0 -75 19 -116t49 -41q23 0 48 27.5t45 80.5z" />
    <glyph glyph-name="uni0437" unicode="&#x437;" horiz-adv-x="484" 
d="M107.5 0.5q-44.5 17.5 -69.5 46t-25 60.5q0 29 19 50t50 21t45.5 -18t14.5 -43q0 -18 -11 -38q3 -14 26 -25.5t48 -11.5q48 0 74 27t26 74q0 90 -98 90q-29 0 -54 -5l-9 51q59 13 90.5 26.5t44 32t12.5 47.5q0 34 -19.5 50.5t-50.5 16.5q-20 0 -39.5 -6.5t-27.5 -17.5
q9 -9 12 -18t3 -25q0 -21 -17 -36.5t-43 -15.5t-43 16t-17 43q0 31 24 58.5t66.5 44.5t94.5 17q87 0 137.5 -30.5t50.5 -87.5q0 -80 -120 -116v-3q70 -7 105.5 -40.5t35.5 -81.5q0 -45 -24.5 -83.5t-77 -62.5t-132.5 -24q-57 0 -101.5 17.5z" />
    <glyph glyph-name="uni0438" unicode="&#x438;" horiz-adv-x="598" 
d="M224 483q21 -28 21 -85q0 -45 -14 -153q-12 -96 -12 -122q0 -22 6.5 -32t21.5 -10q27 0 58.5 57t53 139.5t21.5 150.5q0 48 -3 72h129q3 -28 3 -48q0 -32 -7 -93.5t-15 -120.5q-15 -109 -15 -130q0 -26 14 -26q26 0 48 79l54 -16q-11 -59 -43 -107.5t-90 -48.5
q-37 0 -60.5 21t-23.5 70q0 18 2 36.5t3 28.5h-1q-59 -156 -164 -156q-62 0 -91 40.5t-29 113.5q0 32 6 74t7 51q13 82 13 124q0 26 -16 26q-26 0 -48 -79l-54 16q6 33 25.5 69t51.5 61.5t74 25.5q53 0 74 -28z" />
    <glyph glyph-name="uni0439" unicode="&#x439;" horiz-adv-x="598" 
d="M224 483q21 -28 21 -85q0 -45 -14 -153q-12 -96 -12 -122q0 -22 6.5 -32t21.5 -10q27 0 58.5 57t53 139.5t21.5 150.5q0 48 -3 72h129q3 -28 3 -48q0 -32 -7 -93.5t-15 -120.5q-15 -109 -15 -130q0 -26 14 -26q26 0 48 79l54 -16q-11 -59 -43 -107.5t-90 -48.5
q-37 0 -60.5 21t-23.5 70q0 18 2 36.5t3 28.5h-1q-59 -156 -164 -156q-62 0 -91 40.5t-29 113.5q0 32 6 74t7 51q13 82 13 124q0 26 -16 26q-26 0 -48 -79l-54 16q6 33 25.5 69t51.5 61.5t74 25.5q53 0 74 -28zM199 609q-40 24 -40 66q0 31 19 47.5t45 16.5q28 0 41 -16.5
t13 -35.5q-2 -18 -14 -35q18 -15 49 -15q39 0 68 23q24 17 42 61l52 -37q-37 -48 -83.5 -73.5t-98.5 -25.5q-53 0 -93 24z" />
    <glyph glyph-name="uni043A" unicode="&#x43a;" horiz-adv-x="642" 
d="M604 145q-4 -36 -21 -72t-47.5 -60t-72.5 -24q-98 0 -104 120q-3 63 -16 90.5t-43 27.5l-66 -1q-12 -98 -12 -149q0 -26 3 -77h-133q-3 20 -3 48q0 32 7 93.5t15 120.5q2 18 8 65.5t6 64.5q0 15 -3 20.5t-11 5.5q-26 0 -48 -79l-55 16q7 33 27.5 69t54 61.5t77.5 25.5
q87 0 87 -116q0 -27 -12 -106h24q39 0 64 18.5t40 67.5q19 66 54 101t80 35q35 0 58 -20t23 -52q0 -29 -17.5 -50t-46.5 -21q-21 0 -36.5 11t-18.5 30q-14 -9 -21.5 -20.5t-19.5 -36.5q-16 -34 -33.5 -54t-40.5 -29q57 -4 87.5 -34t35.5 -88q3 -40 10 -54.5t18 -13.5
q11 0 22.5 17.5t25.5 64.5z" />
    <glyph glyph-name="uni043B" unicode="&#x43b;" horiz-adv-x="631" 
d="M625 145q-6 -32 -26 -68.5t-52.5 -62t-73.5 -25.5q-39 0 -65.5 23t-26.5 78q0 30 11 120q18 131 19 222l-28 -1q-18 -2 -26 -20q-39 -196 -102 -309t-172 -113q-36 0 -59.5 21.5t-23.5 53.5q0 29 19.5 49.5t44.5 20.5t41 -14t16 -36q0 -8 -1 -12q55 14 93.5 115.5
t61.5 243.5l-92 -1l6 70h354q3 -28 3 -48q0 -32 -7 -93.5t-15 -120.5q-15 -109 -15 -130q0 -26 14 -26q26 0 48 79z" />
    <glyph glyph-name="uni043C" unicode="&#x43c;" horiz-adv-x="877" 
d="M871 145q-7 -32 -27 -68.5t-53 -62t-75 -25.5q-37 0 -63.5 23.5t-26.5 80.5q0 25 6.5 76.5t7.5 63.5l21 185h-10q-59 -178 -94 -264.5t-70 -125.5t-83 -39q-36 0 -54 30.5t-21 103.5q-3 39 -3 100q0 118 7 195h-15q-30 -137 -58.5 -227t-71.5 -146t-103 -56
q-38 0 -61.5 21.5t-23.5 53.5q0 30 20.5 50t47.5 20q23 0 38.5 -14t15.5 -37q0 -6 -1 -10q41 17 76 120t55 237h-109l5 70h286q9 -33 9 -93l-1 -50q0 -70 6 -186l1 -26q2 -20 5 -29t9 -9q14 0 54 102.5t93 290.5h178q3 -28 3 -48q0 -32 -7 -93.5t-15 -120.5
q-15 -109 -15 -131q0 -25 14 -25q26 0 48 79z" />
    <glyph glyph-name="uni043D" unicode="&#x43d;" horiz-adv-x="610" 
d="M604 145q-6 -32 -26 -68.5t-52.5 -62t-73.5 -25.5q-39 0 -65.5 23t-26.5 78q0 29 9 106l3 21l-139 -1q-11 -84 -11 -139q0 -26 3 -77h-133q-3 20 -3 48q0 32 7 93.5t15 120.5q2 18 8 65.5t6 64.5q0 15 -3 20.5t-11 5.5q-26 0 -48 -79l-55 16q7 33 27 69t52.5 61.5
t74.5 25.5q44 0 68 -26.5t24 -89.5q0 -13 -8 -81q-2 -10 -4 -28h138q10 82 10 154q0 20 -2 60h134q3 -28 3 -48q0 -32 -7 -93.5t-15 -120.5q-15 -109 -15 -130q0 -26 14 -26q26 0 48 79z" />
    <glyph glyph-name="uni043E" unicode="&#x43e;" horiz-adv-x="515" 
d="M381.5 484.5q45.5 -26.5 72 -77t26.5 -119.5q0 -80 -30.5 -148.5t-87.5 -109.5t-133 -41q-97 0 -149 64t-52 163q0 80 31 147.5t88 107.5t132 40q57 0 102.5 -26.5zM211.5 418q-22.5 -27 -35 -73t-12.5 -101q0 -74 19 -131.5t62 -57.5q34 0 55.5 35t31.5 85.5t10 97.5
q0 69 -18 120.5t-61 51.5q-29 0 -51.5 -27z" />
    <glyph glyph-name="uni043F" unicode="&#x43f;" horiz-adv-x="610" 
d="M483 470.5q29 -40.5 29 -113.5q0 -36 -12 -124q-13 -82 -13 -125q0 -26 15 -26q26 0 48 79l54 -16q-6 -33 -25.5 -69t-51.5 -61.5t-74 -25.5q-53 0 -73.5 28t-20.5 85q0 45 14 153q2 17 6.5 58.5t4.5 63.5q0 23 -6.5 32.5t-21.5 9.5q-29 0 -61.5 -57t-54.5 -139t-22 -151
q0 -24 3 -72h-129q-3 28 -3 48q0 32 7 93.5t15 120.5q2 18 8 65.5t6 64.5q0 26 -14 26q-26 0 -48 -79l-55 16q13 60 44.5 108t89.5 48q37 0 60.5 -21t23.5 -70q0 -19 -2.5 -35.5t-3.5 -24.5h1q59 151 171 151q62 0 91 -40.5z" />
    <glyph glyph-name="uni0440" unicode="&#x440;" horiz-adv-x="575" 
d="M502.5 459q38.5 -52 38.5 -139q0 -97 -31.5 -171.5t-94.5 -117t-156 -42.5q-21 0 -32 1l-4 -82q-3 -50 -8 -90q32 3 66 3v-76h-253v65q34 0 46.5 22t16.5 68q35 378 35 489q0 29 -15 29q-26 0 -48 -79l-54 16q11 59 43.5 107.5t90.5 48.5q37 0 59.5 -21t22.5 -70
q0 -29 -4 -60h1q32 82 78 116.5t93 34.5q71 0 109.5 -52zM276 329q-31 -91 -45 -268q21 -6 40 -6q52 0 82 45.5t41 106t11 112.5q0 101 -49 101t-80 -91z" />
    <glyph glyph-name="uni0441" unicode="&#x441;" horiz-adv-x="467" 
d="M389 478q46 -33 46 -87q0 -31 -18 -50t-48 -19t-45 19t-15 40q0 23 10 42q-5 9 -18 15.5t-30 6.5q-59 0 -83 -71.5t-24 -153.5q0 -73 27.5 -106t64.5 -33q34 0 68 23t60 81l57 -28q-40 -92 -94.5 -129.5t-123.5 -38.5q-91 1 -143.5 55.5t-52.5 162.5q0 69 28 139.5
t84 117.5t134 47q70 0 116 -33z" />
    <glyph glyph-name="uni0442" unicode="&#x442;" horiz-adv-x="878" 
d="M750.5 470.5q29.5 -40.5 29.5 -113.5q0 -36 -12 -124q-13 -82 -13 -125q0 -26 15 -26q26 0 48 79l55 -16q-7 -33 -26.5 -69t-51.5 -61.5t-74 -25.5q-53 0 -73.5 28t-20.5 85q0 45 14 153q2 17 6.5 58.5t4.5 63.5q0 23 -6 32.5t-22 9.5q-29 0 -60.5 -55.5t-52.5 -136.5
t-21 -150q0 -39 3 -77h-129q-3 28 -3 67q0 59 6.5 124l7.5 75q9 81 9 111q0 23 -6.5 32.5t-21.5 9.5q-29 0 -62 -57t-55 -139t-22 -151q0 -24 3 -72h-128q-3 28 -3 48q0 32 7 93.5t15 120.5q2 18 8 65.5t6 64.5q0 26 -14 26q-26 0 -48 -79l-55 16q13 60 44.5 108t89.5 48
q37 0 60.5 -21t23.5 -70q0 -19 -2.5 -35.5t-3.5 -24.5h1q32 83 78 117t96 34q48 0 73 -30t25 -85q0 -23 -2 -36h1q59 151 167 151q62 0 91.5 -40.5z" />
    <glyph glyph-name="uni0443" unicode="&#x443;" horiz-adv-x="561" 
d="M494.5 470q25.5 -41 25.5 -99q0 -96 -60.5 -252t-152.5 -273t-184 -117q-45 0 -70 21.5t-25 56.5q0 31 19.5 50.5t44.5 19.5q26 0 41.5 -14t19.5 -40q3 -1 10 -1q31 0 67.5 40.5t53.5 76.5q-24 151 -143 425q-12 25 -22.5 39.5t-24.5 14.5q-37 0 -45 -75l-56 8
q6 58 42 109t107 51q79 0 123 -104q77 -187 102 -334h1q60 134 68 243q3 52 -12 70q-5 -1 -14 -1q-25 0 -43 17t-18 41q0 32 21 50t48 18q51 0 76.5 -41z" />
    <glyph glyph-name="uni0444" unicode="&#x444;" horiz-adv-x="776" 
d="M641 484.5q46 -26.5 73 -77t27 -119.5q0 -80 -30.5 -148.5t-87 -109.5t-131.5 -41q-37 0 -68 11l-5 -92q-3 -62 -7 -90q32 3 66 3v-76h-253v65q34 0 46.5 22t16.5 68l8 98q-31 -9 -67 -9q-97 0 -149 64t-52 163q0 80 31.5 147.5t87 107.5t124.5 40q41 0 70 -17q2 25 8 65
q2 10 3 19l2 18q2 13 4 27t4 29l-76 -3l4 76q63 0 100.5 9t50.5 21h55q-15 -111 -31 -255q36 11 72 11q58 0 104 -26.5zM302 70q16 207 31 354q-18 21 -50 21q-35 0 -62.5 -27t-42 -73t-14.5 -101q0 -76 20.5 -132.5t70.5 -56.5q24 0 47 15zM584.5 393.5
q-18.5 50.5 -68.5 51.5q-28 0 -58 -16q-21 -212 -29 -347q30 -27 63 -27q39 0 64 36t36 87t11 98q0 67 -18.5 117.5z" />
    <glyph glyph-name="uni0445" unicode="&#x445;" horiz-adv-x="543" 
d="M484.5 492.5q17.5 -18.5 17.5 -49.5q0 -25 -18.5 -44t-44.5 -19q-31 0 -48 21q-14 -11 -28.5 -37.5t-40.5 -89.5q35 -97 67 -154q11 -21 20 -29.5t18 -8.5q15 0 24 15.5t14 59.5l56 -8q-6 -62 -36.5 -111t-101.5 -49q-41 0 -68 26.5t-45 70.5l-32 75h-1q-24 -71 -47 -109
t-45.5 -50.5t-48.5 -12.5q-36 0 -58 19t-22 50q0 30 18.5 50t44.5 20q22 0 36.5 -11t19.5 -26q14 9 30 44.5t43 115.5q-13 36 -22 63q-4 10 -11.5 32t-14.5 38q-9 20 -17 27t-19 7q-33 0 -42 -75l-56 8q6 59 41 109.5t106 50.5q39 0 60.5 -22t37.5 -65q11 -28 22 -68
q37 95 70.5 125t68.5 30t52.5 -18.5z" />
    <glyph glyph-name="uni0446" unicode="&#x446;" horiz-adv-x="644" 
d="M564 39q0 -18 10 -34q17 -28 17 -58q0 -72 -94 -147l-38 38q27 31 34.5 49.5t5.5 39.5l-1 14q0 14 3 23.5t7.5 19t6.5 13.5l-8 2q-22 -10 -45 -10q-37 0 -60.5 21t-23.5 70q0 18 2 36.5t3 28.5h-1q-59 -156 -164 -156q-62 0 -91 40.5t-29 113.5q0 32 6 74t7 51
q13 82 13 124q0 26 -16 26q-26 0 -48 -79l-54 16q6 33 25.5 69t51.5 61.5t74 25.5q53 0 74 -28t21 -85q0 -45 -14 -153q-12 -96 -12 -122q0 -22 6.5 -32t21.5 -10q27 0 58.5 57t53 139.5t21.5 150.5q0 48 -3 72h129q3 -28 3 -48q0 -32 -7 -93.5t-15 -120.5
q-15 -109 -15 -130q0 -26 14 -26q26 0 48 79l54 -16q-8 -43 -26 -78q-5 -15 -5 -28z" />
    <glyph glyph-name="uni0447" unicode="&#x447;" horiz-adv-x="610" 
d="M604 145q-6 -32 -26.5 -68.5t-53 -62t-74.5 -25.5q-37 0 -63.5 24t-26.5 82q0 26 7 87l3 23q-65 -50 -142 -50q-55 0 -83.5 37t-28.5 100q0 10 2 34q8 50 8 67q0 14 -3.5 19.5t-11.5 5.5q-26 0 -48 -79l-55 16q7 33 27.5 69t55 61.5t79.5 25.5q47 0 65 -27.5t18 -78.5
q0 -23 -6 -79q-2 -20 -2 -28q0 -26 9.5 -38.5t31.5 -12.5q21 0 47.5 10t46.5 25q10 102 10 161q0 19 -2 57h134q3 -28 3 -48q0 -32 -7 -93.5t-15 -120.5q-15 -109 -15 -130q0 -26 14 -26q26 0 48 79z" />
    <glyph glyph-name="uni0448" unicode="&#x448;" horiz-adv-x="878" 
d="M128 29.5q-29 40.5 -29 113.5q0 43 13 125q12 88 12 124q0 26 -16 26q-26 0 -48 -79l-54 16q6 33 25.5 69t51.5 61.5t74 25.5q53 0 73.5 -28t20.5 -85q0 -45 -14 -153q-2 -17 -6.5 -58.5t-4.5 -63.5t6.5 -32t21.5 -10q29 0 61 55.5t53 136.5t21 150q0 27 -4 77h130
q3 -28 3 -67q0 -68 -15 -199q-9 -81 -9 -111q0 -22 6.5 -32t21.5 -10q29 0 62 57t55 139t22 151q0 24 -3 72h129q3 -28 3 -48q0 -32 -7 -93.5t-15 -120.5q-15 -109 -15 -130q0 -26 15 -26q26 0 48 79l54 -16q-11 -59 -43.5 -107.5t-90.5 -48.5q-37 0 -60.5 21t-23.5 70
q0 19 2.5 35.5t3.5 24.5h-1q-32 -83 -78 -117t-96 -34q-48 0 -73 30t-25 84q0 18 3 37h-1q-59 -151 -168 -151q-62 0 -91 40.5z" />
    <glyph glyph-name="uni0449" unicode="&#x449;" horiz-adv-x="919" 
d="M839 40q0 -19 10 -35q17 -28 17 -58q0 -72 -94 -147l-38 38q27 31 34.5 49.5t5.5 39.5q-1 6 -1 16q0 15 3.5 24.5t12.5 29.5l-7 2q-23 -10 -46 -10q-37 0 -60.5 21t-23.5 70q0 19 2.5 35.5t3.5 24.5h-1q-32 -83 -78 -117t-96 -34q-48 0 -73 30t-25 84q0 18 3 37h-1
q-59 -151 -168 -151q-62 0 -91 40.5t-29 113.5q0 43 13 125q12 88 12 124q0 26 -16 26q-26 0 -48 -79l-54 16q6 33 25.5 69t51.5 61.5t74 25.5q53 0 73.5 -28t20.5 -85q0 -45 -14 -153q-2 -17 -6.5 -58.5t-4.5 -63.5t6.5 -32t21.5 -10q29 0 61 55.5t53 136.5t21 150
q0 27 -4 77h130q3 -28 3 -67q0 -68 -15 -199q-9 -81 -9 -111q0 -22 6.5 -32t21.5 -10q29 0 62 57t55 139t22 151q0 24 -3 72h129q3 -28 3 -48q0 -32 -7 -93.5t-15 -120.5q-15 -109 -15 -130q0 -26 15 -26q26 0 48 79l54 -16q-8 -43 -26 -77q-5 -17 -5 -28z" />
    <glyph glyph-name="uni044A" unicode="&#x44a;" horiz-adv-x="481" 
d="M91.5 32q-50.5 43 -50.5 122q0 19 3 38q22 102 187 217l-2 7q-15 0 -49 8q-3 1 -21.5 5t-37.5 4q-22 0 -32 -10.5t-10 -32.5q0 -8 4 -34l-59 -8q-11 38 -11 66q0 46 26.5 71.5t77.5 25.5q19 0 35.5 -4t39.5 -12t37.5 -11.5t32.5 -3.5q37 0 70 27l43 -47
q-82 -75 -129 -137q26 4 42 4q65 0 106.5 -38t41.5 -105q0 -52 -27.5 -96.5t-76 -71.5t-108.5 -27q-82 0 -132.5 43zM287.5 85q19.5 23 25.5 75q1 8 1 23q0 40 -18.5 61t-53.5 22q-17 0 -37 -7q-19 -23 -29.5 -54t-10.5 -60q0 -36 17 -59.5t50 -23.5q36 0 55.5 23z" />
    <glyph glyph-name="uni044B" unicode="&#x44b;" horiz-adv-x="774" 
d="M431 292.5q43 -35.5 43 -107.5q0 -58 -28 -102.5t-79 -68.5t-117 -24q-79 0 -119 36.5t-40 97.5q0 9 2 25q12 97 19 142q2 19 6.5 53t4.5 49q0 25 -13 25q-29 0 -50 -79l-54 16q17 63 56 109.5t97 46.5q93 0 93 -113q0 -21 -3 -44l-6 -41q39 15 77 15q68 0 111 -35.5z
M768 145q-7 -32 -27 -68.5t-52.5 -62t-73.5 -25.5q-39 0 -65.5 23t-26.5 78q0 32 11 120q19 144 19 228q0 42 -2 62h134q3 -28 3 -48q0 -32 -7 -93.5t-15 -120.5q-15 -109 -15 -130q0 -26 14 -26q26 0 48 79zM290 266q-25 0 -55 -12l-13 -95q-2 -12 -2 -32q0 -34 13 -49.5
t41 -15.5q84 0 84 110q0 94 -68 94z" />
    <glyph glyph-name="uni044C" unicode="&#x44c;" horiz-adv-x="510" 
d="M431 292.5q43 -35.5 43 -107.5q0 -58 -28 -102.5t-79 -68.5t-117 -24q-79 0 -119 36.5t-40 97.5q0 9 2 25q12 97 19 142q2 19 6.5 53t4.5 49q0 25 -13 25q-29 0 -50 -79l-54 16q17 63 56 109.5t97 46.5q93 0 93 -113q0 -21 -3 -44l-6 -41q39 15 77 15q68 0 111 -35.5z
M290 266q-25 0 -55 -12l-13 -95q-2 -12 -2 -32q0 -34 13 -49.5t41 -15.5q84 0 84 110q0 94 -68 94z" />
    </font>
</defs>
</svg>
